%TF.GenerationSoftware,KiCad,Pcbnew,9.0.5*%
%TF.CreationDate,2026-01-03T13:47:43+01:00*%
%TF.ProjectId,CanSat,43616e53-6174-42e6-9b69-6361645f7063,rev?*%
%TF.SameCoordinates,Original*%
%TF.FileFunction,Legend,Top*%
%TF.FilePolarity,Positive*%
%FSLAX46Y46*%
G04 Gerber Fmt 4.6, Leading zero omitted, Abs format (unit mm)*
G04 Created by KiCad (PCBNEW 9.0.5) date 2026-01-03 13:47:43*
%MOMM*%
%LPD*%
G01*
G04 APERTURE LIST*
%ADD10C,0.150000*%
%ADD11C,0.120000*%
%ADD12C,0.127000*%
%ADD13C,0.200000*%
%ADD14C,0.100000*%
G04 APERTURE END LIST*
D10*
X94913557Y-114874975D02*
X94961177Y-114922594D01*
X94961177Y-114922594D02*
X95008796Y-115065451D01*
X95008796Y-115065451D02*
X95008796Y-115160689D01*
X95008796Y-115160689D02*
X94961177Y-115303546D01*
X94961177Y-115303546D02*
X94865938Y-115398784D01*
X94865938Y-115398784D02*
X94770700Y-115446403D01*
X94770700Y-115446403D02*
X94580224Y-115494022D01*
X94580224Y-115494022D02*
X94437367Y-115494022D01*
X94437367Y-115494022D02*
X94246891Y-115446403D01*
X94246891Y-115446403D02*
X94151653Y-115398784D01*
X94151653Y-115398784D02*
X94056415Y-115303546D01*
X94056415Y-115303546D02*
X94008796Y-115160689D01*
X94008796Y-115160689D02*
X94008796Y-115065451D01*
X94008796Y-115065451D02*
X94056415Y-114922594D01*
X94056415Y-114922594D02*
X94104034Y-114874975D01*
X94008796Y-114541641D02*
X94008796Y-113922594D01*
X94008796Y-113922594D02*
X94389748Y-114255927D01*
X94389748Y-114255927D02*
X94389748Y-114113070D01*
X94389748Y-114113070D02*
X94437367Y-114017832D01*
X94437367Y-114017832D02*
X94484986Y-113970213D01*
X94484986Y-113970213D02*
X94580224Y-113922594D01*
X94580224Y-113922594D02*
X94818319Y-113922594D01*
X94818319Y-113922594D02*
X94913557Y-113970213D01*
X94913557Y-113970213D02*
X94961177Y-114017832D01*
X94961177Y-114017832D02*
X95008796Y-114113070D01*
X95008796Y-114113070D02*
X95008796Y-114398784D01*
X95008796Y-114398784D02*
X94961177Y-114494022D01*
X94961177Y-114494022D02*
X94913557Y-114541641D01*
X94342129Y-113065451D02*
X95008796Y-113065451D01*
X93961177Y-113303546D02*
X94675462Y-113541641D01*
X94675462Y-113541641D02*
X94675462Y-112922594D01*
X96913557Y-114874975D02*
X96961177Y-114922594D01*
X96961177Y-114922594D02*
X97008796Y-115065451D01*
X97008796Y-115065451D02*
X97008796Y-115160689D01*
X97008796Y-115160689D02*
X96961177Y-115303546D01*
X96961177Y-115303546D02*
X96865938Y-115398784D01*
X96865938Y-115398784D02*
X96770700Y-115446403D01*
X96770700Y-115446403D02*
X96580224Y-115494022D01*
X96580224Y-115494022D02*
X96437367Y-115494022D01*
X96437367Y-115494022D02*
X96246891Y-115446403D01*
X96246891Y-115446403D02*
X96151653Y-115398784D01*
X96151653Y-115398784D02*
X96056415Y-115303546D01*
X96056415Y-115303546D02*
X96008796Y-115160689D01*
X96008796Y-115160689D02*
X96008796Y-115065451D01*
X96008796Y-115065451D02*
X96056415Y-114922594D01*
X96056415Y-114922594D02*
X96104034Y-114874975D01*
X96342129Y-114017832D02*
X97008796Y-114017832D01*
X95961177Y-114255927D02*
X96675462Y-114494022D01*
X96675462Y-114494022D02*
X96675462Y-113874975D01*
X96342129Y-113065451D02*
X97008796Y-113065451D01*
X95961177Y-113303546D02*
X96675462Y-113541641D01*
X96675462Y-113541641D02*
X96675462Y-112922594D01*
X89666666Y-119154819D02*
X89666666Y-119869104D01*
X89666666Y-119869104D02*
X89619047Y-120011961D01*
X89619047Y-120011961D02*
X89523809Y-120107200D01*
X89523809Y-120107200D02*
X89380952Y-120154819D01*
X89380952Y-120154819D02*
X89285714Y-120154819D01*
X90095238Y-119250057D02*
X90142857Y-119202438D01*
X90142857Y-119202438D02*
X90238095Y-119154819D01*
X90238095Y-119154819D02*
X90476190Y-119154819D01*
X90476190Y-119154819D02*
X90571428Y-119202438D01*
X90571428Y-119202438D02*
X90619047Y-119250057D01*
X90619047Y-119250057D02*
X90666666Y-119345295D01*
X90666666Y-119345295D02*
X90666666Y-119440533D01*
X90666666Y-119440533D02*
X90619047Y-119583390D01*
X90619047Y-119583390D02*
X90047619Y-120154819D01*
X90047619Y-120154819D02*
X90666666Y-120154819D01*
X97254819Y-100586904D02*
X98064342Y-100586904D01*
X98064342Y-100586904D02*
X98159580Y-100539285D01*
X98159580Y-100539285D02*
X98207200Y-100491666D01*
X98207200Y-100491666D02*
X98254819Y-100396428D01*
X98254819Y-100396428D02*
X98254819Y-100205952D01*
X98254819Y-100205952D02*
X98207200Y-100110714D01*
X98207200Y-100110714D02*
X98159580Y-100063095D01*
X98159580Y-100063095D02*
X98064342Y-100015476D01*
X98064342Y-100015476D02*
X97254819Y-100015476D01*
X97254819Y-99634523D02*
X97254819Y-98967857D01*
X97254819Y-98967857D02*
X98254819Y-99396428D01*
X103639580Y-105342857D02*
X103687200Y-105390476D01*
X103687200Y-105390476D02*
X103734819Y-105533333D01*
X103734819Y-105533333D02*
X103734819Y-105628571D01*
X103734819Y-105628571D02*
X103687200Y-105771428D01*
X103687200Y-105771428D02*
X103591961Y-105866666D01*
X103591961Y-105866666D02*
X103496723Y-105914285D01*
X103496723Y-105914285D02*
X103306247Y-105961904D01*
X103306247Y-105961904D02*
X103163390Y-105961904D01*
X103163390Y-105961904D02*
X102972914Y-105914285D01*
X102972914Y-105914285D02*
X102877676Y-105866666D01*
X102877676Y-105866666D02*
X102782438Y-105771428D01*
X102782438Y-105771428D02*
X102734819Y-105628571D01*
X102734819Y-105628571D02*
X102734819Y-105533333D01*
X102734819Y-105533333D02*
X102782438Y-105390476D01*
X102782438Y-105390476D02*
X102830057Y-105342857D01*
X103068152Y-104485714D02*
X103734819Y-104485714D01*
X102687200Y-104723809D02*
X103401485Y-104961904D01*
X103401485Y-104961904D02*
X103401485Y-104342857D01*
X102734819Y-104057142D02*
X102734819Y-103438095D01*
X102734819Y-103438095D02*
X103115771Y-103771428D01*
X103115771Y-103771428D02*
X103115771Y-103628571D01*
X103115771Y-103628571D02*
X103163390Y-103533333D01*
X103163390Y-103533333D02*
X103211009Y-103485714D01*
X103211009Y-103485714D02*
X103306247Y-103438095D01*
X103306247Y-103438095D02*
X103544342Y-103438095D01*
X103544342Y-103438095D02*
X103639580Y-103485714D01*
X103639580Y-103485714D02*
X103687200Y-103533333D01*
X103687200Y-103533333D02*
X103734819Y-103628571D01*
X103734819Y-103628571D02*
X103734819Y-103914285D01*
X103734819Y-103914285D02*
X103687200Y-104009523D01*
X103687200Y-104009523D02*
X103639580Y-104057142D01*
X92032142Y-112914580D02*
X91984523Y-112962200D01*
X91984523Y-112962200D02*
X91841666Y-113009819D01*
X91841666Y-113009819D02*
X91746428Y-113009819D01*
X91746428Y-113009819D02*
X91603571Y-112962200D01*
X91603571Y-112962200D02*
X91508333Y-112866961D01*
X91508333Y-112866961D02*
X91460714Y-112771723D01*
X91460714Y-112771723D02*
X91413095Y-112581247D01*
X91413095Y-112581247D02*
X91413095Y-112438390D01*
X91413095Y-112438390D02*
X91460714Y-112247914D01*
X91460714Y-112247914D02*
X91508333Y-112152676D01*
X91508333Y-112152676D02*
X91603571Y-112057438D01*
X91603571Y-112057438D02*
X91746428Y-112009819D01*
X91746428Y-112009819D02*
X91841666Y-112009819D01*
X91841666Y-112009819D02*
X91984523Y-112057438D01*
X91984523Y-112057438D02*
X92032142Y-112105057D01*
X92936904Y-112009819D02*
X92460714Y-112009819D01*
X92460714Y-112009819D02*
X92413095Y-112486009D01*
X92413095Y-112486009D02*
X92460714Y-112438390D01*
X92460714Y-112438390D02*
X92555952Y-112390771D01*
X92555952Y-112390771D02*
X92794047Y-112390771D01*
X92794047Y-112390771D02*
X92889285Y-112438390D01*
X92889285Y-112438390D02*
X92936904Y-112486009D01*
X92936904Y-112486009D02*
X92984523Y-112581247D01*
X92984523Y-112581247D02*
X92984523Y-112819342D01*
X92984523Y-112819342D02*
X92936904Y-112914580D01*
X92936904Y-112914580D02*
X92889285Y-112962200D01*
X92889285Y-112962200D02*
X92794047Y-113009819D01*
X92794047Y-113009819D02*
X92555952Y-113009819D01*
X92555952Y-113009819D02*
X92460714Y-112962200D01*
X92460714Y-112962200D02*
X92413095Y-112914580D01*
X93317857Y-112009819D02*
X93984523Y-112009819D01*
X93984523Y-112009819D02*
X93555952Y-113009819D01*
X100157142Y-82039580D02*
X100109523Y-82087200D01*
X100109523Y-82087200D02*
X99966666Y-82134819D01*
X99966666Y-82134819D02*
X99871428Y-82134819D01*
X99871428Y-82134819D02*
X99728571Y-82087200D01*
X99728571Y-82087200D02*
X99633333Y-81991961D01*
X99633333Y-81991961D02*
X99585714Y-81896723D01*
X99585714Y-81896723D02*
X99538095Y-81706247D01*
X99538095Y-81706247D02*
X99538095Y-81563390D01*
X99538095Y-81563390D02*
X99585714Y-81372914D01*
X99585714Y-81372914D02*
X99633333Y-81277676D01*
X99633333Y-81277676D02*
X99728571Y-81182438D01*
X99728571Y-81182438D02*
X99871428Y-81134819D01*
X99871428Y-81134819D02*
X99966666Y-81134819D01*
X99966666Y-81134819D02*
X100109523Y-81182438D01*
X100109523Y-81182438D02*
X100157142Y-81230057D01*
X101014285Y-81468152D02*
X101014285Y-82134819D01*
X100776190Y-81087200D02*
X100538095Y-81801485D01*
X100538095Y-81801485D02*
X101157142Y-81801485D01*
X102014285Y-81134819D02*
X101538095Y-81134819D01*
X101538095Y-81134819D02*
X101490476Y-81611009D01*
X101490476Y-81611009D02*
X101538095Y-81563390D01*
X101538095Y-81563390D02*
X101633333Y-81515771D01*
X101633333Y-81515771D02*
X101871428Y-81515771D01*
X101871428Y-81515771D02*
X101966666Y-81563390D01*
X101966666Y-81563390D02*
X102014285Y-81611009D01*
X102014285Y-81611009D02*
X102061904Y-81706247D01*
X102061904Y-81706247D02*
X102061904Y-81944342D01*
X102061904Y-81944342D02*
X102014285Y-82039580D01*
X102014285Y-82039580D02*
X101966666Y-82087200D01*
X101966666Y-82087200D02*
X101871428Y-82134819D01*
X101871428Y-82134819D02*
X101633333Y-82134819D01*
X101633333Y-82134819D02*
X101538095Y-82087200D01*
X101538095Y-82087200D02*
X101490476Y-82039580D01*
X80313095Y-119389819D02*
X80313095Y-120199342D01*
X80313095Y-120199342D02*
X80360714Y-120294580D01*
X80360714Y-120294580D02*
X80408333Y-120342200D01*
X80408333Y-120342200D02*
X80503571Y-120389819D01*
X80503571Y-120389819D02*
X80694047Y-120389819D01*
X80694047Y-120389819D02*
X80789285Y-120342200D01*
X80789285Y-120342200D02*
X80836904Y-120294580D01*
X80836904Y-120294580D02*
X80884523Y-120199342D01*
X80884523Y-120199342D02*
X80884523Y-119389819D01*
X81503571Y-119818390D02*
X81408333Y-119770771D01*
X81408333Y-119770771D02*
X81360714Y-119723152D01*
X81360714Y-119723152D02*
X81313095Y-119627914D01*
X81313095Y-119627914D02*
X81313095Y-119580295D01*
X81313095Y-119580295D02*
X81360714Y-119485057D01*
X81360714Y-119485057D02*
X81408333Y-119437438D01*
X81408333Y-119437438D02*
X81503571Y-119389819D01*
X81503571Y-119389819D02*
X81694047Y-119389819D01*
X81694047Y-119389819D02*
X81789285Y-119437438D01*
X81789285Y-119437438D02*
X81836904Y-119485057D01*
X81836904Y-119485057D02*
X81884523Y-119580295D01*
X81884523Y-119580295D02*
X81884523Y-119627914D01*
X81884523Y-119627914D02*
X81836904Y-119723152D01*
X81836904Y-119723152D02*
X81789285Y-119770771D01*
X81789285Y-119770771D02*
X81694047Y-119818390D01*
X81694047Y-119818390D02*
X81503571Y-119818390D01*
X81503571Y-119818390D02*
X81408333Y-119866009D01*
X81408333Y-119866009D02*
X81360714Y-119913628D01*
X81360714Y-119913628D02*
X81313095Y-120008866D01*
X81313095Y-120008866D02*
X81313095Y-120199342D01*
X81313095Y-120199342D02*
X81360714Y-120294580D01*
X81360714Y-120294580D02*
X81408333Y-120342200D01*
X81408333Y-120342200D02*
X81503571Y-120389819D01*
X81503571Y-120389819D02*
X81694047Y-120389819D01*
X81694047Y-120389819D02*
X81789285Y-120342200D01*
X81789285Y-120342200D02*
X81836904Y-120294580D01*
X81836904Y-120294580D02*
X81884523Y-120199342D01*
X81884523Y-120199342D02*
X81884523Y-120008866D01*
X81884523Y-120008866D02*
X81836904Y-119913628D01*
X81836904Y-119913628D02*
X81789285Y-119866009D01*
X81789285Y-119866009D02*
X81694047Y-119818390D01*
X84679580Y-120442857D02*
X84727200Y-120490476D01*
X84727200Y-120490476D02*
X84774819Y-120633333D01*
X84774819Y-120633333D02*
X84774819Y-120728571D01*
X84774819Y-120728571D02*
X84727200Y-120871428D01*
X84727200Y-120871428D02*
X84631961Y-120966666D01*
X84631961Y-120966666D02*
X84536723Y-121014285D01*
X84536723Y-121014285D02*
X84346247Y-121061904D01*
X84346247Y-121061904D02*
X84203390Y-121061904D01*
X84203390Y-121061904D02*
X84012914Y-121014285D01*
X84012914Y-121014285D02*
X83917676Y-120966666D01*
X83917676Y-120966666D02*
X83822438Y-120871428D01*
X83822438Y-120871428D02*
X83774819Y-120728571D01*
X83774819Y-120728571D02*
X83774819Y-120633333D01*
X83774819Y-120633333D02*
X83822438Y-120490476D01*
X83822438Y-120490476D02*
X83870057Y-120442857D01*
X84774819Y-119490476D02*
X84774819Y-120061904D01*
X84774819Y-119776190D02*
X83774819Y-119776190D01*
X83774819Y-119776190D02*
X83917676Y-119871428D01*
X83917676Y-119871428D02*
X84012914Y-119966666D01*
X84012914Y-119966666D02*
X84060533Y-120061904D01*
X83774819Y-118633333D02*
X83774819Y-118823809D01*
X83774819Y-118823809D02*
X83822438Y-118919047D01*
X83822438Y-118919047D02*
X83870057Y-118966666D01*
X83870057Y-118966666D02*
X84012914Y-119061904D01*
X84012914Y-119061904D02*
X84203390Y-119109523D01*
X84203390Y-119109523D02*
X84584342Y-119109523D01*
X84584342Y-119109523D02*
X84679580Y-119061904D01*
X84679580Y-119061904D02*
X84727200Y-119014285D01*
X84727200Y-119014285D02*
X84774819Y-118919047D01*
X84774819Y-118919047D02*
X84774819Y-118728571D01*
X84774819Y-118728571D02*
X84727200Y-118633333D01*
X84727200Y-118633333D02*
X84679580Y-118585714D01*
X84679580Y-118585714D02*
X84584342Y-118538095D01*
X84584342Y-118538095D02*
X84346247Y-118538095D01*
X84346247Y-118538095D02*
X84251009Y-118585714D01*
X84251009Y-118585714D02*
X84203390Y-118633333D01*
X84203390Y-118633333D02*
X84155771Y-118728571D01*
X84155771Y-118728571D02*
X84155771Y-118919047D01*
X84155771Y-118919047D02*
X84203390Y-119014285D01*
X84203390Y-119014285D02*
X84251009Y-119061904D01*
X84251009Y-119061904D02*
X84346247Y-119109523D01*
X89433333Y-77839580D02*
X89385714Y-77887200D01*
X89385714Y-77887200D02*
X89242857Y-77934819D01*
X89242857Y-77934819D02*
X89147619Y-77934819D01*
X89147619Y-77934819D02*
X89004762Y-77887200D01*
X89004762Y-77887200D02*
X88909524Y-77791961D01*
X88909524Y-77791961D02*
X88861905Y-77696723D01*
X88861905Y-77696723D02*
X88814286Y-77506247D01*
X88814286Y-77506247D02*
X88814286Y-77363390D01*
X88814286Y-77363390D02*
X88861905Y-77172914D01*
X88861905Y-77172914D02*
X88909524Y-77077676D01*
X88909524Y-77077676D02*
X89004762Y-76982438D01*
X89004762Y-76982438D02*
X89147619Y-76934819D01*
X89147619Y-76934819D02*
X89242857Y-76934819D01*
X89242857Y-76934819D02*
X89385714Y-76982438D01*
X89385714Y-76982438D02*
X89433333Y-77030057D01*
X90338095Y-76934819D02*
X89861905Y-76934819D01*
X89861905Y-76934819D02*
X89814286Y-77411009D01*
X89814286Y-77411009D02*
X89861905Y-77363390D01*
X89861905Y-77363390D02*
X89957143Y-77315771D01*
X89957143Y-77315771D02*
X90195238Y-77315771D01*
X90195238Y-77315771D02*
X90290476Y-77363390D01*
X90290476Y-77363390D02*
X90338095Y-77411009D01*
X90338095Y-77411009D02*
X90385714Y-77506247D01*
X90385714Y-77506247D02*
X90385714Y-77744342D01*
X90385714Y-77744342D02*
X90338095Y-77839580D01*
X90338095Y-77839580D02*
X90290476Y-77887200D01*
X90290476Y-77887200D02*
X90195238Y-77934819D01*
X90195238Y-77934819D02*
X89957143Y-77934819D01*
X89957143Y-77934819D02*
X89861905Y-77887200D01*
X89861905Y-77887200D02*
X89814286Y-77839580D01*
X102116242Y-121159034D02*
X101640051Y-121492367D01*
X102116242Y-121730462D02*
X101116242Y-121730462D01*
X101116242Y-121730462D02*
X101116242Y-121349510D01*
X101116242Y-121349510D02*
X101163861Y-121254272D01*
X101163861Y-121254272D02*
X101211480Y-121206653D01*
X101211480Y-121206653D02*
X101306718Y-121159034D01*
X101306718Y-121159034D02*
X101449575Y-121159034D01*
X101449575Y-121159034D02*
X101544813Y-121206653D01*
X101544813Y-121206653D02*
X101592432Y-121254272D01*
X101592432Y-121254272D02*
X101640051Y-121349510D01*
X101640051Y-121349510D02*
X101640051Y-121730462D01*
X102116242Y-120206653D02*
X102116242Y-120778081D01*
X102116242Y-120492367D02*
X101116242Y-120492367D01*
X101116242Y-120492367D02*
X101259099Y-120587605D01*
X101259099Y-120587605D02*
X101354337Y-120682843D01*
X101354337Y-120682843D02*
X101401956Y-120778081D01*
X101116242Y-119587605D02*
X101116242Y-119492367D01*
X101116242Y-119492367D02*
X101163861Y-119397129D01*
X101163861Y-119397129D02*
X101211480Y-119349510D01*
X101211480Y-119349510D02*
X101306718Y-119301891D01*
X101306718Y-119301891D02*
X101497194Y-119254272D01*
X101497194Y-119254272D02*
X101735289Y-119254272D01*
X101735289Y-119254272D02*
X101925765Y-119301891D01*
X101925765Y-119301891D02*
X102021003Y-119349510D01*
X102021003Y-119349510D02*
X102068623Y-119397129D01*
X102068623Y-119397129D02*
X102116242Y-119492367D01*
X102116242Y-119492367D02*
X102116242Y-119587605D01*
X102116242Y-119587605D02*
X102068623Y-119682843D01*
X102068623Y-119682843D02*
X102021003Y-119730462D01*
X102021003Y-119730462D02*
X101925765Y-119778081D01*
X101925765Y-119778081D02*
X101735289Y-119825700D01*
X101735289Y-119825700D02*
X101497194Y-119825700D01*
X101497194Y-119825700D02*
X101306718Y-119778081D01*
X101306718Y-119778081D02*
X101211480Y-119730462D01*
X101211480Y-119730462D02*
X101163861Y-119682843D01*
X101163861Y-119682843D02*
X101116242Y-119587605D01*
X106166042Y-118896019D02*
X105832709Y-118419828D01*
X105594614Y-118896019D02*
X105594614Y-117896019D01*
X105594614Y-117896019D02*
X105975566Y-117896019D01*
X105975566Y-117896019D02*
X106070804Y-117943638D01*
X106070804Y-117943638D02*
X106118423Y-117991257D01*
X106118423Y-117991257D02*
X106166042Y-118086495D01*
X106166042Y-118086495D02*
X106166042Y-118229352D01*
X106166042Y-118229352D02*
X106118423Y-118324590D01*
X106118423Y-118324590D02*
X106070804Y-118372209D01*
X106070804Y-118372209D02*
X105975566Y-118419828D01*
X105975566Y-118419828D02*
X105594614Y-118419828D01*
X106642233Y-118896019D02*
X106832709Y-118896019D01*
X106832709Y-118896019D02*
X106927947Y-118848400D01*
X106927947Y-118848400D02*
X106975566Y-118800780D01*
X106975566Y-118800780D02*
X107070804Y-118657923D01*
X107070804Y-118657923D02*
X107118423Y-118467447D01*
X107118423Y-118467447D02*
X107118423Y-118086495D01*
X107118423Y-118086495D02*
X107070804Y-117991257D01*
X107070804Y-117991257D02*
X107023185Y-117943638D01*
X107023185Y-117943638D02*
X106927947Y-117896019D01*
X106927947Y-117896019D02*
X106737471Y-117896019D01*
X106737471Y-117896019D02*
X106642233Y-117943638D01*
X106642233Y-117943638D02*
X106594614Y-117991257D01*
X106594614Y-117991257D02*
X106546995Y-118086495D01*
X106546995Y-118086495D02*
X106546995Y-118324590D01*
X106546995Y-118324590D02*
X106594614Y-118419828D01*
X106594614Y-118419828D02*
X106642233Y-118467447D01*
X106642233Y-118467447D02*
X106737471Y-118515066D01*
X106737471Y-118515066D02*
X106927947Y-118515066D01*
X106927947Y-118515066D02*
X107023185Y-118467447D01*
X107023185Y-118467447D02*
X107070804Y-118419828D01*
X107070804Y-118419828D02*
X107118423Y-118324590D01*
X107975566Y-118229352D02*
X107975566Y-118896019D01*
X107737471Y-117848400D02*
X107499376Y-118562685D01*
X107499376Y-118562685D02*
X108118423Y-118562685D01*
X99861905Y-93006819D02*
X100433333Y-93006819D01*
X100147619Y-94006819D02*
X100147619Y-93006819D01*
X100766667Y-94006819D02*
X100766667Y-93006819D01*
X100766667Y-93006819D02*
X101147619Y-93006819D01*
X101147619Y-93006819D02*
X101242857Y-93054438D01*
X101242857Y-93054438D02*
X101290476Y-93102057D01*
X101290476Y-93102057D02*
X101338095Y-93197295D01*
X101338095Y-93197295D02*
X101338095Y-93340152D01*
X101338095Y-93340152D02*
X101290476Y-93435390D01*
X101290476Y-93435390D02*
X101242857Y-93483009D01*
X101242857Y-93483009D02*
X101147619Y-93530628D01*
X101147619Y-93530628D02*
X100766667Y-93530628D01*
X102290476Y-94006819D02*
X101719048Y-94006819D01*
X102004762Y-94006819D02*
X102004762Y-93006819D01*
X102004762Y-93006819D02*
X101909524Y-93149676D01*
X101909524Y-93149676D02*
X101814286Y-93244914D01*
X101814286Y-93244914D02*
X101719048Y-93292533D01*
X102623810Y-93006819D02*
X103242857Y-93006819D01*
X103242857Y-93006819D02*
X102909524Y-93387771D01*
X102909524Y-93387771D02*
X103052381Y-93387771D01*
X103052381Y-93387771D02*
X103147619Y-93435390D01*
X103147619Y-93435390D02*
X103195238Y-93483009D01*
X103195238Y-93483009D02*
X103242857Y-93578247D01*
X103242857Y-93578247D02*
X103242857Y-93816342D01*
X103242857Y-93816342D02*
X103195238Y-93911580D01*
X103195238Y-93911580D02*
X103147619Y-93959200D01*
X103147619Y-93959200D02*
X103052381Y-94006819D01*
X103052381Y-94006819D02*
X102766667Y-94006819D01*
X102766667Y-94006819D02*
X102671429Y-93959200D01*
X102671429Y-93959200D02*
X102623810Y-93911580D01*
X108378219Y-124232894D02*
X107378219Y-124232894D01*
X107378219Y-124232894D02*
X107378219Y-123994799D01*
X107378219Y-123994799D02*
X107425838Y-123851942D01*
X107425838Y-123851942D02*
X107521076Y-123756704D01*
X107521076Y-123756704D02*
X107616314Y-123709085D01*
X107616314Y-123709085D02*
X107806790Y-123661466D01*
X107806790Y-123661466D02*
X107949647Y-123661466D01*
X107949647Y-123661466D02*
X108140123Y-123709085D01*
X108140123Y-123709085D02*
X108235361Y-123756704D01*
X108235361Y-123756704D02*
X108330600Y-123851942D01*
X108330600Y-123851942D02*
X108378219Y-123994799D01*
X108378219Y-123994799D02*
X108378219Y-124232894D01*
X107378219Y-122756704D02*
X107378219Y-123232894D01*
X107378219Y-123232894D02*
X107854409Y-123280513D01*
X107854409Y-123280513D02*
X107806790Y-123232894D01*
X107806790Y-123232894D02*
X107759171Y-123137656D01*
X107759171Y-123137656D02*
X107759171Y-122899561D01*
X107759171Y-122899561D02*
X107806790Y-122804323D01*
X107806790Y-122804323D02*
X107854409Y-122756704D01*
X107854409Y-122756704D02*
X107949647Y-122709085D01*
X107949647Y-122709085D02*
X108187742Y-122709085D01*
X108187742Y-122709085D02*
X108282980Y-122756704D01*
X108282980Y-122756704D02*
X108330600Y-122804323D01*
X108330600Y-122804323D02*
X108378219Y-122899561D01*
X108378219Y-122899561D02*
X108378219Y-123137656D01*
X108378219Y-123137656D02*
X108330600Y-123232894D01*
X108330600Y-123232894D02*
X108282980Y-123280513D01*
X99661905Y-90506819D02*
X100233333Y-90506819D01*
X99947619Y-91506819D02*
X99947619Y-90506819D01*
X100566667Y-91506819D02*
X100566667Y-90506819D01*
X100566667Y-90506819D02*
X100947619Y-90506819D01*
X100947619Y-90506819D02*
X101042857Y-90554438D01*
X101042857Y-90554438D02*
X101090476Y-90602057D01*
X101090476Y-90602057D02*
X101138095Y-90697295D01*
X101138095Y-90697295D02*
X101138095Y-90840152D01*
X101138095Y-90840152D02*
X101090476Y-90935390D01*
X101090476Y-90935390D02*
X101042857Y-90983009D01*
X101042857Y-90983009D02*
X100947619Y-91030628D01*
X100947619Y-91030628D02*
X100566667Y-91030628D01*
X102090476Y-91506819D02*
X101519048Y-91506819D01*
X101804762Y-91506819D02*
X101804762Y-90506819D01*
X101804762Y-90506819D02*
X101709524Y-90649676D01*
X101709524Y-90649676D02*
X101614286Y-90744914D01*
X101614286Y-90744914D02*
X101519048Y-90792533D01*
X102471429Y-90602057D02*
X102519048Y-90554438D01*
X102519048Y-90554438D02*
X102614286Y-90506819D01*
X102614286Y-90506819D02*
X102852381Y-90506819D01*
X102852381Y-90506819D02*
X102947619Y-90554438D01*
X102947619Y-90554438D02*
X102995238Y-90602057D01*
X102995238Y-90602057D02*
X103042857Y-90697295D01*
X103042857Y-90697295D02*
X103042857Y-90792533D01*
X103042857Y-90792533D02*
X102995238Y-90935390D01*
X102995238Y-90935390D02*
X102423810Y-91506819D01*
X102423810Y-91506819D02*
X103042857Y-91506819D01*
X73039457Y-107031538D02*
X72991838Y-107126776D01*
X72991838Y-107126776D02*
X72896600Y-107222014D01*
X72896600Y-107222014D02*
X72753742Y-107364871D01*
X72753742Y-107364871D02*
X72706123Y-107460109D01*
X72706123Y-107460109D02*
X72706123Y-107555347D01*
X72944219Y-107507728D02*
X72896600Y-107602966D01*
X72896600Y-107602966D02*
X72801361Y-107698204D01*
X72801361Y-107698204D02*
X72610885Y-107745823D01*
X72610885Y-107745823D02*
X72277552Y-107745823D01*
X72277552Y-107745823D02*
X72087076Y-107698204D01*
X72087076Y-107698204D02*
X71991838Y-107602966D01*
X71991838Y-107602966D02*
X71944219Y-107507728D01*
X71944219Y-107507728D02*
X71944219Y-107317252D01*
X71944219Y-107317252D02*
X71991838Y-107222014D01*
X71991838Y-107222014D02*
X72087076Y-107126776D01*
X72087076Y-107126776D02*
X72277552Y-107079157D01*
X72277552Y-107079157D02*
X72610885Y-107079157D01*
X72610885Y-107079157D02*
X72801361Y-107126776D01*
X72801361Y-107126776D02*
X72896600Y-107222014D01*
X72896600Y-107222014D02*
X72944219Y-107317252D01*
X72944219Y-107317252D02*
X72944219Y-107507728D01*
X72039457Y-106698204D02*
X71991838Y-106650585D01*
X71991838Y-106650585D02*
X71944219Y-106555347D01*
X71944219Y-106555347D02*
X71944219Y-106317252D01*
X71944219Y-106317252D02*
X71991838Y-106222014D01*
X71991838Y-106222014D02*
X72039457Y-106174395D01*
X72039457Y-106174395D02*
X72134695Y-106126776D01*
X72134695Y-106126776D02*
X72229933Y-106126776D01*
X72229933Y-106126776D02*
X72372790Y-106174395D01*
X72372790Y-106174395D02*
X72944219Y-106745823D01*
X72944219Y-106745823D02*
X72944219Y-106126776D01*
X102704819Y-96742857D02*
X102228628Y-97076190D01*
X102704819Y-97314285D02*
X101704819Y-97314285D01*
X101704819Y-97314285D02*
X101704819Y-96933333D01*
X101704819Y-96933333D02*
X101752438Y-96838095D01*
X101752438Y-96838095D02*
X101800057Y-96790476D01*
X101800057Y-96790476D02*
X101895295Y-96742857D01*
X101895295Y-96742857D02*
X102038152Y-96742857D01*
X102038152Y-96742857D02*
X102133390Y-96790476D01*
X102133390Y-96790476D02*
X102181009Y-96838095D01*
X102181009Y-96838095D02*
X102228628Y-96933333D01*
X102228628Y-96933333D02*
X102228628Y-97314285D01*
X102704819Y-96266666D02*
X102704819Y-96076190D01*
X102704819Y-96076190D02*
X102657200Y-95980952D01*
X102657200Y-95980952D02*
X102609580Y-95933333D01*
X102609580Y-95933333D02*
X102466723Y-95838095D01*
X102466723Y-95838095D02*
X102276247Y-95790476D01*
X102276247Y-95790476D02*
X101895295Y-95790476D01*
X101895295Y-95790476D02*
X101800057Y-95838095D01*
X101800057Y-95838095D02*
X101752438Y-95885714D01*
X101752438Y-95885714D02*
X101704819Y-95980952D01*
X101704819Y-95980952D02*
X101704819Y-96171428D01*
X101704819Y-96171428D02*
X101752438Y-96266666D01*
X101752438Y-96266666D02*
X101800057Y-96314285D01*
X101800057Y-96314285D02*
X101895295Y-96361904D01*
X101895295Y-96361904D02*
X102133390Y-96361904D01*
X102133390Y-96361904D02*
X102228628Y-96314285D01*
X102228628Y-96314285D02*
X102276247Y-96266666D01*
X102276247Y-96266666D02*
X102323866Y-96171428D01*
X102323866Y-96171428D02*
X102323866Y-95980952D01*
X102323866Y-95980952D02*
X102276247Y-95885714D01*
X102276247Y-95885714D02*
X102228628Y-95838095D01*
X102228628Y-95838095D02*
X102133390Y-95790476D01*
X101704819Y-95457142D02*
X101704819Y-94790476D01*
X101704819Y-94790476D02*
X102704819Y-95219047D01*
X103859676Y-72419619D02*
X104377771Y-72419619D01*
X104377771Y-72419619D02*
X104438723Y-72389142D01*
X104438723Y-72389142D02*
X104469200Y-72358666D01*
X104469200Y-72358666D02*
X104499676Y-72297714D01*
X104499676Y-72297714D02*
X104499676Y-72175809D01*
X104499676Y-72175809D02*
X104469200Y-72114857D01*
X104469200Y-72114857D02*
X104438723Y-72084380D01*
X104438723Y-72084380D02*
X104377771Y-72053904D01*
X104377771Y-72053904D02*
X103859676Y-72053904D01*
X104499676Y-71413904D02*
X104499676Y-71779619D01*
X104499676Y-71596762D02*
X103859676Y-71596762D01*
X103859676Y-71596762D02*
X103951104Y-71657714D01*
X103951104Y-71657714D02*
X104012057Y-71718666D01*
X104012057Y-71718666D02*
X104042533Y-71779619D01*
X109620442Y-118896019D02*
X109287109Y-118419828D01*
X109049014Y-118896019D02*
X109049014Y-117896019D01*
X109049014Y-117896019D02*
X109429966Y-117896019D01*
X109429966Y-117896019D02*
X109525204Y-117943638D01*
X109525204Y-117943638D02*
X109572823Y-117991257D01*
X109572823Y-117991257D02*
X109620442Y-118086495D01*
X109620442Y-118086495D02*
X109620442Y-118229352D01*
X109620442Y-118229352D02*
X109572823Y-118324590D01*
X109572823Y-118324590D02*
X109525204Y-118372209D01*
X109525204Y-118372209D02*
X109429966Y-118419828D01*
X109429966Y-118419828D02*
X109049014Y-118419828D01*
X110096633Y-118896019D02*
X110287109Y-118896019D01*
X110287109Y-118896019D02*
X110382347Y-118848400D01*
X110382347Y-118848400D02*
X110429966Y-118800780D01*
X110429966Y-118800780D02*
X110525204Y-118657923D01*
X110525204Y-118657923D02*
X110572823Y-118467447D01*
X110572823Y-118467447D02*
X110572823Y-118086495D01*
X110572823Y-118086495D02*
X110525204Y-117991257D01*
X110525204Y-117991257D02*
X110477585Y-117943638D01*
X110477585Y-117943638D02*
X110382347Y-117896019D01*
X110382347Y-117896019D02*
X110191871Y-117896019D01*
X110191871Y-117896019D02*
X110096633Y-117943638D01*
X110096633Y-117943638D02*
X110049014Y-117991257D01*
X110049014Y-117991257D02*
X110001395Y-118086495D01*
X110001395Y-118086495D02*
X110001395Y-118324590D01*
X110001395Y-118324590D02*
X110049014Y-118419828D01*
X110049014Y-118419828D02*
X110096633Y-118467447D01*
X110096633Y-118467447D02*
X110191871Y-118515066D01*
X110191871Y-118515066D02*
X110382347Y-118515066D01*
X110382347Y-118515066D02*
X110477585Y-118467447D01*
X110477585Y-118467447D02*
X110525204Y-118419828D01*
X110525204Y-118419828D02*
X110572823Y-118324590D01*
X110906157Y-117896019D02*
X111525204Y-117896019D01*
X111525204Y-117896019D02*
X111191871Y-118276971D01*
X111191871Y-118276971D02*
X111334728Y-118276971D01*
X111334728Y-118276971D02*
X111429966Y-118324590D01*
X111429966Y-118324590D02*
X111477585Y-118372209D01*
X111477585Y-118372209D02*
X111525204Y-118467447D01*
X111525204Y-118467447D02*
X111525204Y-118705542D01*
X111525204Y-118705542D02*
X111477585Y-118800780D01*
X111477585Y-118800780D02*
X111429966Y-118848400D01*
X111429966Y-118848400D02*
X111334728Y-118896019D01*
X111334728Y-118896019D02*
X111049014Y-118896019D01*
X111049014Y-118896019D02*
X110953776Y-118848400D01*
X110953776Y-118848400D02*
X110906157Y-118800780D01*
X91279580Y-98342857D02*
X91327200Y-98390476D01*
X91327200Y-98390476D02*
X91374819Y-98533333D01*
X91374819Y-98533333D02*
X91374819Y-98628571D01*
X91374819Y-98628571D02*
X91327200Y-98771428D01*
X91327200Y-98771428D02*
X91231961Y-98866666D01*
X91231961Y-98866666D02*
X91136723Y-98914285D01*
X91136723Y-98914285D02*
X90946247Y-98961904D01*
X90946247Y-98961904D02*
X90803390Y-98961904D01*
X90803390Y-98961904D02*
X90612914Y-98914285D01*
X90612914Y-98914285D02*
X90517676Y-98866666D01*
X90517676Y-98866666D02*
X90422438Y-98771428D01*
X90422438Y-98771428D02*
X90374819Y-98628571D01*
X90374819Y-98628571D02*
X90374819Y-98533333D01*
X90374819Y-98533333D02*
X90422438Y-98390476D01*
X90422438Y-98390476D02*
X90470057Y-98342857D01*
X91374819Y-97390476D02*
X91374819Y-97961904D01*
X91374819Y-97676190D02*
X90374819Y-97676190D01*
X90374819Y-97676190D02*
X90517676Y-97771428D01*
X90517676Y-97771428D02*
X90612914Y-97866666D01*
X90612914Y-97866666D02*
X90660533Y-97961904D01*
X91374819Y-96914285D02*
X91374819Y-96723809D01*
X91374819Y-96723809D02*
X91327200Y-96628571D01*
X91327200Y-96628571D02*
X91279580Y-96580952D01*
X91279580Y-96580952D02*
X91136723Y-96485714D01*
X91136723Y-96485714D02*
X90946247Y-96438095D01*
X90946247Y-96438095D02*
X90565295Y-96438095D01*
X90565295Y-96438095D02*
X90470057Y-96485714D01*
X90470057Y-96485714D02*
X90422438Y-96533333D01*
X90422438Y-96533333D02*
X90374819Y-96628571D01*
X90374819Y-96628571D02*
X90374819Y-96819047D01*
X90374819Y-96819047D02*
X90422438Y-96914285D01*
X90422438Y-96914285D02*
X90470057Y-96961904D01*
X90470057Y-96961904D02*
X90565295Y-97009523D01*
X90565295Y-97009523D02*
X90803390Y-97009523D01*
X90803390Y-97009523D02*
X90898628Y-96961904D01*
X90898628Y-96961904D02*
X90946247Y-96914285D01*
X90946247Y-96914285D02*
X90993866Y-96819047D01*
X90993866Y-96819047D02*
X90993866Y-96628571D01*
X90993866Y-96628571D02*
X90946247Y-96533333D01*
X90946247Y-96533333D02*
X90898628Y-96485714D01*
X90898628Y-96485714D02*
X90803390Y-96438095D01*
X96204819Y-101238094D02*
X97014342Y-101238094D01*
X97014342Y-101238094D02*
X97109580Y-101190475D01*
X97109580Y-101190475D02*
X97157200Y-101142856D01*
X97157200Y-101142856D02*
X97204819Y-101047618D01*
X97204819Y-101047618D02*
X97204819Y-100857142D01*
X97204819Y-100857142D02*
X97157200Y-100761904D01*
X97157200Y-100761904D02*
X97109580Y-100714285D01*
X97109580Y-100714285D02*
X97014342Y-100666666D01*
X97014342Y-100666666D02*
X96204819Y-100666666D01*
X96300057Y-100238094D02*
X96252438Y-100190475D01*
X96252438Y-100190475D02*
X96204819Y-100095237D01*
X96204819Y-100095237D02*
X96204819Y-99857142D01*
X96204819Y-99857142D02*
X96252438Y-99761904D01*
X96252438Y-99761904D02*
X96300057Y-99714285D01*
X96300057Y-99714285D02*
X96395295Y-99666666D01*
X96395295Y-99666666D02*
X96490533Y-99666666D01*
X96490533Y-99666666D02*
X96633390Y-99714285D01*
X96633390Y-99714285D02*
X97204819Y-100285713D01*
X97204819Y-100285713D02*
X97204819Y-99666666D01*
X96204819Y-99333332D02*
X96204819Y-98714285D01*
X96204819Y-98714285D02*
X96585771Y-99047618D01*
X96585771Y-99047618D02*
X96585771Y-98904761D01*
X96585771Y-98904761D02*
X96633390Y-98809523D01*
X96633390Y-98809523D02*
X96681009Y-98761904D01*
X96681009Y-98761904D02*
X96776247Y-98714285D01*
X96776247Y-98714285D02*
X97014342Y-98714285D01*
X97014342Y-98714285D02*
X97109580Y-98761904D01*
X97109580Y-98761904D02*
X97157200Y-98809523D01*
X97157200Y-98809523D02*
X97204819Y-98904761D01*
X97204819Y-98904761D02*
X97204819Y-99190475D01*
X97204819Y-99190475D02*
X97157200Y-99285713D01*
X97157200Y-99285713D02*
X97109580Y-99333332D01*
X104083333Y-78679580D02*
X104035714Y-78727200D01*
X104035714Y-78727200D02*
X103892857Y-78774819D01*
X103892857Y-78774819D02*
X103797619Y-78774819D01*
X103797619Y-78774819D02*
X103654762Y-78727200D01*
X103654762Y-78727200D02*
X103559524Y-78631961D01*
X103559524Y-78631961D02*
X103511905Y-78536723D01*
X103511905Y-78536723D02*
X103464286Y-78346247D01*
X103464286Y-78346247D02*
X103464286Y-78203390D01*
X103464286Y-78203390D02*
X103511905Y-78012914D01*
X103511905Y-78012914D02*
X103559524Y-77917676D01*
X103559524Y-77917676D02*
X103654762Y-77822438D01*
X103654762Y-77822438D02*
X103797619Y-77774819D01*
X103797619Y-77774819D02*
X103892857Y-77774819D01*
X103892857Y-77774819D02*
X104035714Y-77822438D01*
X104035714Y-77822438D02*
X104083333Y-77870057D01*
X104654762Y-78203390D02*
X104559524Y-78155771D01*
X104559524Y-78155771D02*
X104511905Y-78108152D01*
X104511905Y-78108152D02*
X104464286Y-78012914D01*
X104464286Y-78012914D02*
X104464286Y-77965295D01*
X104464286Y-77965295D02*
X104511905Y-77870057D01*
X104511905Y-77870057D02*
X104559524Y-77822438D01*
X104559524Y-77822438D02*
X104654762Y-77774819D01*
X104654762Y-77774819D02*
X104845238Y-77774819D01*
X104845238Y-77774819D02*
X104940476Y-77822438D01*
X104940476Y-77822438D02*
X104988095Y-77870057D01*
X104988095Y-77870057D02*
X105035714Y-77965295D01*
X105035714Y-77965295D02*
X105035714Y-78012914D01*
X105035714Y-78012914D02*
X104988095Y-78108152D01*
X104988095Y-78108152D02*
X104940476Y-78155771D01*
X104940476Y-78155771D02*
X104845238Y-78203390D01*
X104845238Y-78203390D02*
X104654762Y-78203390D01*
X104654762Y-78203390D02*
X104559524Y-78251009D01*
X104559524Y-78251009D02*
X104511905Y-78298628D01*
X104511905Y-78298628D02*
X104464286Y-78393866D01*
X104464286Y-78393866D02*
X104464286Y-78584342D01*
X104464286Y-78584342D02*
X104511905Y-78679580D01*
X104511905Y-78679580D02*
X104559524Y-78727200D01*
X104559524Y-78727200D02*
X104654762Y-78774819D01*
X104654762Y-78774819D02*
X104845238Y-78774819D01*
X104845238Y-78774819D02*
X104940476Y-78727200D01*
X104940476Y-78727200D02*
X104988095Y-78679580D01*
X104988095Y-78679580D02*
X105035714Y-78584342D01*
X105035714Y-78584342D02*
X105035714Y-78393866D01*
X105035714Y-78393866D02*
X104988095Y-78298628D01*
X104988095Y-78298628D02*
X104940476Y-78251009D01*
X104940476Y-78251009D02*
X104845238Y-78203390D01*
X71042419Y-107329266D02*
X70566228Y-107662599D01*
X71042419Y-107900694D02*
X70042419Y-107900694D01*
X70042419Y-107900694D02*
X70042419Y-107519742D01*
X70042419Y-107519742D02*
X70090038Y-107424504D01*
X70090038Y-107424504D02*
X70137657Y-107376885D01*
X70137657Y-107376885D02*
X70232895Y-107329266D01*
X70232895Y-107329266D02*
X70375752Y-107329266D01*
X70375752Y-107329266D02*
X70470990Y-107376885D01*
X70470990Y-107376885D02*
X70518609Y-107424504D01*
X70518609Y-107424504D02*
X70566228Y-107519742D01*
X70566228Y-107519742D02*
X70566228Y-107900694D01*
X70470990Y-106757837D02*
X70423371Y-106853075D01*
X70423371Y-106853075D02*
X70375752Y-106900694D01*
X70375752Y-106900694D02*
X70280514Y-106948313D01*
X70280514Y-106948313D02*
X70232895Y-106948313D01*
X70232895Y-106948313D02*
X70137657Y-106900694D01*
X70137657Y-106900694D02*
X70090038Y-106853075D01*
X70090038Y-106853075D02*
X70042419Y-106757837D01*
X70042419Y-106757837D02*
X70042419Y-106567361D01*
X70042419Y-106567361D02*
X70090038Y-106472123D01*
X70090038Y-106472123D02*
X70137657Y-106424504D01*
X70137657Y-106424504D02*
X70232895Y-106376885D01*
X70232895Y-106376885D02*
X70280514Y-106376885D01*
X70280514Y-106376885D02*
X70375752Y-106424504D01*
X70375752Y-106424504D02*
X70423371Y-106472123D01*
X70423371Y-106472123D02*
X70470990Y-106567361D01*
X70470990Y-106567361D02*
X70470990Y-106757837D01*
X70470990Y-106757837D02*
X70518609Y-106853075D01*
X70518609Y-106853075D02*
X70566228Y-106900694D01*
X70566228Y-106900694D02*
X70661466Y-106948313D01*
X70661466Y-106948313D02*
X70851942Y-106948313D01*
X70851942Y-106948313D02*
X70947180Y-106900694D01*
X70947180Y-106900694D02*
X70994800Y-106853075D01*
X70994800Y-106853075D02*
X71042419Y-106757837D01*
X71042419Y-106757837D02*
X71042419Y-106567361D01*
X71042419Y-106567361D02*
X70994800Y-106472123D01*
X70994800Y-106472123D02*
X70947180Y-106424504D01*
X70947180Y-106424504D02*
X70851942Y-106376885D01*
X70851942Y-106376885D02*
X70661466Y-106376885D01*
X70661466Y-106376885D02*
X70566228Y-106424504D01*
X70566228Y-106424504D02*
X70518609Y-106472123D01*
X70518609Y-106472123D02*
X70470990Y-106567361D01*
X106739580Y-73666666D02*
X106787200Y-73714285D01*
X106787200Y-73714285D02*
X106834819Y-73857142D01*
X106834819Y-73857142D02*
X106834819Y-73952380D01*
X106834819Y-73952380D02*
X106787200Y-74095237D01*
X106787200Y-74095237D02*
X106691961Y-74190475D01*
X106691961Y-74190475D02*
X106596723Y-74238094D01*
X106596723Y-74238094D02*
X106406247Y-74285713D01*
X106406247Y-74285713D02*
X106263390Y-74285713D01*
X106263390Y-74285713D02*
X106072914Y-74238094D01*
X106072914Y-74238094D02*
X105977676Y-74190475D01*
X105977676Y-74190475D02*
X105882438Y-74095237D01*
X105882438Y-74095237D02*
X105834819Y-73952380D01*
X105834819Y-73952380D02*
X105834819Y-73857142D01*
X105834819Y-73857142D02*
X105882438Y-73714285D01*
X105882438Y-73714285D02*
X105930057Y-73666666D01*
X106834819Y-72714285D02*
X106834819Y-73285713D01*
X106834819Y-72999999D02*
X105834819Y-72999999D01*
X105834819Y-72999999D02*
X105977676Y-73095237D01*
X105977676Y-73095237D02*
X106072914Y-73190475D01*
X106072914Y-73190475D02*
X106120533Y-73285713D01*
X73039457Y-110968538D02*
X72991838Y-111063776D01*
X72991838Y-111063776D02*
X72896600Y-111159014D01*
X72896600Y-111159014D02*
X72753742Y-111301871D01*
X72753742Y-111301871D02*
X72706123Y-111397109D01*
X72706123Y-111397109D02*
X72706123Y-111492347D01*
X72944219Y-111444728D02*
X72896600Y-111539966D01*
X72896600Y-111539966D02*
X72801361Y-111635204D01*
X72801361Y-111635204D02*
X72610885Y-111682823D01*
X72610885Y-111682823D02*
X72277552Y-111682823D01*
X72277552Y-111682823D02*
X72087076Y-111635204D01*
X72087076Y-111635204D02*
X71991838Y-111539966D01*
X71991838Y-111539966D02*
X71944219Y-111444728D01*
X71944219Y-111444728D02*
X71944219Y-111254252D01*
X71944219Y-111254252D02*
X71991838Y-111159014D01*
X71991838Y-111159014D02*
X72087076Y-111063776D01*
X72087076Y-111063776D02*
X72277552Y-111016157D01*
X72277552Y-111016157D02*
X72610885Y-111016157D01*
X72610885Y-111016157D02*
X72801361Y-111063776D01*
X72801361Y-111063776D02*
X72896600Y-111159014D01*
X72896600Y-111159014D02*
X72944219Y-111254252D01*
X72944219Y-111254252D02*
X72944219Y-111444728D01*
X72944219Y-110063776D02*
X72944219Y-110635204D01*
X72944219Y-110349490D02*
X71944219Y-110349490D01*
X71944219Y-110349490D02*
X72087076Y-110444728D01*
X72087076Y-110444728D02*
X72182314Y-110539966D01*
X72182314Y-110539966D02*
X72229933Y-110635204D01*
X105939819Y-124232894D02*
X104939819Y-124232894D01*
X104939819Y-124232894D02*
X104939819Y-123994799D01*
X104939819Y-123994799D02*
X104987438Y-123851942D01*
X104987438Y-123851942D02*
X105082676Y-123756704D01*
X105082676Y-123756704D02*
X105177914Y-123709085D01*
X105177914Y-123709085D02*
X105368390Y-123661466D01*
X105368390Y-123661466D02*
X105511247Y-123661466D01*
X105511247Y-123661466D02*
X105701723Y-123709085D01*
X105701723Y-123709085D02*
X105796961Y-123756704D01*
X105796961Y-123756704D02*
X105892200Y-123851942D01*
X105892200Y-123851942D02*
X105939819Y-123994799D01*
X105939819Y-123994799D02*
X105939819Y-124232894D01*
X105939819Y-122709085D02*
X105939819Y-123280513D01*
X105939819Y-122994799D02*
X104939819Y-122994799D01*
X104939819Y-122994799D02*
X105082676Y-123090037D01*
X105082676Y-123090037D02*
X105177914Y-123185275D01*
X105177914Y-123185275D02*
X105225533Y-123280513D01*
X88957142Y-72604819D02*
X88623809Y-72128628D01*
X88385714Y-72604819D02*
X88385714Y-71604819D01*
X88385714Y-71604819D02*
X88766666Y-71604819D01*
X88766666Y-71604819D02*
X88861904Y-71652438D01*
X88861904Y-71652438D02*
X88909523Y-71700057D01*
X88909523Y-71700057D02*
X88957142Y-71795295D01*
X88957142Y-71795295D02*
X88957142Y-71938152D01*
X88957142Y-71938152D02*
X88909523Y-72033390D01*
X88909523Y-72033390D02*
X88861904Y-72081009D01*
X88861904Y-72081009D02*
X88766666Y-72128628D01*
X88766666Y-72128628D02*
X88385714Y-72128628D01*
X89433333Y-72604819D02*
X89623809Y-72604819D01*
X89623809Y-72604819D02*
X89719047Y-72557200D01*
X89719047Y-72557200D02*
X89766666Y-72509580D01*
X89766666Y-72509580D02*
X89861904Y-72366723D01*
X89861904Y-72366723D02*
X89909523Y-72176247D01*
X89909523Y-72176247D02*
X89909523Y-71795295D01*
X89909523Y-71795295D02*
X89861904Y-71700057D01*
X89861904Y-71700057D02*
X89814285Y-71652438D01*
X89814285Y-71652438D02*
X89719047Y-71604819D01*
X89719047Y-71604819D02*
X89528571Y-71604819D01*
X89528571Y-71604819D02*
X89433333Y-71652438D01*
X89433333Y-71652438D02*
X89385714Y-71700057D01*
X89385714Y-71700057D02*
X89338095Y-71795295D01*
X89338095Y-71795295D02*
X89338095Y-72033390D01*
X89338095Y-72033390D02*
X89385714Y-72128628D01*
X89385714Y-72128628D02*
X89433333Y-72176247D01*
X89433333Y-72176247D02*
X89528571Y-72223866D01*
X89528571Y-72223866D02*
X89719047Y-72223866D01*
X89719047Y-72223866D02*
X89814285Y-72176247D01*
X89814285Y-72176247D02*
X89861904Y-72128628D01*
X89861904Y-72128628D02*
X89909523Y-72033390D01*
X90480952Y-72033390D02*
X90385714Y-71985771D01*
X90385714Y-71985771D02*
X90338095Y-71938152D01*
X90338095Y-71938152D02*
X90290476Y-71842914D01*
X90290476Y-71842914D02*
X90290476Y-71795295D01*
X90290476Y-71795295D02*
X90338095Y-71700057D01*
X90338095Y-71700057D02*
X90385714Y-71652438D01*
X90385714Y-71652438D02*
X90480952Y-71604819D01*
X90480952Y-71604819D02*
X90671428Y-71604819D01*
X90671428Y-71604819D02*
X90766666Y-71652438D01*
X90766666Y-71652438D02*
X90814285Y-71700057D01*
X90814285Y-71700057D02*
X90861904Y-71795295D01*
X90861904Y-71795295D02*
X90861904Y-71842914D01*
X90861904Y-71842914D02*
X90814285Y-71938152D01*
X90814285Y-71938152D02*
X90766666Y-71985771D01*
X90766666Y-71985771D02*
X90671428Y-72033390D01*
X90671428Y-72033390D02*
X90480952Y-72033390D01*
X90480952Y-72033390D02*
X90385714Y-72081009D01*
X90385714Y-72081009D02*
X90338095Y-72128628D01*
X90338095Y-72128628D02*
X90290476Y-72223866D01*
X90290476Y-72223866D02*
X90290476Y-72414342D01*
X90290476Y-72414342D02*
X90338095Y-72509580D01*
X90338095Y-72509580D02*
X90385714Y-72557200D01*
X90385714Y-72557200D02*
X90480952Y-72604819D01*
X90480952Y-72604819D02*
X90671428Y-72604819D01*
X90671428Y-72604819D02*
X90766666Y-72557200D01*
X90766666Y-72557200D02*
X90814285Y-72509580D01*
X90814285Y-72509580D02*
X90861904Y-72414342D01*
X90861904Y-72414342D02*
X90861904Y-72223866D01*
X90861904Y-72223866D02*
X90814285Y-72128628D01*
X90814285Y-72128628D02*
X90766666Y-72081009D01*
X90766666Y-72081009D02*
X90671428Y-72033390D01*
X105070819Y-111578304D02*
X105880342Y-111578304D01*
X105880342Y-111578304D02*
X105975580Y-111530685D01*
X105975580Y-111530685D02*
X106023200Y-111483066D01*
X106023200Y-111483066D02*
X106070819Y-111387828D01*
X106070819Y-111387828D02*
X106070819Y-111197352D01*
X106070819Y-111197352D02*
X106023200Y-111102114D01*
X106023200Y-111102114D02*
X105975580Y-111054495D01*
X105975580Y-111054495D02*
X105880342Y-111006876D01*
X105880342Y-111006876D02*
X105070819Y-111006876D01*
X105070819Y-110625923D02*
X105070819Y-110006876D01*
X105070819Y-110006876D02*
X105451771Y-110340209D01*
X105451771Y-110340209D02*
X105451771Y-110197352D01*
X105451771Y-110197352D02*
X105499390Y-110102114D01*
X105499390Y-110102114D02*
X105547009Y-110054495D01*
X105547009Y-110054495D02*
X105642247Y-110006876D01*
X105642247Y-110006876D02*
X105880342Y-110006876D01*
X105880342Y-110006876D02*
X105975580Y-110054495D01*
X105975580Y-110054495D02*
X106023200Y-110102114D01*
X106023200Y-110102114D02*
X106070819Y-110197352D01*
X106070819Y-110197352D02*
X106070819Y-110483066D01*
X106070819Y-110483066D02*
X106023200Y-110578304D01*
X106023200Y-110578304D02*
X105975580Y-110625923D01*
X106324819Y-115133333D02*
X107039104Y-115133333D01*
X107039104Y-115133333D02*
X107181961Y-115180952D01*
X107181961Y-115180952D02*
X107277200Y-115276190D01*
X107277200Y-115276190D02*
X107324819Y-115419047D01*
X107324819Y-115419047D02*
X107324819Y-115514285D01*
X106324819Y-114752380D02*
X106324819Y-114085714D01*
X106324819Y-114085714D02*
X107324819Y-114514285D01*
X98913557Y-114874975D02*
X98961177Y-114922594D01*
X98961177Y-114922594D02*
X99008796Y-115065451D01*
X99008796Y-115065451D02*
X99008796Y-115160689D01*
X99008796Y-115160689D02*
X98961177Y-115303546D01*
X98961177Y-115303546D02*
X98865938Y-115398784D01*
X98865938Y-115398784D02*
X98770700Y-115446403D01*
X98770700Y-115446403D02*
X98580224Y-115494022D01*
X98580224Y-115494022D02*
X98437367Y-115494022D01*
X98437367Y-115494022D02*
X98246891Y-115446403D01*
X98246891Y-115446403D02*
X98151653Y-115398784D01*
X98151653Y-115398784D02*
X98056415Y-115303546D01*
X98056415Y-115303546D02*
X98008796Y-115160689D01*
X98008796Y-115160689D02*
X98008796Y-115065451D01*
X98008796Y-115065451D02*
X98056415Y-114922594D01*
X98056415Y-114922594D02*
X98104034Y-114874975D01*
X98342129Y-114017832D02*
X99008796Y-114017832D01*
X97961177Y-114255927D02*
X98675462Y-114494022D01*
X98675462Y-114494022D02*
X98675462Y-113874975D01*
X98008796Y-113065451D02*
X98008796Y-113255927D01*
X98008796Y-113255927D02*
X98056415Y-113351165D01*
X98056415Y-113351165D02*
X98104034Y-113398784D01*
X98104034Y-113398784D02*
X98246891Y-113494022D01*
X98246891Y-113494022D02*
X98437367Y-113541641D01*
X98437367Y-113541641D02*
X98818319Y-113541641D01*
X98818319Y-113541641D02*
X98913557Y-113494022D01*
X98913557Y-113494022D02*
X98961177Y-113446403D01*
X98961177Y-113446403D02*
X99008796Y-113351165D01*
X99008796Y-113351165D02*
X99008796Y-113160689D01*
X99008796Y-113160689D02*
X98961177Y-113065451D01*
X98961177Y-113065451D02*
X98913557Y-113017832D01*
X98913557Y-113017832D02*
X98818319Y-112970213D01*
X98818319Y-112970213D02*
X98580224Y-112970213D01*
X98580224Y-112970213D02*
X98484986Y-113017832D01*
X98484986Y-113017832D02*
X98437367Y-113065451D01*
X98437367Y-113065451D02*
X98389748Y-113160689D01*
X98389748Y-113160689D02*
X98389748Y-113351165D01*
X98389748Y-113351165D02*
X98437367Y-113446403D01*
X98437367Y-113446403D02*
X98484986Y-113494022D01*
X98484986Y-113494022D02*
X98580224Y-113541641D01*
X94495580Y-108389657D02*
X94543200Y-108437276D01*
X94543200Y-108437276D02*
X94590819Y-108580133D01*
X94590819Y-108580133D02*
X94590819Y-108675371D01*
X94590819Y-108675371D02*
X94543200Y-108818228D01*
X94543200Y-108818228D02*
X94447961Y-108913466D01*
X94447961Y-108913466D02*
X94352723Y-108961085D01*
X94352723Y-108961085D02*
X94162247Y-109008704D01*
X94162247Y-109008704D02*
X94019390Y-109008704D01*
X94019390Y-109008704D02*
X93828914Y-108961085D01*
X93828914Y-108961085D02*
X93733676Y-108913466D01*
X93733676Y-108913466D02*
X93638438Y-108818228D01*
X93638438Y-108818228D02*
X93590819Y-108675371D01*
X93590819Y-108675371D02*
X93590819Y-108580133D01*
X93590819Y-108580133D02*
X93638438Y-108437276D01*
X93638438Y-108437276D02*
X93686057Y-108389657D01*
X93590819Y-107484895D02*
X93590819Y-107961085D01*
X93590819Y-107961085D02*
X94067009Y-108008704D01*
X94067009Y-108008704D02*
X94019390Y-107961085D01*
X94019390Y-107961085D02*
X93971771Y-107865847D01*
X93971771Y-107865847D02*
X93971771Y-107627752D01*
X93971771Y-107627752D02*
X94019390Y-107532514D01*
X94019390Y-107532514D02*
X94067009Y-107484895D01*
X94067009Y-107484895D02*
X94162247Y-107437276D01*
X94162247Y-107437276D02*
X94400342Y-107437276D01*
X94400342Y-107437276D02*
X94495580Y-107484895D01*
X94495580Y-107484895D02*
X94543200Y-107532514D01*
X94543200Y-107532514D02*
X94590819Y-107627752D01*
X94590819Y-107627752D02*
X94590819Y-107865847D01*
X94590819Y-107865847D02*
X94543200Y-107961085D01*
X94543200Y-107961085D02*
X94495580Y-108008704D01*
X93590819Y-106580133D02*
X93590819Y-106770609D01*
X93590819Y-106770609D02*
X93638438Y-106865847D01*
X93638438Y-106865847D02*
X93686057Y-106913466D01*
X93686057Y-106913466D02*
X93828914Y-107008704D01*
X93828914Y-107008704D02*
X94019390Y-107056323D01*
X94019390Y-107056323D02*
X94400342Y-107056323D01*
X94400342Y-107056323D02*
X94495580Y-107008704D01*
X94495580Y-107008704D02*
X94543200Y-106961085D01*
X94543200Y-106961085D02*
X94590819Y-106865847D01*
X94590819Y-106865847D02*
X94590819Y-106675371D01*
X94590819Y-106675371D02*
X94543200Y-106580133D01*
X94543200Y-106580133D02*
X94495580Y-106532514D01*
X94495580Y-106532514D02*
X94400342Y-106484895D01*
X94400342Y-106484895D02*
X94162247Y-106484895D01*
X94162247Y-106484895D02*
X94067009Y-106532514D01*
X94067009Y-106532514D02*
X94019390Y-106580133D01*
X94019390Y-106580133D02*
X93971771Y-106675371D01*
X93971771Y-106675371D02*
X93971771Y-106865847D01*
X93971771Y-106865847D02*
X94019390Y-106961085D01*
X94019390Y-106961085D02*
X94067009Y-107008704D01*
X94067009Y-107008704D02*
X94162247Y-107056323D01*
X90371876Y-73480619D02*
X90889971Y-73480619D01*
X90889971Y-73480619D02*
X90950923Y-73450142D01*
X90950923Y-73450142D02*
X90981400Y-73419666D01*
X90981400Y-73419666D02*
X91011876Y-73358714D01*
X91011876Y-73358714D02*
X91011876Y-73236809D01*
X91011876Y-73236809D02*
X90981400Y-73175857D01*
X90981400Y-73175857D02*
X90950923Y-73145380D01*
X90950923Y-73145380D02*
X90889971Y-73114904D01*
X90889971Y-73114904D02*
X90371876Y-73114904D01*
X90432828Y-72840619D02*
X90402352Y-72810143D01*
X90402352Y-72810143D02*
X90371876Y-72749190D01*
X90371876Y-72749190D02*
X90371876Y-72596809D01*
X90371876Y-72596809D02*
X90402352Y-72535857D01*
X90402352Y-72535857D02*
X90432828Y-72505381D01*
X90432828Y-72505381D02*
X90493780Y-72474904D01*
X90493780Y-72474904D02*
X90554733Y-72474904D01*
X90554733Y-72474904D02*
X90646161Y-72505381D01*
X90646161Y-72505381D02*
X91011876Y-72871095D01*
X91011876Y-72871095D02*
X91011876Y-72474904D01*
X97339580Y-72866666D02*
X97387200Y-72914285D01*
X97387200Y-72914285D02*
X97434819Y-73057142D01*
X97434819Y-73057142D02*
X97434819Y-73152380D01*
X97434819Y-73152380D02*
X97387200Y-73295237D01*
X97387200Y-73295237D02*
X97291961Y-73390475D01*
X97291961Y-73390475D02*
X97196723Y-73438094D01*
X97196723Y-73438094D02*
X97006247Y-73485713D01*
X97006247Y-73485713D02*
X96863390Y-73485713D01*
X96863390Y-73485713D02*
X96672914Y-73438094D01*
X96672914Y-73438094D02*
X96577676Y-73390475D01*
X96577676Y-73390475D02*
X96482438Y-73295237D01*
X96482438Y-73295237D02*
X96434819Y-73152380D01*
X96434819Y-73152380D02*
X96434819Y-73057142D01*
X96434819Y-73057142D02*
X96482438Y-72914285D01*
X96482438Y-72914285D02*
X96530057Y-72866666D01*
X96434819Y-72533332D02*
X96434819Y-71866666D01*
X96434819Y-71866666D02*
X97434819Y-72295237D01*
X96715342Y-119937419D02*
X96382009Y-119461228D01*
X96143914Y-119937419D02*
X96143914Y-118937419D01*
X96143914Y-118937419D02*
X96524866Y-118937419D01*
X96524866Y-118937419D02*
X96620104Y-118985038D01*
X96620104Y-118985038D02*
X96667723Y-119032657D01*
X96667723Y-119032657D02*
X96715342Y-119127895D01*
X96715342Y-119127895D02*
X96715342Y-119270752D01*
X96715342Y-119270752D02*
X96667723Y-119365990D01*
X96667723Y-119365990D02*
X96620104Y-119413609D01*
X96620104Y-119413609D02*
X96524866Y-119461228D01*
X96524866Y-119461228D02*
X96143914Y-119461228D01*
X97096295Y-119032657D02*
X97143914Y-118985038D01*
X97143914Y-118985038D02*
X97239152Y-118937419D01*
X97239152Y-118937419D02*
X97477247Y-118937419D01*
X97477247Y-118937419D02*
X97572485Y-118985038D01*
X97572485Y-118985038D02*
X97620104Y-119032657D01*
X97620104Y-119032657D02*
X97667723Y-119127895D01*
X97667723Y-119127895D02*
X97667723Y-119223133D01*
X97667723Y-119223133D02*
X97620104Y-119365990D01*
X97620104Y-119365990D02*
X97048676Y-119937419D01*
X97048676Y-119937419D02*
X97667723Y-119937419D01*
X98524866Y-118937419D02*
X98334390Y-118937419D01*
X98334390Y-118937419D02*
X98239152Y-118985038D01*
X98239152Y-118985038D02*
X98191533Y-119032657D01*
X98191533Y-119032657D02*
X98096295Y-119175514D01*
X98096295Y-119175514D02*
X98048676Y-119365990D01*
X98048676Y-119365990D02*
X98048676Y-119746942D01*
X98048676Y-119746942D02*
X98096295Y-119842180D01*
X98096295Y-119842180D02*
X98143914Y-119889800D01*
X98143914Y-119889800D02*
X98239152Y-119937419D01*
X98239152Y-119937419D02*
X98429628Y-119937419D01*
X98429628Y-119937419D02*
X98524866Y-119889800D01*
X98524866Y-119889800D02*
X98572485Y-119842180D01*
X98572485Y-119842180D02*
X98620104Y-119746942D01*
X98620104Y-119746942D02*
X98620104Y-119508847D01*
X98620104Y-119508847D02*
X98572485Y-119413609D01*
X98572485Y-119413609D02*
X98524866Y-119365990D01*
X98524866Y-119365990D02*
X98429628Y-119318371D01*
X98429628Y-119318371D02*
X98239152Y-119318371D01*
X98239152Y-119318371D02*
X98143914Y-119365990D01*
X98143914Y-119365990D02*
X98096295Y-119413609D01*
X98096295Y-119413609D02*
X98048676Y-119508847D01*
X91603628Y-110511190D02*
X92079819Y-110511190D01*
X91079819Y-110844523D02*
X91603628Y-110511190D01*
X91603628Y-110511190D02*
X91079819Y-110177857D01*
X91175057Y-109892142D02*
X91127438Y-109844523D01*
X91127438Y-109844523D02*
X91079819Y-109749285D01*
X91079819Y-109749285D02*
X91079819Y-109511190D01*
X91079819Y-109511190D02*
X91127438Y-109415952D01*
X91127438Y-109415952D02*
X91175057Y-109368333D01*
X91175057Y-109368333D02*
X91270295Y-109320714D01*
X91270295Y-109320714D02*
X91365533Y-109320714D01*
X91365533Y-109320714D02*
X91508390Y-109368333D01*
X91508390Y-109368333D02*
X92079819Y-109939761D01*
X92079819Y-109939761D02*
X92079819Y-109320714D01*
X99190476Y-120799819D02*
X99190476Y-121514104D01*
X99190476Y-121514104D02*
X99142857Y-121656961D01*
X99142857Y-121656961D02*
X99047619Y-121752200D01*
X99047619Y-121752200D02*
X98904762Y-121799819D01*
X98904762Y-121799819D02*
X98809524Y-121799819D01*
X100190476Y-121799819D02*
X99619048Y-121799819D01*
X99904762Y-121799819D02*
X99904762Y-120799819D01*
X99904762Y-120799819D02*
X99809524Y-120942676D01*
X99809524Y-120942676D02*
X99714286Y-121037914D01*
X99714286Y-121037914D02*
X99619048Y-121085533D01*
X100571429Y-120895057D02*
X100619048Y-120847438D01*
X100619048Y-120847438D02*
X100714286Y-120799819D01*
X100714286Y-120799819D02*
X100952381Y-120799819D01*
X100952381Y-120799819D02*
X101047619Y-120847438D01*
X101047619Y-120847438D02*
X101095238Y-120895057D01*
X101095238Y-120895057D02*
X101142857Y-120990295D01*
X101142857Y-120990295D02*
X101142857Y-121085533D01*
X101142857Y-121085533D02*
X101095238Y-121228390D01*
X101095238Y-121228390D02*
X100523810Y-121799819D01*
X100523810Y-121799819D02*
X101142857Y-121799819D01*
X100913557Y-114874975D02*
X100961177Y-114922594D01*
X100961177Y-114922594D02*
X101008796Y-115065451D01*
X101008796Y-115065451D02*
X101008796Y-115160689D01*
X101008796Y-115160689D02*
X100961177Y-115303546D01*
X100961177Y-115303546D02*
X100865938Y-115398784D01*
X100865938Y-115398784D02*
X100770700Y-115446403D01*
X100770700Y-115446403D02*
X100580224Y-115494022D01*
X100580224Y-115494022D02*
X100437367Y-115494022D01*
X100437367Y-115494022D02*
X100246891Y-115446403D01*
X100246891Y-115446403D02*
X100151653Y-115398784D01*
X100151653Y-115398784D02*
X100056415Y-115303546D01*
X100056415Y-115303546D02*
X100008796Y-115160689D01*
X100008796Y-115160689D02*
X100008796Y-115065451D01*
X100008796Y-115065451D02*
X100056415Y-114922594D01*
X100056415Y-114922594D02*
X100104034Y-114874975D01*
X100342129Y-114017832D02*
X101008796Y-114017832D01*
X99961177Y-114255927D02*
X100675462Y-114494022D01*
X100675462Y-114494022D02*
X100675462Y-113874975D01*
X100008796Y-113589260D02*
X100008796Y-112922594D01*
X100008796Y-112922594D02*
X101008796Y-113351165D01*
X102579580Y-100192857D02*
X102627200Y-100240476D01*
X102627200Y-100240476D02*
X102674819Y-100383333D01*
X102674819Y-100383333D02*
X102674819Y-100478571D01*
X102674819Y-100478571D02*
X102627200Y-100621428D01*
X102627200Y-100621428D02*
X102531961Y-100716666D01*
X102531961Y-100716666D02*
X102436723Y-100764285D01*
X102436723Y-100764285D02*
X102246247Y-100811904D01*
X102246247Y-100811904D02*
X102103390Y-100811904D01*
X102103390Y-100811904D02*
X101912914Y-100764285D01*
X101912914Y-100764285D02*
X101817676Y-100716666D01*
X101817676Y-100716666D02*
X101722438Y-100621428D01*
X101722438Y-100621428D02*
X101674819Y-100478571D01*
X101674819Y-100478571D02*
X101674819Y-100383333D01*
X101674819Y-100383333D02*
X101722438Y-100240476D01*
X101722438Y-100240476D02*
X101770057Y-100192857D01*
X102008152Y-99335714D02*
X102674819Y-99335714D01*
X101627200Y-99573809D02*
X102341485Y-99811904D01*
X102341485Y-99811904D02*
X102341485Y-99192857D01*
X101770057Y-98859523D02*
X101722438Y-98811904D01*
X101722438Y-98811904D02*
X101674819Y-98716666D01*
X101674819Y-98716666D02*
X101674819Y-98478571D01*
X101674819Y-98478571D02*
X101722438Y-98383333D01*
X101722438Y-98383333D02*
X101770057Y-98335714D01*
X101770057Y-98335714D02*
X101865295Y-98288095D01*
X101865295Y-98288095D02*
X101960533Y-98288095D01*
X101960533Y-98288095D02*
X102103390Y-98335714D01*
X102103390Y-98335714D02*
X102674819Y-98907142D01*
X102674819Y-98907142D02*
X102674819Y-98288095D01*
X100833333Y-76639580D02*
X100785714Y-76687200D01*
X100785714Y-76687200D02*
X100642857Y-76734819D01*
X100642857Y-76734819D02*
X100547619Y-76734819D01*
X100547619Y-76734819D02*
X100404762Y-76687200D01*
X100404762Y-76687200D02*
X100309524Y-76591961D01*
X100309524Y-76591961D02*
X100261905Y-76496723D01*
X100261905Y-76496723D02*
X100214286Y-76306247D01*
X100214286Y-76306247D02*
X100214286Y-76163390D01*
X100214286Y-76163390D02*
X100261905Y-75972914D01*
X100261905Y-75972914D02*
X100309524Y-75877676D01*
X100309524Y-75877676D02*
X100404762Y-75782438D01*
X100404762Y-75782438D02*
X100547619Y-75734819D01*
X100547619Y-75734819D02*
X100642857Y-75734819D01*
X100642857Y-75734819D02*
X100785714Y-75782438D01*
X100785714Y-75782438D02*
X100833333Y-75830057D01*
X101690476Y-76068152D02*
X101690476Y-76734819D01*
X101452381Y-75687200D02*
X101214286Y-76401485D01*
X101214286Y-76401485D02*
X101833333Y-76401485D01*
X106251905Y-70416819D02*
X106251905Y-71226342D01*
X106251905Y-71226342D02*
X106299524Y-71321580D01*
X106299524Y-71321580D02*
X106347143Y-71369200D01*
X106347143Y-71369200D02*
X106442381Y-71416819D01*
X106442381Y-71416819D02*
X106632857Y-71416819D01*
X106632857Y-71416819D02*
X106728095Y-71369200D01*
X106728095Y-71369200D02*
X106775714Y-71321580D01*
X106775714Y-71321580D02*
X106823333Y-71226342D01*
X106823333Y-71226342D02*
X106823333Y-70416819D01*
X107251905Y-70512057D02*
X107299524Y-70464438D01*
X107299524Y-70464438D02*
X107394762Y-70416819D01*
X107394762Y-70416819D02*
X107632857Y-70416819D01*
X107632857Y-70416819D02*
X107728095Y-70464438D01*
X107728095Y-70464438D02*
X107775714Y-70512057D01*
X107775714Y-70512057D02*
X107823333Y-70607295D01*
X107823333Y-70607295D02*
X107823333Y-70702533D01*
X107823333Y-70702533D02*
X107775714Y-70845390D01*
X107775714Y-70845390D02*
X107204286Y-71416819D01*
X107204286Y-71416819D02*
X107823333Y-71416819D01*
X108775714Y-71416819D02*
X108204286Y-71416819D01*
X108490000Y-71416819D02*
X108490000Y-70416819D01*
X108490000Y-70416819D02*
X108394762Y-70559676D01*
X108394762Y-70559676D02*
X108299524Y-70654914D01*
X108299524Y-70654914D02*
X108204286Y-70702533D01*
X102510771Y-123257098D02*
X102177438Y-122780907D01*
X101939343Y-123257098D02*
X101939343Y-122257098D01*
X101939343Y-122257098D02*
X102320295Y-122257098D01*
X102320295Y-122257098D02*
X102415533Y-122304717D01*
X102415533Y-122304717D02*
X102463152Y-122352336D01*
X102463152Y-122352336D02*
X102510771Y-122447574D01*
X102510771Y-122447574D02*
X102510771Y-122590431D01*
X102510771Y-122590431D02*
X102463152Y-122685669D01*
X102463152Y-122685669D02*
X102415533Y-122733288D01*
X102415533Y-122733288D02*
X102320295Y-122780907D01*
X102320295Y-122780907D02*
X101939343Y-122780907D01*
X102986962Y-123257098D02*
X103177438Y-123257098D01*
X103177438Y-123257098D02*
X103272676Y-123209479D01*
X103272676Y-123209479D02*
X103320295Y-123161859D01*
X103320295Y-123161859D02*
X103415533Y-123019002D01*
X103415533Y-123019002D02*
X103463152Y-122828526D01*
X103463152Y-122828526D02*
X103463152Y-122447574D01*
X103463152Y-122447574D02*
X103415533Y-122352336D01*
X103415533Y-122352336D02*
X103367914Y-122304717D01*
X103367914Y-122304717D02*
X103272676Y-122257098D01*
X103272676Y-122257098D02*
X103082200Y-122257098D01*
X103082200Y-122257098D02*
X102986962Y-122304717D01*
X102986962Y-122304717D02*
X102939343Y-122352336D01*
X102939343Y-122352336D02*
X102891724Y-122447574D01*
X102891724Y-122447574D02*
X102891724Y-122685669D01*
X102891724Y-122685669D02*
X102939343Y-122780907D01*
X102939343Y-122780907D02*
X102986962Y-122828526D01*
X102986962Y-122828526D02*
X103082200Y-122876145D01*
X103082200Y-122876145D02*
X103272676Y-122876145D01*
X103272676Y-122876145D02*
X103367914Y-122828526D01*
X103367914Y-122828526D02*
X103415533Y-122780907D01*
X103415533Y-122780907D02*
X103463152Y-122685669D01*
X97238095Y-102906819D02*
X97809523Y-102906819D01*
X97523809Y-103906819D02*
X97523809Y-102906819D01*
X98142857Y-103906819D02*
X98142857Y-102906819D01*
X98142857Y-102906819D02*
X98523809Y-102906819D01*
X98523809Y-102906819D02*
X98619047Y-102954438D01*
X98619047Y-102954438D02*
X98666666Y-103002057D01*
X98666666Y-103002057D02*
X98714285Y-103097295D01*
X98714285Y-103097295D02*
X98714285Y-103240152D01*
X98714285Y-103240152D02*
X98666666Y-103335390D01*
X98666666Y-103335390D02*
X98619047Y-103383009D01*
X98619047Y-103383009D02*
X98523809Y-103430628D01*
X98523809Y-103430628D02*
X98142857Y-103430628D01*
X99666666Y-103906819D02*
X99095238Y-103906819D01*
X99380952Y-103906819D02*
X99380952Y-102906819D01*
X99380952Y-102906819D02*
X99285714Y-103049676D01*
X99285714Y-103049676D02*
X99190476Y-103144914D01*
X99190476Y-103144914D02*
X99095238Y-103192533D01*
D11*
%TO.C,C34*%
X96968977Y-114493370D02*
X96968977Y-113970866D01*
X95498977Y-114493370D02*
X95498977Y-113970866D01*
%TO.C,C44*%
X98968977Y-114493370D02*
X98968977Y-113970866D01*
X97498977Y-114493370D02*
X97498977Y-113970866D01*
%TO.C,J2*%
X86640000Y-120490000D02*
X86640000Y-121740000D01*
X86940000Y-120790000D02*
X86940000Y-125510000D01*
X86940000Y-122100000D02*
X87550000Y-122100000D01*
X86940000Y-123400000D02*
X87550000Y-123400000D01*
X86940000Y-125510000D02*
X93060000Y-125510000D01*
X87550000Y-121400000D02*
X87550000Y-124900000D01*
X87550000Y-124900000D02*
X92450000Y-124900000D01*
X87890000Y-120490000D02*
X86640000Y-120490000D01*
X88400000Y-120590000D02*
X88400000Y-120790000D01*
X88700000Y-120590000D02*
X88400000Y-120590000D01*
X88700000Y-120690000D02*
X88400000Y-120690000D01*
X88700000Y-120790000D02*
X88700000Y-120590000D01*
X89500000Y-120790000D02*
X89500000Y-121400000D01*
X89500000Y-121400000D02*
X87550000Y-121400000D01*
X89900000Y-124400000D02*
X90100000Y-124400000D01*
X89900000Y-124900000D02*
X89900000Y-124400000D01*
X90000000Y-124900000D02*
X90000000Y-124400000D01*
X90100000Y-124400000D02*
X90100000Y-124900000D01*
X90500000Y-121400000D02*
X90500000Y-120790000D01*
X92450000Y-121400000D02*
X90500000Y-121400000D01*
X92450000Y-124900000D02*
X92450000Y-121400000D01*
X93060000Y-120790000D02*
X86940000Y-120790000D01*
X93060000Y-122100000D02*
X92450000Y-122100000D01*
X93060000Y-123400000D02*
X92450000Y-123400000D01*
X93060000Y-125510000D02*
X93060000Y-120790000D01*
%TO.C,U7*%
X93640000Y-97765000D02*
X93640000Y-101885000D01*
X97060000Y-97765000D02*
X93640000Y-97765000D01*
%TO.C,C43*%
X100865000Y-104438748D02*
X100865000Y-104961252D01*
X102335000Y-104438748D02*
X102335000Y-104961252D01*
%TO.C,C57*%
X92413748Y-113500000D02*
X92936252Y-113500000D01*
X92413748Y-114970000D02*
X92936252Y-114970000D01*
%TO.C,C45*%
X101061252Y-79265000D02*
X100538748Y-79265000D01*
X101061252Y-80735000D02*
X100538748Y-80735000D01*
%TO.C,U8*%
X79015000Y-108975000D02*
X83135000Y-108975000D01*
X79015000Y-109030000D02*
X79015000Y-108975000D01*
X79015000Y-119095000D02*
X79015000Y-119040000D01*
X83135000Y-108975000D02*
X83135000Y-109030000D01*
X83135000Y-119040000D02*
X83135000Y-119095000D01*
X83135000Y-119095000D02*
X79015000Y-119095000D01*
X83915000Y-119375000D02*
X83435000Y-119375000D01*
X83675000Y-119045000D01*
X83915000Y-119375000D01*
G36*
X83915000Y-119375000D02*
G01*
X83435000Y-119375000D01*
X83675000Y-119045000D01*
X83915000Y-119375000D01*
G37*
%TO.C,C16*%
X85265000Y-120061252D02*
X85265000Y-119538748D01*
X86735000Y-120061252D02*
X86735000Y-119538748D01*
%TO.C,C5*%
X89861252Y-75065000D02*
X89338748Y-75065000D01*
X89861252Y-76535000D02*
X89338748Y-76535000D01*
%TO.C,R10*%
X99276423Y-120289113D02*
X99276423Y-120743241D01*
X100746423Y-120289113D02*
X100746423Y-120743241D01*
%TO.C,R94*%
X106581836Y-119356200D02*
X107035964Y-119356200D01*
X106581836Y-120826200D02*
X107035964Y-120826200D01*
%TO.C,TP13*%
X102550000Y-95200000D02*
G75*
G02*
X100650000Y-95200000I-950000J0D01*
G01*
X100650000Y-95200000D02*
G75*
G02*
X102550000Y-95200000I950000J0D01*
G01*
%TO.C,D5*%
X108618400Y-121894800D02*
X108618400Y-125779800D01*
X108618400Y-125779800D02*
X110888400Y-125779800D01*
X110888400Y-125779800D02*
X110888400Y-121894800D01*
%TO.C,TP12*%
X102350000Y-92700000D02*
G75*
G02*
X100450000Y-92700000I-950000J0D01*
G01*
X100450000Y-92700000D02*
G75*
G02*
X102350000Y-92700000I950000J0D01*
G01*
%TO.C,Q2*%
X73329400Y-106176300D02*
X74329400Y-106176300D01*
X73329400Y-107696300D02*
X73329400Y-106176300D01*
X73379400Y-107696300D02*
X73329400Y-107696300D01*
X75279400Y-107696300D02*
X74499400Y-107696300D01*
X75449400Y-106176300D02*
X76449400Y-106176300D01*
X76449400Y-106176300D02*
X76449400Y-107696300D01*
X76449400Y-107696300D02*
X76399400Y-107696300D01*
X74839400Y-108476300D02*
X74509400Y-108236300D01*
X74839400Y-107996300D01*
X74839400Y-108476300D01*
G36*
X74839400Y-108476300D02*
G01*
X74509400Y-108236300D01*
X74839400Y-107996300D01*
X74839400Y-108476300D01*
G37*
%TO.C,R97*%
X103165000Y-96327064D02*
X103165000Y-95872936D01*
X104635000Y-96327064D02*
X104635000Y-95872936D01*
D12*
%TO.C,U1*%
X96595000Y-70150000D02*
X96595000Y-72500000D01*
X96595000Y-72500000D02*
X97295000Y-72500000D01*
X103395000Y-70150000D02*
X96595000Y-70150000D01*
X103395000Y-72500000D02*
X102695000Y-72500000D01*
X103395000Y-72500000D02*
X103395000Y-70150000D01*
D13*
X102093110Y-73464480D02*
G75*
G02*
X101893110Y-73464480I-100000J0D01*
G01*
X101893110Y-73464480D02*
G75*
G02*
X102093110Y-73464480I100000J0D01*
G01*
D11*
%TO.C,R93*%
X110036236Y-119356200D02*
X110490364Y-119356200D01*
X110036236Y-120826200D02*
X110490364Y-120826200D01*
%TO.C,C19*%
X91865000Y-97961252D02*
X91865000Y-97438748D01*
X93335000Y-97961252D02*
X93335000Y-97438748D01*
%TO.C,U23*%
X97990000Y-97290000D02*
X97990000Y-97550000D01*
X97990000Y-97290000D02*
X98250000Y-97290000D01*
X102010000Y-97290000D02*
X101750000Y-97290000D01*
X102010000Y-97290000D02*
X102010000Y-97550000D01*
X102010000Y-102710000D02*
X101750000Y-102710000D01*
X102010000Y-102710000D02*
X102010000Y-102450000D01*
D14*
X97990000Y-103070000D02*
X97630000Y-102710000D01*
X97990000Y-102710000D01*
X97990000Y-103070000D01*
G36*
X97990000Y-103070000D02*
G01*
X97630000Y-102710000D01*
X97990000Y-102710000D01*
X97990000Y-103070000D01*
G37*
D11*
%TO.C,C8*%
X103988748Y-79265000D02*
X104511252Y-79265000D01*
X103988748Y-80735000D02*
X104511252Y-80735000D01*
%TO.C,R8*%
X71502600Y-107389664D02*
X71502600Y-106935536D01*
X72972600Y-107389664D02*
X72972600Y-106935536D01*
%TO.C,C1*%
X103965000Y-73238748D02*
X103965000Y-73761252D01*
X105435000Y-73238748D02*
X105435000Y-73761252D01*
%TO.C,Q1*%
X73329400Y-110113300D02*
X74329400Y-110113300D01*
X73329400Y-111633300D02*
X73329400Y-110113300D01*
X73379400Y-111633300D02*
X73329400Y-111633300D01*
X75279400Y-111633300D02*
X74499400Y-111633300D01*
X75449400Y-110113300D02*
X76449400Y-110113300D01*
X76449400Y-110113300D02*
X76449400Y-111633300D01*
X76449400Y-111633300D02*
X76399400Y-111633300D01*
X74839400Y-112413300D02*
X74509400Y-112173300D01*
X74839400Y-111933300D01*
X74839400Y-112413300D01*
G36*
X74839400Y-112413300D02*
G01*
X74509400Y-112173300D01*
X74839400Y-111933300D01*
X74839400Y-112413300D01*
G37*
%TO.C,D1*%
X106180000Y-121894800D02*
X106180000Y-125779800D01*
X106180000Y-125779800D02*
X108450000Y-125779800D01*
X108450000Y-125779800D02*
X108450000Y-121894800D01*
%TO.C,R98*%
X89372936Y-73065000D02*
X89827064Y-73065000D01*
X89372936Y-74535000D02*
X89827064Y-74535000D01*
%TO.C,U3*%
X106916000Y-86516400D02*
X106916000Y-92716400D01*
X106916000Y-86516400D02*
X125316000Y-86516400D01*
X106916000Y-111366400D02*
X106916000Y-112366400D01*
X106916000Y-112366400D02*
X108416000Y-112366400D01*
X125316000Y-86516400D02*
X125316000Y-92716400D01*
X125316000Y-112366400D02*
X123816000Y-112366400D01*
X125316000Y-112366400D02*
X125316000Y-111366400D01*
X106916000Y-93391400D02*
X106416000Y-93391400D01*
X106916000Y-92891400D01*
X106916000Y-93391400D01*
G36*
X106916000Y-93391400D02*
G01*
X106416000Y-93391400D01*
X106916000Y-92891400D01*
X106916000Y-93391400D01*
G37*
%TO.C,J7*%
X107870000Y-116180000D02*
X107870000Y-114800000D01*
X109250000Y-116180000D02*
X107870000Y-116180000D01*
X110520000Y-113420000D02*
X123330000Y-113420000D01*
X110520000Y-116180000D02*
X110520000Y-113420000D01*
X110520000Y-116180000D02*
X123330000Y-116180000D01*
X123330000Y-116180000D02*
X123330000Y-113420000D01*
%TO.C,C46*%
X99498977Y-114493370D02*
X99498977Y-113970866D01*
X100968977Y-114493370D02*
X100968977Y-113970866D01*
%TO.C,C56*%
X91721000Y-107485548D02*
X91721000Y-108008052D01*
X93191000Y-107485548D02*
X93191000Y-108008052D01*
D12*
%TO.C,U2*%
X91480000Y-74570000D02*
X91480000Y-72130000D01*
X94120000Y-72130000D02*
X94120000Y-74570000D01*
D13*
X92100000Y-75400000D02*
G75*
G02*
X91900000Y-75400000I-100000J0D01*
G01*
X91900000Y-75400000D02*
G75*
G02*
X92100000Y-75400000I100000J0D01*
G01*
D11*
%TO.C,C7*%
X94565000Y-72438748D02*
X94565000Y-72961252D01*
X96035000Y-72438748D02*
X96035000Y-72961252D01*
%TO.C,R26*%
X97131136Y-120397600D02*
X97585264Y-120397600D01*
X97131136Y-121867600D02*
X97585264Y-121867600D01*
%TO.C,Y2*%
X85465000Y-103275000D02*
X85465000Y-115995000D01*
X90685000Y-103275000D02*
X85465000Y-103275000D01*
X90685000Y-115995000D02*
X90685000Y-103275000D01*
%TO.C,J12*%
X95530000Y-125255000D02*
X95530000Y-127055000D01*
X95530000Y-130765000D02*
X95530000Y-129305000D01*
X104470000Y-125255000D02*
X104470000Y-127055000D01*
X104470000Y-130765000D02*
X95530000Y-130765000D01*
X104470000Y-130765000D02*
X104470000Y-129305000D01*
%TO.C,C47*%
X101498977Y-114493370D02*
X101498977Y-113970866D01*
X102968977Y-114493370D02*
X102968977Y-113970866D01*
%TO.C,C42*%
X103165000Y-99811252D02*
X103165000Y-99288748D01*
X104635000Y-99811252D02*
X104635000Y-99288748D01*
%TO.C,C4*%
X101261252Y-73865000D02*
X100738748Y-73865000D01*
X101261252Y-75335000D02*
X100738748Y-75335000D01*
D14*
%TO.C,U21*%
X106125000Y-74777000D02*
X106125000Y-74627000D01*
X106125000Y-74787000D02*
X106275000Y-74787000D01*
X108675000Y-72077000D02*
X108825000Y-72077000D01*
X108825000Y-72077000D02*
X108825000Y-72227000D01*
X108825000Y-74777000D02*
X108675000Y-74777000D01*
X108825000Y-74777000D02*
X108825000Y-74627000D01*
D11*
X106125000Y-72077000D02*
X105765000Y-72077000D01*
X106125000Y-71717000D01*
X106125000Y-72077000D01*
G36*
X106125000Y-72077000D02*
G01*
X105765000Y-72077000D01*
X106125000Y-71717000D01*
X106125000Y-72077000D01*
G37*
%TO.C,R9*%
X102904502Y-120417279D02*
X102450374Y-120417279D01*
X102904502Y-121887279D02*
X102450374Y-121887279D01*
%TO.C,TP1*%
X99450000Y-105100000D02*
G75*
G02*
X97550000Y-105100000I-950000J0D01*
G01*
X97550000Y-105100000D02*
G75*
G02*
X99450000Y-105100000I950000J0D01*
G01*
%TD*%
M02*
