%TF.GenerationSoftware,KiCad,Pcbnew,9.0.5*%
%TF.CreationDate,2026-01-03T13:47:43+01:00*%
%TF.ProjectId,CanSat,43616e53-6174-42e6-9b69-6361645f7063,rev?*%
%TF.SameCoordinates,Original*%
%TF.FileFunction,Soldermask,Top*%
%TF.FilePolarity,Negative*%
%FSLAX46Y46*%
G04 Gerber Fmt 4.6, Leading zero omitted, Abs format (unit mm)*
G04 Created by KiCad (PCBNEW 9.0.5) date 2026-01-03 13:47:43*
%MOMM*%
%LPD*%
G01*
G04 APERTURE LIST*
G04 Aperture macros list*
%AMRoundRect*
0 Rectangle with rounded corners*
0 $1 Rounding radius*
0 $2 $3 $4 $5 $6 $7 $8 $9 X,Y pos of 4 corners*
0 Add a 4 corners polygon primitive as box body*
4,1,4,$2,$3,$4,$5,$6,$7,$8,$9,$2,$3,0*
0 Add four circle primitives for the rounded corners*
1,1,$1+$1,$2,$3*
1,1,$1+$1,$4,$5*
1,1,$1+$1,$6,$7*
1,1,$1+$1,$8,$9*
0 Add four rect primitives between the rounded corners*
20,1,$1+$1,$2,$3,$4,$5,0*
20,1,$1+$1,$4,$5,$6,$7,0*
20,1,$1+$1,$6,$7,$8,$9,0*
20,1,$1+$1,$8,$9,$2,$3,0*%
G04 Aperture macros list end*
%ADD10C,0.010000*%
%ADD11RoundRect,0.250000X0.475000X-0.250000X0.475000X0.250000X-0.475000X0.250000X-0.475000X-0.250000X0*%
%ADD12O,1.200000X1.750000*%
%ADD13RoundRect,0.250000X0.350000X0.625000X-0.350000X0.625000X-0.350000X-0.625000X0.350000X-0.625000X0*%
%ADD14RoundRect,0.250000X-0.350000X-0.625000X0.350000X-0.625000X0.350000X0.625000X-0.350000X0.625000X0*%
%ADD15RoundRect,0.250000X-0.350000X0.450000X-0.350000X-0.450000X0.350000X-0.450000X0.350000X0.450000X0*%
%ADD16RoundRect,0.250000X-0.475000X0.250000X-0.475000X-0.250000X0.475000X-0.250000X0.475000X0.250000X0*%
%ADD17C,3.200000*%
%ADD18RoundRect,0.250000X-0.250000X-0.475000X0.250000X-0.475000X0.250000X0.475000X-0.250000X0.475000X0*%
%ADD19RoundRect,0.250000X0.250000X0.475000X-0.250000X0.475000X-0.250000X-0.475000X0.250000X-0.475000X0*%
%ADD20RoundRect,0.150000X0.825000X0.150000X-0.825000X0.150000X-0.825000X-0.150000X0.825000X-0.150000X0*%
%ADD21RoundRect,0.250000X-0.450000X0.262500X-0.450000X-0.262500X0.450000X-0.262500X0.450000X0.262500X0*%
%ADD22RoundRect,0.250000X-0.262500X-0.450000X0.262500X-0.450000X0.262500X0.450000X-0.262500X0.450000X0*%
%ADD23C,1.500000*%
%ADD24RoundRect,0.250000X0.625000X-0.375000X0.625000X0.375000X-0.625000X0.375000X-0.625000X-0.375000X0*%
%ADD25RoundRect,0.150000X0.150000X-0.587500X0.150000X0.587500X-0.150000X0.587500X-0.150000X-0.587500X0*%
%ADD26RoundRect,0.250000X0.450000X-0.262500X0.450000X0.262500X-0.450000X0.262500X-0.450000X-0.262500X0*%
%ADD27RoundRect,0.102000X-0.350000X0.700000X-0.350000X-0.700000X0.350000X-0.700000X0.350000X0.700000X0*%
%ADD28R,0.675000X0.254000*%
%ADD29R,0.254000X0.675000*%
%ADD30R,1.500000X0.900000*%
%ADD31R,0.900000X1.500000*%
%ADD32C,0.600000*%
%ADD33R,3.900000X3.900000*%
%ADD34R,1.700000X1.700000*%
%ADD35C,1.700000*%
%ADD36RoundRect,0.102000X0.200000X-0.275000X0.200000X0.275000X-0.200000X0.275000X-0.200000X-0.275000X0*%
%ADD37RoundRect,0.250000X-0.750000X2.000000X-0.750000X-2.000000X0.750000X-2.000000X0.750000X2.000000X0*%
%ADD38R,0.600000X1.160000*%
%ADD39R,0.300000X1.160000*%
%ADD40O,0.900000X2.000000*%
%ADD41O,0.900000X1.700000*%
%ADD42R,0.350000X0.500000*%
%ADD43RoundRect,0.250000X0.262500X0.450000X-0.262500X0.450000X-0.262500X-0.450000X0.262500X-0.450000X0*%
%ADD44RoundRect,0.250000X-0.625000X0.350000X-0.625000X-0.350000X0.625000X-0.350000X0.625000X0.350000X0*%
%ADD45O,1.750000X1.200000*%
G04 APERTURE END LIST*
D10*
%TO.C,U2*%
X93700000Y-74025000D02*
X92220000Y-74025000D01*
X91900000Y-73705000D01*
X91900000Y-72675000D01*
X93700000Y-72675000D01*
X93700000Y-74025000D01*
G36*
X93700000Y-74025000D02*
G01*
X92220000Y-74025000D01*
X91900000Y-73705000D01*
X91900000Y-72675000D01*
X93700000Y-72675000D01*
X93700000Y-74025000D01*
G37*
%TD*%
D11*
%TO.C,C34*%
X96233977Y-113282118D03*
X96233977Y-115182118D03*
%TD*%
%TO.C,C44*%
X98233977Y-113282118D03*
X98233977Y-115182118D03*
%TD*%
D12*
%TO.C,J6*%
X110896838Y-83731832D03*
X112896838Y-83731832D03*
X114896838Y-83731832D03*
X116896838Y-83731832D03*
X118896838Y-83731832D03*
D13*
X120896838Y-83731832D03*
%TD*%
D14*
%TO.C,J2*%
X89000000Y-122600000D03*
D12*
X91000000Y-122600000D03*
%TD*%
D15*
%TO.C,U7*%
X94500000Y-98725000D03*
X94500000Y-100925000D03*
X96200000Y-100925000D03*
X96200000Y-98725000D03*
%TD*%
D16*
%TO.C,C43*%
X101600000Y-103750000D03*
X101600000Y-105650000D03*
%TD*%
D17*
%TO.C,*%
X116725000Y-79350000D03*
%TD*%
D18*
%TO.C,C57*%
X91725000Y-114235000D03*
X93625000Y-114235000D03*
%TD*%
D19*
%TO.C,C45*%
X101750000Y-80000000D03*
X99850000Y-80000000D03*
%TD*%
D20*
%TO.C,U8*%
X83550000Y-118480000D03*
X83550000Y-117210000D03*
X83550000Y-115940000D03*
X83550000Y-114670000D03*
X83550000Y-113400000D03*
X83550000Y-112130000D03*
X83550000Y-110860000D03*
X83550000Y-109590000D03*
X78600000Y-109590000D03*
X78600000Y-110860000D03*
X78600000Y-112130000D03*
X78600000Y-113400000D03*
X78600000Y-114670000D03*
X78600000Y-115940000D03*
X78600000Y-117210000D03*
X78600000Y-118480000D03*
%TD*%
D11*
%TO.C,C16*%
X86000000Y-120750000D03*
X86000000Y-118850000D03*
%TD*%
D19*
%TO.C,C5*%
X90550000Y-75800000D03*
X88650000Y-75800000D03*
%TD*%
D21*
%TO.C,R10*%
X100011423Y-119603677D03*
X100011423Y-121428677D03*
%TD*%
D22*
%TO.C,R94*%
X105896400Y-120091200D03*
X107721400Y-120091200D03*
%TD*%
D23*
%TO.C,TP13*%
X101600000Y-95200000D03*
%TD*%
D24*
%TO.C,D5*%
X109753400Y-124894800D03*
X109753400Y-122094800D03*
%TD*%
D23*
%TO.C,TP12*%
X101400000Y-92700000D03*
%TD*%
D25*
%TO.C,Q2*%
X73939400Y-107873800D03*
X75839400Y-107873800D03*
X74889400Y-105998800D03*
%TD*%
D26*
%TO.C,R97*%
X103900000Y-97012500D03*
X103900000Y-95187500D03*
%TD*%
D17*
%TO.C,*%
X83200000Y-79350000D03*
%TD*%
D27*
%TO.C,U1*%
X101900000Y-72000000D03*
X100630000Y-72000000D03*
X99360000Y-72000000D03*
X98090000Y-72000000D03*
%TD*%
D22*
%TO.C,R93*%
X109350800Y-120091200D03*
X111175800Y-120091200D03*
%TD*%
D11*
%TO.C,C19*%
X92600000Y-98650000D03*
X92600000Y-96750000D03*
%TD*%
D28*
%TO.C,U23*%
X98337500Y-102250000D03*
D29*
X99250000Y-102387500D03*
X99750000Y-102387500D03*
X100250000Y-102387500D03*
X100750000Y-102387500D03*
D28*
X101662500Y-102250000D03*
X101662500Y-101750000D03*
X101662500Y-101250000D03*
X101662500Y-100750000D03*
X101662500Y-100250000D03*
X101662500Y-99750000D03*
X101662500Y-99250000D03*
X101662500Y-98750000D03*
X101662500Y-98250000D03*
X101662500Y-97750000D03*
D29*
X100750000Y-97612500D03*
X100250000Y-97612500D03*
X99750000Y-97612500D03*
X99250000Y-97612500D03*
D28*
X98337500Y-97750000D03*
X98337500Y-98250000D03*
X98337500Y-98750000D03*
X98337500Y-99250000D03*
X98337500Y-99750000D03*
X98337500Y-100250000D03*
X98337500Y-100750000D03*
X98337500Y-101250000D03*
X98337500Y-101750000D03*
%TD*%
D18*
%TO.C,C8*%
X103300000Y-80000000D03*
X105200000Y-80000000D03*
%TD*%
D26*
%TO.C,R8*%
X72237600Y-108075100D03*
X72237600Y-106250100D03*
%TD*%
D16*
%TO.C,C1*%
X104700000Y-72550000D03*
X104700000Y-74450000D03*
%TD*%
D25*
%TO.C,Q1*%
X73939400Y-111810800D03*
X75839400Y-111810800D03*
X74889400Y-109935800D03*
%TD*%
D24*
%TO.C,D1*%
X107315000Y-124894800D03*
X107315000Y-122094800D03*
%TD*%
D22*
%TO.C,R98*%
X88687500Y-73800000D03*
X90512500Y-73800000D03*
%TD*%
D30*
%TO.C,U3*%
X107366000Y-94156400D03*
X107366000Y-95426400D03*
X107366000Y-96696400D03*
X107366000Y-97966400D03*
X107366000Y-99236400D03*
X107366000Y-100506400D03*
X107366000Y-101776400D03*
X107366000Y-103046400D03*
X107366000Y-104316400D03*
X107366000Y-105586400D03*
X107366000Y-106856400D03*
X107366000Y-108126400D03*
X107366000Y-109396400D03*
X107366000Y-110666400D03*
D31*
X109131000Y-111916400D03*
X110401000Y-111916400D03*
X111671000Y-111916400D03*
X112941000Y-111916400D03*
X114211000Y-111916400D03*
X115481000Y-111916400D03*
X116751000Y-111916400D03*
X118021000Y-111916400D03*
X119291000Y-111916400D03*
X120561000Y-111916400D03*
X121831000Y-111916400D03*
X123101000Y-111916400D03*
D30*
X124866000Y-110666400D03*
X124866000Y-109396400D03*
X124866000Y-108126400D03*
X124866000Y-106856400D03*
X124866000Y-105586400D03*
X124866000Y-104316400D03*
X124866000Y-103046400D03*
X124866000Y-101776400D03*
X124866000Y-100506400D03*
X124866000Y-99236400D03*
X124866000Y-97966400D03*
X124866000Y-96696400D03*
X124866000Y-95426400D03*
X124866000Y-94156400D03*
D32*
X113216000Y-101176400D03*
X113216000Y-102576400D03*
X113916000Y-100476400D03*
X113916000Y-101876400D03*
X113916000Y-103276400D03*
X114616000Y-101176400D03*
D33*
X114616000Y-101876400D03*
D32*
X114616000Y-102576400D03*
X115316000Y-100476400D03*
X115316000Y-101876400D03*
X115316000Y-103276400D03*
X116016000Y-101176400D03*
X116016000Y-102576400D03*
%TD*%
D34*
%TO.C,J7*%
X109250000Y-114800000D03*
D35*
X111790000Y-114800000D03*
X114330000Y-114800000D03*
X116870000Y-114800000D03*
X119410000Y-114800000D03*
X121950000Y-114800000D03*
%TD*%
D11*
%TO.C,C46*%
X100233977Y-115182118D03*
X100233977Y-113282118D03*
%TD*%
D16*
%TO.C,C56*%
X92456000Y-106796800D03*
X92456000Y-108696800D03*
%TD*%
D36*
%TO.C,U2*%
X92000000Y-74500000D03*
X92800000Y-74500000D03*
X93600000Y-74500000D03*
X93600000Y-72200000D03*
X92800000Y-72200000D03*
X92000000Y-72200000D03*
%TD*%
D16*
%TO.C,C7*%
X95300000Y-71750000D03*
X95300000Y-73650000D03*
%TD*%
D22*
%TO.C,R26*%
X96445700Y-121132600D03*
X98270700Y-121132600D03*
%TD*%
D17*
%TO.C,*%
X116725000Y-121000000D03*
%TD*%
D37*
%TO.C,Y2*%
X88075000Y-105785000D03*
X88075000Y-114285000D03*
%TD*%
D32*
%TO.C,J12*%
X97110000Y-124475000D03*
X102890000Y-124475000D03*
D38*
X96800000Y-123415000D03*
X97600000Y-123415000D03*
D39*
X98750000Y-123415000D03*
X99750000Y-123415000D03*
X100250000Y-123415000D03*
X101250000Y-123415000D03*
D38*
X102400000Y-123415000D03*
X103200000Y-123415000D03*
X103200000Y-123415000D03*
X102400000Y-123415000D03*
D39*
X101750000Y-123415000D03*
X100750000Y-123415000D03*
X99250000Y-123415000D03*
X98250000Y-123415000D03*
D38*
X97600000Y-123415000D03*
X96800000Y-123415000D03*
D40*
X95680000Y-123995000D03*
D41*
X95680000Y-128165000D03*
D40*
X104320000Y-123995000D03*
D41*
X104320000Y-128165000D03*
%TD*%
D11*
%TO.C,C47*%
X102233977Y-115182118D03*
X102233977Y-113282118D03*
%TD*%
%TO.C,C42*%
X103900000Y-100500000D03*
X103900000Y-98600000D03*
%TD*%
D19*
%TO.C,C4*%
X101950000Y-74600000D03*
X100050000Y-74600000D03*
%TD*%
D42*
%TO.C,U21*%
X106500000Y-72402000D03*
X107150000Y-72402000D03*
X107800000Y-72402000D03*
X108450000Y-72402000D03*
X108450000Y-74452000D03*
X107800000Y-74452000D03*
X107150000Y-74452000D03*
X106500000Y-74452000D03*
%TD*%
D43*
%TO.C,R9*%
X103589938Y-121152279D03*
X101764938Y-121152279D03*
%TD*%
D23*
%TO.C,TP1*%
X98500000Y-105100000D03*
%TD*%
D17*
%TO.C,*%
X83200000Y-121000000D03*
%TD*%
D34*
%TO.C,J5*%
X93225000Y-117075000D03*
D35*
X95765000Y-117075000D03*
X98305000Y-117075000D03*
X100845000Y-117075000D03*
X103385000Y-117075000D03*
X105925000Y-117075000D03*
X108465000Y-117075000D03*
%TD*%
D44*
%TO.C,J1*%
X88550000Y-78000000D03*
D45*
X88550000Y-80000000D03*
X88550000Y-82000000D03*
X88550000Y-84000000D03*
%TD*%
D13*
%TO.C,J3*%
X102400000Y-77100000D03*
D12*
X100400000Y-77100000D03*
X98400000Y-77100000D03*
X96400000Y-77100000D03*
%TD*%
D34*
%TO.C,J4*%
X103355000Y-84900000D03*
D35*
X103355000Y-82360000D03*
X100815000Y-84900000D03*
X100815000Y-82360000D03*
X98275000Y-84900000D03*
X98275000Y-82360000D03*
X95735000Y-84900000D03*
X95735000Y-82360000D03*
%TD*%
M02*
