%TF.GenerationSoftware,KiCad,Pcbnew,9.0.5*%
%TF.CreationDate,2026-01-03T13:47:31+01:00*%
%TF.ProjectId,CanSat,43616e53-6174-42e6-9b69-6361645f7063,rev?*%
%TF.SameCoordinates,Original*%
%TF.FileFunction,Drillmap*%
%TF.FilePolarity,Positive*%
%FSLAX45Y45*%
G04 Gerber Fmt 4.5, Leading zero omitted, Abs format (unit mm)*
G04 Created by KiCad (PCBNEW 9.0.5) date 2026-01-03 13:47:31*
%MOMM*%
%LPD*%
G01*
G04 APERTURE LIST*
%ADD10C,0.050000*%
%ADD11C,0.200000*%
%ADD12C,0.100000*%
G04 APERTURE END LIST*
D10*
X13000000Y-10000000D02*
G75*
G02*
X7000000Y-10000000I-3000000J0D01*
G01*
X7000000Y-10000000D02*
G75*
G02*
X13000000Y-10000000I3000000J0D01*
G01*
D11*
D12*
X7045000Y-9900000D02*
X7075000Y-9930000D01*
X7075000Y-9900000D02*
X7045000Y-9930000D01*
X7050000Y-9820000D02*
X7080000Y-9850000D01*
X7080000Y-9820000D02*
X7050000Y-9850000D01*
X7055000Y-9740000D02*
X7085000Y-9770000D01*
X7085000Y-9740000D02*
X7055000Y-9770000D01*
X7060000Y-9655000D02*
X7090000Y-9685000D01*
X7090000Y-9655000D02*
X7060000Y-9685000D01*
X7070000Y-9565000D02*
X7100000Y-9595000D01*
X7100000Y-9565000D02*
X7070000Y-9595000D01*
X7085000Y-9490000D02*
X7115000Y-9520000D01*
X7115000Y-9490000D02*
X7085000Y-9520000D01*
X7100000Y-9410000D02*
X7130000Y-9440000D01*
X7130000Y-9410000D02*
X7100000Y-9440000D01*
X7120000Y-9330000D02*
X7150000Y-9360000D01*
X7150000Y-9330000D02*
X7120000Y-9360000D01*
X7140000Y-9250000D02*
X7170000Y-9280000D01*
X7170000Y-9250000D02*
X7140000Y-9280000D01*
X7160000Y-9170000D02*
X7190000Y-9200000D01*
X7190000Y-9170000D02*
X7160000Y-9200000D01*
X7251463Y-10946610D02*
X7281463Y-10976610D01*
X7281463Y-10946610D02*
X7251463Y-10976610D01*
X7344506Y-11274506D02*
X7374506Y-11304506D01*
X7374506Y-11274506D02*
X7344506Y-11304506D01*
X7395000Y-10538436D02*
X7425000Y-10568436D01*
X7425000Y-10538436D02*
X7395000Y-10568436D01*
X7485000Y-11240000D02*
X7515000Y-11270000D01*
X7515000Y-11240000D02*
X7485000Y-11270000D01*
X7575000Y-11355000D02*
X7605000Y-11385000D01*
X7605000Y-11355000D02*
X7575000Y-11385000D01*
X7665000Y-11465000D02*
X7695000Y-11495000D01*
X7695000Y-11465000D02*
X7665000Y-11495000D01*
X7995000Y-11245000D02*
X8025000Y-11275000D01*
X8025000Y-11245000D02*
X7995000Y-11275000D01*
X8035000Y-10425000D02*
X8065000Y-10455000D01*
X8065000Y-10425000D02*
X8035000Y-10455000D01*
X8105000Y-11905000D02*
X8135000Y-11935000D01*
X8135000Y-11905000D02*
X8105000Y-11935000D01*
X8175000Y-11835000D02*
X8205000Y-11865000D01*
X8205000Y-11835000D02*
X8175000Y-11865000D01*
X8245000Y-8805000D02*
X8275000Y-8835000D01*
X8275000Y-8805000D02*
X8245000Y-8835000D01*
X8281703Y-10412334D02*
X8311703Y-10442334D01*
X8311703Y-10412334D02*
X8281703Y-10442334D01*
X8375000Y-7575000D02*
X8405000Y-7605000D01*
X8405000Y-7575000D02*
X8375000Y-7605000D01*
X8385000Y-8675000D02*
X8415000Y-8705000D01*
X8415000Y-8675000D02*
X8385000Y-8705000D01*
X8525000Y-8535000D02*
X8555000Y-8565000D01*
X8555000Y-8535000D02*
X8525000Y-8565000D01*
X8535000Y-9305000D02*
X8565000Y-9335000D01*
X8565000Y-9305000D02*
X8535000Y-9335000D01*
X8535000Y-9375000D02*
X8565000Y-9405000D01*
X8565000Y-9375000D02*
X8535000Y-9405000D01*
X8558684Y-10847300D02*
X8588684Y-10877300D01*
X8588684Y-10847300D02*
X8558684Y-10877300D01*
X8560000Y-10935000D02*
X8590000Y-10965000D01*
X8590000Y-10935000D02*
X8560000Y-10965000D01*
X8560000Y-10935000D02*
X8590000Y-10965000D01*
X8590000Y-10935000D02*
X8560000Y-10965000D01*
X8560000Y-10935000D02*
X8590000Y-10965000D01*
X8590000Y-10935000D02*
X8560000Y-10965000D01*
X8560946Y-11020355D02*
X8590946Y-11050355D01*
X8590946Y-11020355D02*
X8560946Y-11050355D01*
X8605000Y-9305000D02*
X8635000Y-9335000D01*
X8635000Y-9305000D02*
X8605000Y-9335000D01*
X8605000Y-9375000D02*
X8635000Y-9405000D01*
X8635000Y-9375000D02*
X8605000Y-9405000D01*
X8623684Y-10847300D02*
X8653684Y-10877300D01*
X8653684Y-10847300D02*
X8623684Y-10877300D01*
X8625000Y-10935000D02*
X8655000Y-10965000D01*
X8655000Y-10935000D02*
X8625000Y-10965000D01*
X8625946Y-11020355D02*
X8655946Y-11050355D01*
X8655946Y-11020355D02*
X8625946Y-11050355D01*
X8645000Y-8235000D02*
X8675000Y-8265000D01*
X8675000Y-8235000D02*
X8645000Y-8265000D01*
X8675000Y-9305000D02*
X8705000Y-9335000D01*
X8705000Y-9305000D02*
X8675000Y-9335000D01*
X8675000Y-9375000D02*
X8705000Y-9405000D01*
X8705000Y-9375000D02*
X8675000Y-9405000D01*
X8693684Y-10847300D02*
X8723684Y-10877300D01*
X8723684Y-10847300D02*
X8693684Y-10877300D01*
X8695000Y-10935000D02*
X8725000Y-10965000D01*
X8725000Y-10935000D02*
X8695000Y-10965000D01*
X8695946Y-11020355D02*
X8725946Y-11050355D01*
X8725946Y-11020355D02*
X8695946Y-11050355D01*
X8745000Y-9305000D02*
X8775000Y-9335000D01*
X8775000Y-9305000D02*
X8745000Y-9335000D01*
X8745000Y-9375000D02*
X8775000Y-9405000D01*
X8775000Y-9375000D02*
X8745000Y-9405000D01*
X8763684Y-10847300D02*
X8793684Y-10877300D01*
X8793684Y-10847300D02*
X8763684Y-10877300D01*
X8765000Y-10935000D02*
X8795000Y-10965000D01*
X8795000Y-10935000D02*
X8765000Y-10965000D01*
X8765946Y-11020355D02*
X8795946Y-11050355D01*
X8795946Y-11020355D02*
X8765946Y-11050355D01*
X9132224Y-7238469D02*
X9162224Y-7268469D01*
X9162224Y-7238469D02*
X9132224Y-7268469D01*
X9165000Y-12025000D02*
X9195000Y-12055000D01*
X9195000Y-12025000D02*
X9165000Y-12055000D01*
X9175000Y-7545000D02*
X9205000Y-7575000D01*
X9205000Y-7545000D02*
X9175000Y-7575000D01*
X9285000Y-8135000D02*
X9315000Y-8165000D01*
X9315000Y-8135000D02*
X9285000Y-8165000D01*
X9285000Y-8225000D02*
X9315000Y-8255000D01*
X9315000Y-8225000D02*
X9285000Y-8255000D01*
X9445000Y-11085000D02*
X9475000Y-11115000D01*
X9475000Y-11085000D02*
X9445000Y-11115000D01*
X9515000Y-10315000D02*
X9545000Y-10345000D01*
X9545000Y-10315000D02*
X9515000Y-10345000D01*
X9545000Y-10685000D02*
X9575000Y-10715000D01*
X9575000Y-10685000D02*
X9545000Y-10715000D01*
X9595000Y-9635000D02*
X9625000Y-9665000D01*
X9625000Y-9635000D02*
X9595000Y-9665000D01*
X9595000Y-10612695D02*
X9625000Y-10642695D01*
X9625000Y-10612695D02*
X9595000Y-10642695D01*
X9595250Y-8703845D02*
X9625250Y-8733845D01*
X9625250Y-8703845D02*
X9595250Y-8733845D01*
X9655000Y-8635000D02*
X9685000Y-8665000D01*
X9685000Y-8635000D02*
X9655000Y-8665000D01*
X9695000Y-7315000D02*
X9725000Y-7345000D01*
X9725000Y-7315000D02*
X9695000Y-7345000D01*
X9735000Y-9405000D02*
X9765000Y-9435000D01*
X9765000Y-9405000D02*
X9735000Y-9435000D01*
X9755000Y-8705000D02*
X9785000Y-8735000D01*
X9785000Y-8705000D02*
X9755000Y-8735000D01*
X9955864Y-9075864D02*
X9985864Y-9105864D01*
X9985864Y-9075864D02*
X9955864Y-9105864D01*
X9965000Y-11025000D02*
X9995000Y-11055000D01*
X9995000Y-11025000D02*
X9965000Y-11055000D01*
X10054119Y-9034319D02*
X10084119Y-9064319D01*
X10084119Y-9034319D02*
X10054119Y-9064319D01*
X10105000Y-11105000D02*
X10135000Y-11135000D01*
X10135000Y-11105000D02*
X10105000Y-11135000D01*
X10115000Y-7305000D02*
X10145000Y-7335000D01*
X10145000Y-7305000D02*
X10115000Y-7335000D01*
X10135000Y-8984859D02*
X10165000Y-9014859D01*
X10165000Y-8984859D02*
X10135000Y-9014859D01*
X10195000Y-8931943D02*
X10225000Y-8961943D01*
X10225000Y-8931943D02*
X10195000Y-8961943D01*
X10195800Y-12666200D02*
X10225800Y-12696200D01*
X10225800Y-12666200D02*
X10195800Y-12696200D01*
X10258007Y-8882647D02*
X10288007Y-8912647D01*
X10288007Y-8882647D02*
X10258007Y-8912647D01*
X10272000Y-12706300D02*
X10302000Y-12736300D01*
X10302000Y-12706300D02*
X10272000Y-12736300D01*
X10295000Y-10685000D02*
X10325000Y-10715000D01*
X10325000Y-10685000D02*
X10295000Y-10715000D01*
X10305000Y-10435000D02*
X10335000Y-10465000D01*
X10335000Y-10435000D02*
X10305000Y-10465000D01*
X10405000Y-9365000D02*
X10435000Y-9395000D01*
X10435000Y-9365000D02*
X10405000Y-9395000D01*
X10548860Y-12514820D02*
X10578860Y-12544820D01*
X10578860Y-12514820D02*
X10548860Y-12544820D01*
X10551400Y-12423380D02*
X10581400Y-12453380D01*
X10581400Y-12423380D02*
X10551400Y-12453380D01*
X10577500Y-9105000D02*
X10607500Y-9135000D01*
X10607500Y-9105000D02*
X10577500Y-9135000D01*
X10577500Y-9185000D02*
X10607500Y-9215000D01*
X10607500Y-9185000D02*
X10577500Y-9215000D01*
X10882574Y-9787427D02*
X10912574Y-9817427D01*
X10912574Y-9787427D02*
X10882574Y-9817427D01*
X10885000Y-10165000D02*
X10915000Y-10195000D01*
X10915000Y-10165000D02*
X10885000Y-10195000D01*
X10925000Y-7465000D02*
X10955000Y-7495000D01*
X10955000Y-7465000D02*
X10925000Y-7495000D01*
X10925000Y-10285000D02*
X10955000Y-10315000D01*
X10955000Y-10285000D02*
X10925000Y-10315000D01*
X10965000Y-7345000D02*
X10995000Y-7375000D01*
X10995000Y-7345000D02*
X10965000Y-7375000D01*
X10965000Y-9845000D02*
X10995000Y-9875000D01*
X10995000Y-9845000D02*
X10965000Y-9875000D01*
X10985000Y-9485000D02*
X11015000Y-9515000D01*
X11015000Y-9485000D02*
X10985000Y-9515000D01*
X10985000Y-9985000D02*
X11015000Y-10015000D01*
X11015000Y-9985000D02*
X10985000Y-10015000D01*
X11085000Y-10325000D02*
X11115000Y-10355000D01*
X11115000Y-10325000D02*
X11085000Y-10355000D01*
X11105000Y-10185000D02*
X11135000Y-10215000D01*
X11135000Y-10185000D02*
X11105000Y-10215000D01*
X11265000Y-10985000D02*
X11295000Y-11015000D01*
X11295000Y-10985000D02*
X11265000Y-11015000D01*
X11445000Y-11005000D02*
X11475000Y-11035000D01*
X11475000Y-11005000D02*
X11445000Y-11035000D01*
X11605000Y-10965000D02*
X11635000Y-10995000D01*
X11635000Y-10965000D02*
X11605000Y-10995000D01*
X11685000Y-9865000D02*
X11715000Y-9895000D01*
X11715000Y-9865000D02*
X11685000Y-9895000D01*
X11705000Y-11025000D02*
X11735000Y-11055000D01*
X11735000Y-11025000D02*
X11705000Y-11055000D01*
X11945000Y-9865000D02*
X11975000Y-9895000D01*
X11975000Y-9865000D02*
X11945000Y-9895000D01*
X12005000Y-10665000D02*
X12035000Y-10695000D01*
X12035000Y-10665000D02*
X12005000Y-10695000D01*
X12045000Y-9865000D02*
X12075000Y-9895000D01*
X12075000Y-9865000D02*
X12045000Y-9895000D01*
X12045000Y-11045000D02*
X12075000Y-11075000D01*
X12075000Y-11045000D02*
X12045000Y-11075000D01*
X12065000Y-10925000D02*
X12095000Y-10955000D01*
X12095000Y-10925000D02*
X12065000Y-10955000D01*
X12145000Y-9865000D02*
X12175000Y-9895000D01*
X12175000Y-9865000D02*
X12145000Y-9895000D01*
X12145000Y-11705000D02*
X12175000Y-11735000D01*
X12175000Y-11705000D02*
X12145000Y-11735000D01*
X12245000Y-9525000D02*
X12275000Y-9555000D01*
X12275000Y-9525000D02*
X12245000Y-9555000D01*
X12265000Y-9645000D02*
X12295000Y-9675000D01*
X12295000Y-9645000D02*
X12265000Y-9675000D01*
X12385000Y-11365000D02*
X12415000Y-11395000D01*
X12415000Y-11365000D02*
X12385000Y-11395000D01*
X12745000Y-10365000D02*
X12775000Y-10395000D01*
X12775000Y-10365000D02*
X12745000Y-10395000D01*
X12785000Y-10045000D02*
X12815000Y-10075000D01*
X12815000Y-10045000D02*
X12785000Y-10075000D01*
X12785000Y-10165000D02*
X12815000Y-10195000D01*
X12815000Y-10165000D02*
X12785000Y-10195000D01*
X11336600Y-10117640D02*
G75*
G02*
X11306600Y-10117640I-15000J0D01*
G01*
X11306600Y-10117640D02*
G75*
G02*
X11336600Y-10117640I15000J0D01*
G01*
X11336600Y-10257640D02*
G75*
G02*
X11306600Y-10257640I-15000J0D01*
G01*
X11306600Y-10257640D02*
G75*
G02*
X11336600Y-10257640I15000J0D01*
G01*
X11406600Y-10047640D02*
G75*
G02*
X11376600Y-10047640I-15000J0D01*
G01*
X11376600Y-10047640D02*
G75*
G02*
X11406600Y-10047640I15000J0D01*
G01*
X11406600Y-10187640D02*
G75*
G02*
X11376600Y-10187640I-15000J0D01*
G01*
X11376600Y-10187640D02*
G75*
G02*
X11406600Y-10187640I15000J0D01*
G01*
X11406600Y-10327640D02*
G75*
G02*
X11376600Y-10327640I-15000J0D01*
G01*
X11376600Y-10327640D02*
G75*
G02*
X11406600Y-10327640I15000J0D01*
G01*
X11476600Y-10117640D02*
G75*
G02*
X11446600Y-10117640I-15000J0D01*
G01*
X11446600Y-10117640D02*
G75*
G02*
X11476600Y-10117640I15000J0D01*
G01*
X11476600Y-10257640D02*
G75*
G02*
X11446600Y-10257640I-15000J0D01*
G01*
X11446600Y-10257640D02*
G75*
G02*
X11476600Y-10257640I15000J0D01*
G01*
X11546600Y-10047640D02*
G75*
G02*
X11516600Y-10047640I-15000J0D01*
G01*
X11516600Y-10047640D02*
G75*
G02*
X11546600Y-10047640I15000J0D01*
G01*
X11546600Y-10187640D02*
G75*
G02*
X11516600Y-10187640I-15000J0D01*
G01*
X11516600Y-10187640D02*
G75*
G02*
X11546600Y-10187640I15000J0D01*
G01*
X11546600Y-10327640D02*
G75*
G02*
X11516600Y-10327640I-15000J0D01*
G01*
X11516600Y-10327640D02*
G75*
G02*
X11546600Y-10327640I15000J0D01*
G01*
X11616600Y-10117640D02*
G75*
G02*
X11586600Y-10117640I-15000J0D01*
G01*
X11586600Y-10117640D02*
G75*
G02*
X11616600Y-10117640I15000J0D01*
G01*
X11616600Y-10257640D02*
G75*
G02*
X11586600Y-10257640I-15000J0D01*
G01*
X11586600Y-10257640D02*
G75*
G02*
X11616600Y-10257640I15000J0D01*
G01*
X9568000Y-12369500D02*
X9568000Y-12429500D01*
X9538000Y-12399500D02*
X9598000Y-12399500D01*
X9598000Y-12454500D02*
X9598000Y-12344500D01*
X9538000Y-12344500D02*
G75*
G02*
X9598000Y-12344500I30000J0D01*
G01*
X9538000Y-12344500D02*
X9538000Y-12454500D01*
X9538000Y-12454500D02*
G75*
G03*
X9598000Y-12454500I30000J0D01*
G01*
X9568000Y-12786500D02*
X9568000Y-12846500D01*
X9538000Y-12816500D02*
X9598000Y-12816500D01*
X9598000Y-12856500D02*
X9598000Y-12776500D01*
X9538000Y-12776500D02*
G75*
G02*
X9598000Y-12776500I30000J0D01*
G01*
X9538000Y-12776500D02*
X9538000Y-12856500D01*
X9538000Y-12856500D02*
G75*
G03*
X9598000Y-12856500I30000J0D01*
G01*
X10432000Y-12369500D02*
X10432000Y-12429500D01*
X10402000Y-12399500D02*
X10462000Y-12399500D01*
X10462000Y-12454500D02*
X10462000Y-12344500D01*
X10402000Y-12344500D02*
G75*
G02*
X10462000Y-12344500I30000J0D01*
G01*
X10402000Y-12344500D02*
X10402000Y-12454500D01*
X10402000Y-12454500D02*
G75*
G03*
X10462000Y-12454500I30000J0D01*
G01*
X10432000Y-12786500D02*
X10432000Y-12846500D01*
X10402000Y-12816500D02*
X10462000Y-12816500D01*
X10462000Y-12856500D02*
X10462000Y-12776500D01*
X10402000Y-12776500D02*
G75*
G02*
X10462000Y-12776500I30000J0D01*
G01*
X10402000Y-12776500D02*
X10402000Y-12856500D01*
X10402000Y-12856500D02*
G75*
G03*
X10462000Y-12856500I30000J0D01*
G01*
X8881517Y-7826517D02*
X8881517Y-7773483D01*
X8828483Y-7773483D01*
X8828483Y-7826517D01*
X8881517Y-7826517D01*
X8881517Y-8026517D02*
X8881517Y-7973483D01*
X8828483Y-7973483D01*
X8828483Y-8026517D01*
X8881517Y-8026517D01*
X8881517Y-8226517D02*
X8881517Y-8173483D01*
X8828483Y-8173483D01*
X8828483Y-8226517D01*
X8881517Y-8226517D01*
X8881517Y-8426517D02*
X8881517Y-8373483D01*
X8828483Y-8373483D01*
X8828483Y-8426517D01*
X8881517Y-8426517D01*
X8926517Y-12286517D02*
X8926517Y-12233483D01*
X8873483Y-12233483D01*
X8873483Y-12286517D01*
X8926517Y-12286517D01*
X9126517Y-12286517D02*
X9126517Y-12233483D01*
X9073483Y-12233483D01*
X9073483Y-12286517D01*
X9126517Y-12286517D01*
X9666517Y-7736517D02*
X9666517Y-7683483D01*
X9613483Y-7683483D01*
X9613483Y-7736517D01*
X9666517Y-7736517D01*
X9866517Y-7736517D02*
X9866517Y-7683483D01*
X9813483Y-7683483D01*
X9813483Y-7736517D01*
X9866517Y-7736517D01*
X10066517Y-7736517D02*
X10066517Y-7683483D01*
X10013483Y-7683483D01*
X10013483Y-7736517D01*
X10066517Y-7736517D01*
X10266517Y-7736517D02*
X10266517Y-7683483D01*
X10213483Y-7683483D01*
X10213483Y-7736517D01*
X10266517Y-7736517D01*
X11116201Y-8399700D02*
X11116201Y-8346666D01*
X11063167Y-8346666D01*
X11063167Y-8399700D01*
X11116201Y-8399700D01*
X11316201Y-8399700D02*
X11316201Y-8346666D01*
X11263167Y-8346666D01*
X11263167Y-8399700D01*
X11316201Y-8399700D01*
X11516201Y-8399700D02*
X11516201Y-8346666D01*
X11463167Y-8346666D01*
X11463167Y-8399700D01*
X11516201Y-8399700D01*
X11716201Y-8399700D02*
X11716201Y-8346666D01*
X11663167Y-8346666D01*
X11663167Y-8399700D01*
X11716201Y-8399700D01*
X11916201Y-8399700D02*
X11916201Y-8346666D01*
X11863167Y-8346666D01*
X11863167Y-8399700D01*
X11916201Y-8399700D01*
X12116201Y-8399700D02*
X12116201Y-8346666D01*
X12063167Y-8346666D01*
X12063167Y-8399700D01*
X12116201Y-8399700D01*
X9322500Y-11757500D02*
X9372500Y-11707500D01*
X9322500Y-11657500D01*
X9272500Y-11707500D01*
X9322500Y-11757500D01*
X9573500Y-8286000D02*
X9623500Y-8236000D01*
X9573500Y-8186000D01*
X9523500Y-8236000D01*
X9573500Y-8286000D01*
X9573500Y-8540000D02*
X9623500Y-8490000D01*
X9573500Y-8440000D01*
X9523500Y-8490000D01*
X9573500Y-8540000D01*
X9576500Y-11757500D02*
X9626500Y-11707500D01*
X9576500Y-11657500D01*
X9526500Y-11707500D01*
X9576500Y-11757500D01*
X9827500Y-8286000D02*
X9877500Y-8236000D01*
X9827500Y-8186000D01*
X9777500Y-8236000D01*
X9827500Y-8286000D01*
X9827500Y-8540000D02*
X9877500Y-8490000D01*
X9827500Y-8440000D01*
X9777500Y-8490000D01*
X9827500Y-8540000D01*
X9830500Y-11757500D02*
X9880500Y-11707500D01*
X9830500Y-11657500D01*
X9780500Y-11707500D01*
X9830500Y-11757500D01*
X10081500Y-8286000D02*
X10131500Y-8236000D01*
X10081500Y-8186000D01*
X10031500Y-8236000D01*
X10081500Y-8286000D01*
X10081500Y-8540000D02*
X10131500Y-8490000D01*
X10081500Y-8440000D01*
X10031500Y-8490000D01*
X10081500Y-8540000D01*
X10084500Y-11757500D02*
X10134500Y-11707500D01*
X10084500Y-11657500D01*
X10034500Y-11707500D01*
X10084500Y-11757500D01*
X10335500Y-8286000D02*
X10385500Y-8236000D01*
X10335500Y-8186000D01*
X10285500Y-8236000D01*
X10335500Y-8286000D01*
X10335500Y-8540000D02*
X10385500Y-8490000D01*
X10335500Y-8440000D01*
X10285500Y-8490000D01*
X10335500Y-8540000D01*
X10338500Y-11757500D02*
X10388500Y-11707500D01*
X10338500Y-11657500D01*
X10288500Y-11707500D01*
X10338500Y-11757500D01*
X10592500Y-11757500D02*
X10642500Y-11707500D01*
X10592500Y-11657500D01*
X10542500Y-11707500D01*
X10592500Y-11757500D01*
X10846500Y-11757500D02*
X10896500Y-11707500D01*
X10846500Y-11657500D01*
X10796500Y-11707500D01*
X10846500Y-11757500D01*
X10925000Y-11530000D02*
X10975000Y-11480000D01*
X10925000Y-11430000D01*
X10875000Y-11480000D01*
X10925000Y-11530000D01*
X11179000Y-11530000D02*
X11229000Y-11480000D01*
X11179000Y-11430000D01*
X11129000Y-11480000D01*
X11179000Y-11530000D01*
X11433000Y-11530000D02*
X11483000Y-11480000D01*
X11433000Y-11430000D01*
X11383000Y-11480000D01*
X11433000Y-11530000D01*
X11687000Y-11530000D02*
X11737000Y-11480000D01*
X11687000Y-11430000D01*
X11637000Y-11480000D01*
X11687000Y-11530000D01*
X11941000Y-11530000D02*
X11991000Y-11480000D01*
X11941000Y-11430000D01*
X11891000Y-11480000D01*
X11941000Y-11530000D01*
X12195000Y-11530000D02*
X12245000Y-11480000D01*
X12195000Y-11430000D01*
X12145000Y-11480000D01*
X12195000Y-11530000D01*
D11*
X7258277Y-13313984D02*
X7258277Y-13113984D01*
X7258277Y-13113984D02*
X7305896Y-13113984D01*
X7305896Y-13113984D02*
X7334467Y-13123508D01*
X7334467Y-13123508D02*
X7353515Y-13142555D01*
X7353515Y-13142555D02*
X7363039Y-13161603D01*
X7363039Y-13161603D02*
X7372562Y-13199698D01*
X7372562Y-13199698D02*
X7372562Y-13228269D01*
X7372562Y-13228269D02*
X7363039Y-13266365D01*
X7363039Y-13266365D02*
X7353515Y-13285412D01*
X7353515Y-13285412D02*
X7334467Y-13304460D01*
X7334467Y-13304460D02*
X7305896Y-13313984D01*
X7305896Y-13313984D02*
X7258277Y-13313984D01*
X7458277Y-13313984D02*
X7458277Y-13180650D01*
X7458277Y-13218746D02*
X7467801Y-13199698D01*
X7467801Y-13199698D02*
X7477324Y-13190174D01*
X7477324Y-13190174D02*
X7496372Y-13180650D01*
X7496372Y-13180650D02*
X7515420Y-13180650D01*
X7582086Y-13313984D02*
X7582086Y-13180650D01*
X7582086Y-13113984D02*
X7572562Y-13123508D01*
X7572562Y-13123508D02*
X7582086Y-13133031D01*
X7582086Y-13133031D02*
X7591610Y-13123508D01*
X7591610Y-13123508D02*
X7582086Y-13113984D01*
X7582086Y-13113984D02*
X7582086Y-13133031D01*
X7705896Y-13313984D02*
X7686848Y-13304460D01*
X7686848Y-13304460D02*
X7677324Y-13285412D01*
X7677324Y-13285412D02*
X7677324Y-13113984D01*
X7810658Y-13313984D02*
X7791610Y-13304460D01*
X7791610Y-13304460D02*
X7782086Y-13285412D01*
X7782086Y-13285412D02*
X7782086Y-13113984D01*
X8039229Y-13313984D02*
X8039229Y-13113984D01*
X8039229Y-13113984D02*
X8105896Y-13256841D01*
X8105896Y-13256841D02*
X8172562Y-13113984D01*
X8172562Y-13113984D02*
X8172562Y-13313984D01*
X8353515Y-13313984D02*
X8353515Y-13209222D01*
X8353515Y-13209222D02*
X8343991Y-13190174D01*
X8343991Y-13190174D02*
X8324943Y-13180650D01*
X8324943Y-13180650D02*
X8286848Y-13180650D01*
X8286848Y-13180650D02*
X8267801Y-13190174D01*
X8353515Y-13304460D02*
X8334467Y-13313984D01*
X8334467Y-13313984D02*
X8286848Y-13313984D01*
X8286848Y-13313984D02*
X8267801Y-13304460D01*
X8267801Y-13304460D02*
X8258277Y-13285412D01*
X8258277Y-13285412D02*
X8258277Y-13266365D01*
X8258277Y-13266365D02*
X8267801Y-13247317D01*
X8267801Y-13247317D02*
X8286848Y-13237793D01*
X8286848Y-13237793D02*
X8334467Y-13237793D01*
X8334467Y-13237793D02*
X8353515Y-13228269D01*
X8448753Y-13180650D02*
X8448753Y-13380650D01*
X8448753Y-13190174D02*
X8467801Y-13180650D01*
X8467801Y-13180650D02*
X8505896Y-13180650D01*
X8505896Y-13180650D02*
X8524944Y-13190174D01*
X8524944Y-13190174D02*
X8534467Y-13199698D01*
X8534467Y-13199698D02*
X8543991Y-13218746D01*
X8543991Y-13218746D02*
X8543991Y-13275888D01*
X8543991Y-13275888D02*
X8534467Y-13294936D01*
X8534467Y-13294936D02*
X8524944Y-13304460D01*
X8524944Y-13304460D02*
X8505896Y-13313984D01*
X8505896Y-13313984D02*
X8467801Y-13313984D01*
X8467801Y-13313984D02*
X8448753Y-13304460D01*
X8629705Y-13294936D02*
X8639229Y-13304460D01*
X8639229Y-13304460D02*
X8629705Y-13313984D01*
X8629705Y-13313984D02*
X8620182Y-13304460D01*
X8620182Y-13304460D02*
X8629705Y-13294936D01*
X8629705Y-13294936D02*
X8629705Y-13313984D01*
X8629705Y-13190174D02*
X8639229Y-13199698D01*
X8639229Y-13199698D02*
X8629705Y-13209222D01*
X8629705Y-13209222D02*
X8620182Y-13199698D01*
X8620182Y-13199698D02*
X8629705Y-13190174D01*
X8629705Y-13190174D02*
X8629705Y-13209222D01*
D12*
X6967500Y-13627500D02*
X6997500Y-13657500D01*
X6997500Y-13627500D02*
X6967500Y-13657500D01*
D11*
X7296372Y-13533984D02*
X7315420Y-13533984D01*
X7315420Y-13533984D02*
X7334467Y-13543508D01*
X7334467Y-13543508D02*
X7343991Y-13553031D01*
X7343991Y-13553031D02*
X7353515Y-13572079D01*
X7353515Y-13572079D02*
X7363039Y-13610174D01*
X7363039Y-13610174D02*
X7363039Y-13657793D01*
X7363039Y-13657793D02*
X7353515Y-13695888D01*
X7353515Y-13695888D02*
X7343991Y-13714936D01*
X7343991Y-13714936D02*
X7334467Y-13724460D01*
X7334467Y-13724460D02*
X7315420Y-13733984D01*
X7315420Y-13733984D02*
X7296372Y-13733984D01*
X7296372Y-13733984D02*
X7277324Y-13724460D01*
X7277324Y-13724460D02*
X7267801Y-13714936D01*
X7267801Y-13714936D02*
X7258277Y-13695888D01*
X7258277Y-13695888D02*
X7248753Y-13657793D01*
X7248753Y-13657793D02*
X7248753Y-13610174D01*
X7248753Y-13610174D02*
X7258277Y-13572079D01*
X7258277Y-13572079D02*
X7267801Y-13553031D01*
X7267801Y-13553031D02*
X7277324Y-13543508D01*
X7277324Y-13543508D02*
X7296372Y-13533984D01*
X7448753Y-13714936D02*
X7458277Y-13724460D01*
X7458277Y-13724460D02*
X7448753Y-13733984D01*
X7448753Y-13733984D02*
X7439229Y-13724460D01*
X7439229Y-13724460D02*
X7448753Y-13714936D01*
X7448753Y-13714936D02*
X7448753Y-13733984D01*
X7524943Y-13533984D02*
X7648753Y-13533984D01*
X7648753Y-13533984D02*
X7582086Y-13610174D01*
X7582086Y-13610174D02*
X7610658Y-13610174D01*
X7610658Y-13610174D02*
X7629705Y-13619698D01*
X7629705Y-13619698D02*
X7639229Y-13629222D01*
X7639229Y-13629222D02*
X7648753Y-13648269D01*
X7648753Y-13648269D02*
X7648753Y-13695888D01*
X7648753Y-13695888D02*
X7639229Y-13714936D01*
X7639229Y-13714936D02*
X7629705Y-13724460D01*
X7629705Y-13724460D02*
X7610658Y-13733984D01*
X7610658Y-13733984D02*
X7553515Y-13733984D01*
X7553515Y-13733984D02*
X7534467Y-13724460D01*
X7534467Y-13724460D02*
X7524943Y-13714936D01*
X7772562Y-13533984D02*
X7791610Y-13533984D01*
X7791610Y-13533984D02*
X7810658Y-13543508D01*
X7810658Y-13543508D02*
X7820182Y-13553031D01*
X7820182Y-13553031D02*
X7829705Y-13572079D01*
X7829705Y-13572079D02*
X7839229Y-13610174D01*
X7839229Y-13610174D02*
X7839229Y-13657793D01*
X7839229Y-13657793D02*
X7829705Y-13695888D01*
X7829705Y-13695888D02*
X7820182Y-13714936D01*
X7820182Y-13714936D02*
X7810658Y-13724460D01*
X7810658Y-13724460D02*
X7791610Y-13733984D01*
X7791610Y-13733984D02*
X7772562Y-13733984D01*
X7772562Y-13733984D02*
X7753515Y-13724460D01*
X7753515Y-13724460D02*
X7743991Y-13714936D01*
X7743991Y-13714936D02*
X7734467Y-13695888D01*
X7734467Y-13695888D02*
X7724943Y-13657793D01*
X7724943Y-13657793D02*
X7724943Y-13610174D01*
X7724943Y-13610174D02*
X7734467Y-13572079D01*
X7734467Y-13572079D02*
X7743991Y-13553031D01*
X7743991Y-13553031D02*
X7753515Y-13543508D01*
X7753515Y-13543508D02*
X7772562Y-13533984D01*
X7963039Y-13533984D02*
X7982086Y-13533984D01*
X7982086Y-13533984D02*
X8001134Y-13543508D01*
X8001134Y-13543508D02*
X8010658Y-13553031D01*
X8010658Y-13553031D02*
X8020182Y-13572079D01*
X8020182Y-13572079D02*
X8029705Y-13610174D01*
X8029705Y-13610174D02*
X8029705Y-13657793D01*
X8029705Y-13657793D02*
X8020182Y-13695888D01*
X8020182Y-13695888D02*
X8010658Y-13714936D01*
X8010658Y-13714936D02*
X8001134Y-13724460D01*
X8001134Y-13724460D02*
X7982086Y-13733984D01*
X7982086Y-13733984D02*
X7963039Y-13733984D01*
X7963039Y-13733984D02*
X7943991Y-13724460D01*
X7943991Y-13724460D02*
X7934467Y-13714936D01*
X7934467Y-13714936D02*
X7924943Y-13695888D01*
X7924943Y-13695888D02*
X7915420Y-13657793D01*
X7915420Y-13657793D02*
X7915420Y-13610174D01*
X7915420Y-13610174D02*
X7924943Y-13572079D01*
X7924943Y-13572079D02*
X7934467Y-13553031D01*
X7934467Y-13553031D02*
X7943991Y-13543508D01*
X7943991Y-13543508D02*
X7963039Y-13533984D01*
X8115420Y-13733984D02*
X8115420Y-13600650D01*
X8115420Y-13619698D02*
X8124943Y-13610174D01*
X8124943Y-13610174D02*
X8143991Y-13600650D01*
X8143991Y-13600650D02*
X8172563Y-13600650D01*
X8172563Y-13600650D02*
X8191610Y-13610174D01*
X8191610Y-13610174D02*
X8201134Y-13629222D01*
X8201134Y-13629222D02*
X8201134Y-13733984D01*
X8201134Y-13629222D02*
X8210658Y-13610174D01*
X8210658Y-13610174D02*
X8229705Y-13600650D01*
X8229705Y-13600650D02*
X8258277Y-13600650D01*
X8258277Y-13600650D02*
X8277324Y-13610174D01*
X8277324Y-13610174D02*
X8286848Y-13629222D01*
X8286848Y-13629222D02*
X8286848Y-13733984D01*
X8382086Y-13733984D02*
X8382086Y-13600650D01*
X8382086Y-13619698D02*
X8391610Y-13610174D01*
X8391610Y-13610174D02*
X8410658Y-13600650D01*
X8410658Y-13600650D02*
X8439229Y-13600650D01*
X8439229Y-13600650D02*
X8458277Y-13610174D01*
X8458277Y-13610174D02*
X8467801Y-13629222D01*
X8467801Y-13629222D02*
X8467801Y-13733984D01*
X8467801Y-13629222D02*
X8477325Y-13610174D01*
X8477325Y-13610174D02*
X8496372Y-13600650D01*
X8496372Y-13600650D02*
X8524944Y-13600650D01*
X8524944Y-13600650D02*
X8543991Y-13610174D01*
X8543991Y-13610174D02*
X8553515Y-13629222D01*
X8553515Y-13629222D02*
X8553515Y-13733984D01*
X8943991Y-13524460D02*
X8772563Y-13781603D01*
X9201134Y-13533984D02*
X9220182Y-13533984D01*
X9220182Y-13533984D02*
X9239229Y-13543508D01*
X9239229Y-13543508D02*
X9248753Y-13553031D01*
X9248753Y-13553031D02*
X9258277Y-13572079D01*
X9258277Y-13572079D02*
X9267801Y-13610174D01*
X9267801Y-13610174D02*
X9267801Y-13657793D01*
X9267801Y-13657793D02*
X9258277Y-13695888D01*
X9258277Y-13695888D02*
X9248753Y-13714936D01*
X9248753Y-13714936D02*
X9239229Y-13724460D01*
X9239229Y-13724460D02*
X9220182Y-13733984D01*
X9220182Y-13733984D02*
X9201134Y-13733984D01*
X9201134Y-13733984D02*
X9182087Y-13724460D01*
X9182087Y-13724460D02*
X9172563Y-13714936D01*
X9172563Y-13714936D02*
X9163039Y-13695888D01*
X9163039Y-13695888D02*
X9153515Y-13657793D01*
X9153515Y-13657793D02*
X9153515Y-13610174D01*
X9153515Y-13610174D02*
X9163039Y-13572079D01*
X9163039Y-13572079D02*
X9172563Y-13553031D01*
X9172563Y-13553031D02*
X9182087Y-13543508D01*
X9182087Y-13543508D02*
X9201134Y-13533984D01*
X9353515Y-13714936D02*
X9363039Y-13724460D01*
X9363039Y-13724460D02*
X9353515Y-13733984D01*
X9353515Y-13733984D02*
X9343991Y-13724460D01*
X9343991Y-13724460D02*
X9353515Y-13714936D01*
X9353515Y-13714936D02*
X9353515Y-13733984D01*
X9486848Y-13533984D02*
X9505896Y-13533984D01*
X9505896Y-13533984D02*
X9524944Y-13543508D01*
X9524944Y-13543508D02*
X9534468Y-13553031D01*
X9534468Y-13553031D02*
X9543991Y-13572079D01*
X9543991Y-13572079D02*
X9553515Y-13610174D01*
X9553515Y-13610174D02*
X9553515Y-13657793D01*
X9553515Y-13657793D02*
X9543991Y-13695888D01*
X9543991Y-13695888D02*
X9534468Y-13714936D01*
X9534468Y-13714936D02*
X9524944Y-13724460D01*
X9524944Y-13724460D02*
X9505896Y-13733984D01*
X9505896Y-13733984D02*
X9486848Y-13733984D01*
X9486848Y-13733984D02*
X9467801Y-13724460D01*
X9467801Y-13724460D02*
X9458277Y-13714936D01*
X9458277Y-13714936D02*
X9448753Y-13695888D01*
X9448753Y-13695888D02*
X9439229Y-13657793D01*
X9439229Y-13657793D02*
X9439229Y-13610174D01*
X9439229Y-13610174D02*
X9448753Y-13572079D01*
X9448753Y-13572079D02*
X9458277Y-13553031D01*
X9458277Y-13553031D02*
X9467801Y-13543508D01*
X9467801Y-13543508D02*
X9486848Y-13533984D01*
X9743991Y-13733984D02*
X9629706Y-13733984D01*
X9686848Y-13733984D02*
X9686848Y-13533984D01*
X9686848Y-13533984D02*
X9667801Y-13562555D01*
X9667801Y-13562555D02*
X9648753Y-13581603D01*
X9648753Y-13581603D02*
X9629706Y-13591127D01*
X9934468Y-13733984D02*
X9820182Y-13733984D01*
X9877325Y-13733984D02*
X9877325Y-13533984D01*
X9877325Y-13533984D02*
X9858277Y-13562555D01*
X9858277Y-13562555D02*
X9839229Y-13581603D01*
X9839229Y-13581603D02*
X9820182Y-13591127D01*
X10048753Y-13619698D02*
X10029706Y-13610174D01*
X10029706Y-13610174D02*
X10020182Y-13600650D01*
X10020182Y-13600650D02*
X10010658Y-13581603D01*
X10010658Y-13581603D02*
X10010658Y-13572079D01*
X10010658Y-13572079D02*
X10020182Y-13553031D01*
X10020182Y-13553031D02*
X10029706Y-13543508D01*
X10029706Y-13543508D02*
X10048753Y-13533984D01*
X10048753Y-13533984D02*
X10086849Y-13533984D01*
X10086849Y-13533984D02*
X10105896Y-13543508D01*
X10105896Y-13543508D02*
X10115420Y-13553031D01*
X10115420Y-13553031D02*
X10124944Y-13572079D01*
X10124944Y-13572079D02*
X10124944Y-13581603D01*
X10124944Y-13581603D02*
X10115420Y-13600650D01*
X10115420Y-13600650D02*
X10105896Y-13610174D01*
X10105896Y-13610174D02*
X10086849Y-13619698D01*
X10086849Y-13619698D02*
X10048753Y-13619698D01*
X10048753Y-13619698D02*
X10029706Y-13629222D01*
X10029706Y-13629222D02*
X10020182Y-13638746D01*
X10020182Y-13638746D02*
X10010658Y-13657793D01*
X10010658Y-13657793D02*
X10010658Y-13695888D01*
X10010658Y-13695888D02*
X10020182Y-13714936D01*
X10020182Y-13714936D02*
X10029706Y-13724460D01*
X10029706Y-13724460D02*
X10048753Y-13733984D01*
X10048753Y-13733984D02*
X10086849Y-13733984D01*
X10086849Y-13733984D02*
X10105896Y-13724460D01*
X10105896Y-13724460D02*
X10115420Y-13714936D01*
X10115420Y-13714936D02*
X10124944Y-13695888D01*
X10124944Y-13695888D02*
X10124944Y-13657793D01*
X10124944Y-13657793D02*
X10115420Y-13638746D01*
X10115420Y-13638746D02*
X10105896Y-13629222D01*
X10105896Y-13629222D02*
X10086849Y-13619698D01*
X10201134Y-13533984D02*
X10201134Y-13572079D01*
X10277325Y-13533984D02*
X10277325Y-13572079D01*
X10572563Y-13810174D02*
X10563039Y-13800650D01*
X10563039Y-13800650D02*
X10543991Y-13772079D01*
X10543991Y-13772079D02*
X10534468Y-13753031D01*
X10534468Y-13753031D02*
X10524944Y-13724460D01*
X10524944Y-13724460D02*
X10515420Y-13676841D01*
X10515420Y-13676841D02*
X10515420Y-13638746D01*
X10515420Y-13638746D02*
X10524944Y-13591127D01*
X10524944Y-13591127D02*
X10534468Y-13562555D01*
X10534468Y-13562555D02*
X10543991Y-13543508D01*
X10543991Y-13543508D02*
X10563039Y-13514936D01*
X10563039Y-13514936D02*
X10572563Y-13505412D01*
X10753515Y-13733984D02*
X10639230Y-13733984D01*
X10696372Y-13733984D02*
X10696372Y-13533984D01*
X10696372Y-13533984D02*
X10677325Y-13562555D01*
X10677325Y-13562555D02*
X10658277Y-13581603D01*
X10658277Y-13581603D02*
X10639230Y-13591127D01*
X10877325Y-13533984D02*
X10896372Y-13533984D01*
X10896372Y-13533984D02*
X10915420Y-13543508D01*
X10915420Y-13543508D02*
X10924944Y-13553031D01*
X10924944Y-13553031D02*
X10934468Y-13572079D01*
X10934468Y-13572079D02*
X10943991Y-13610174D01*
X10943991Y-13610174D02*
X10943991Y-13657793D01*
X10943991Y-13657793D02*
X10934468Y-13695888D01*
X10934468Y-13695888D02*
X10924944Y-13714936D01*
X10924944Y-13714936D02*
X10915420Y-13724460D01*
X10915420Y-13724460D02*
X10896372Y-13733984D01*
X10896372Y-13733984D02*
X10877325Y-13733984D01*
X10877325Y-13733984D02*
X10858277Y-13724460D01*
X10858277Y-13724460D02*
X10848753Y-13714936D01*
X10848753Y-13714936D02*
X10839230Y-13695888D01*
X10839230Y-13695888D02*
X10829706Y-13657793D01*
X10829706Y-13657793D02*
X10829706Y-13610174D01*
X10829706Y-13610174D02*
X10839230Y-13572079D01*
X10839230Y-13572079D02*
X10848753Y-13553031D01*
X10848753Y-13553031D02*
X10858277Y-13543508D01*
X10858277Y-13543508D02*
X10877325Y-13533984D01*
X11058277Y-13619698D02*
X11039230Y-13610174D01*
X11039230Y-13610174D02*
X11029706Y-13600650D01*
X11029706Y-13600650D02*
X11020182Y-13581603D01*
X11020182Y-13581603D02*
X11020182Y-13572079D01*
X11020182Y-13572079D02*
X11029706Y-13553031D01*
X11029706Y-13553031D02*
X11039230Y-13543508D01*
X11039230Y-13543508D02*
X11058277Y-13533984D01*
X11058277Y-13533984D02*
X11096372Y-13533984D01*
X11096372Y-13533984D02*
X11115420Y-13543508D01*
X11115420Y-13543508D02*
X11124944Y-13553031D01*
X11124944Y-13553031D02*
X11134468Y-13572079D01*
X11134468Y-13572079D02*
X11134468Y-13581603D01*
X11134468Y-13581603D02*
X11124944Y-13600650D01*
X11124944Y-13600650D02*
X11115420Y-13610174D01*
X11115420Y-13610174D02*
X11096372Y-13619698D01*
X11096372Y-13619698D02*
X11058277Y-13619698D01*
X11058277Y-13619698D02*
X11039230Y-13629222D01*
X11039230Y-13629222D02*
X11029706Y-13638746D01*
X11029706Y-13638746D02*
X11020182Y-13657793D01*
X11020182Y-13657793D02*
X11020182Y-13695888D01*
X11020182Y-13695888D02*
X11029706Y-13714936D01*
X11029706Y-13714936D02*
X11039230Y-13724460D01*
X11039230Y-13724460D02*
X11058277Y-13733984D01*
X11058277Y-13733984D02*
X11096372Y-13733984D01*
X11096372Y-13733984D02*
X11115420Y-13724460D01*
X11115420Y-13724460D02*
X11124944Y-13714936D01*
X11124944Y-13714936D02*
X11134468Y-13695888D01*
X11134468Y-13695888D02*
X11134468Y-13657793D01*
X11134468Y-13657793D02*
X11124944Y-13638746D01*
X11124944Y-13638746D02*
X11115420Y-13629222D01*
X11115420Y-13629222D02*
X11096372Y-13619698D01*
X11372563Y-13733984D02*
X11372563Y-13533984D01*
X11458277Y-13733984D02*
X11458277Y-13629222D01*
X11458277Y-13629222D02*
X11448753Y-13610174D01*
X11448753Y-13610174D02*
X11429706Y-13600650D01*
X11429706Y-13600650D02*
X11401134Y-13600650D01*
X11401134Y-13600650D02*
X11382087Y-13610174D01*
X11382087Y-13610174D02*
X11372563Y-13619698D01*
X11582087Y-13733984D02*
X11563039Y-13724460D01*
X11563039Y-13724460D02*
X11553515Y-13714936D01*
X11553515Y-13714936D02*
X11543991Y-13695888D01*
X11543991Y-13695888D02*
X11543991Y-13638746D01*
X11543991Y-13638746D02*
X11553515Y-13619698D01*
X11553515Y-13619698D02*
X11563039Y-13610174D01*
X11563039Y-13610174D02*
X11582087Y-13600650D01*
X11582087Y-13600650D02*
X11610658Y-13600650D01*
X11610658Y-13600650D02*
X11629706Y-13610174D01*
X11629706Y-13610174D02*
X11639230Y-13619698D01*
X11639230Y-13619698D02*
X11648753Y-13638746D01*
X11648753Y-13638746D02*
X11648753Y-13695888D01*
X11648753Y-13695888D02*
X11639230Y-13714936D01*
X11639230Y-13714936D02*
X11629706Y-13724460D01*
X11629706Y-13724460D02*
X11610658Y-13733984D01*
X11610658Y-13733984D02*
X11582087Y-13733984D01*
X11763039Y-13733984D02*
X11743991Y-13724460D01*
X11743991Y-13724460D02*
X11734468Y-13705412D01*
X11734468Y-13705412D02*
X11734468Y-13533984D01*
X11915420Y-13724460D02*
X11896372Y-13733984D01*
X11896372Y-13733984D02*
X11858277Y-13733984D01*
X11858277Y-13733984D02*
X11839230Y-13724460D01*
X11839230Y-13724460D02*
X11829706Y-13705412D01*
X11829706Y-13705412D02*
X11829706Y-13629222D01*
X11829706Y-13629222D02*
X11839230Y-13610174D01*
X11839230Y-13610174D02*
X11858277Y-13600650D01*
X11858277Y-13600650D02*
X11896372Y-13600650D01*
X11896372Y-13600650D02*
X11915420Y-13610174D01*
X11915420Y-13610174D02*
X11924944Y-13629222D01*
X11924944Y-13629222D02*
X11924944Y-13648269D01*
X11924944Y-13648269D02*
X11829706Y-13667317D01*
X12001134Y-13724460D02*
X12020182Y-13733984D01*
X12020182Y-13733984D02*
X12058277Y-13733984D01*
X12058277Y-13733984D02*
X12077325Y-13724460D01*
X12077325Y-13724460D02*
X12086849Y-13705412D01*
X12086849Y-13705412D02*
X12086849Y-13695888D01*
X12086849Y-13695888D02*
X12077325Y-13676841D01*
X12077325Y-13676841D02*
X12058277Y-13667317D01*
X12058277Y-13667317D02*
X12029706Y-13667317D01*
X12029706Y-13667317D02*
X12010658Y-13657793D01*
X12010658Y-13657793D02*
X12001134Y-13638746D01*
X12001134Y-13638746D02*
X12001134Y-13629222D01*
X12001134Y-13629222D02*
X12010658Y-13610174D01*
X12010658Y-13610174D02*
X12029706Y-13600650D01*
X12029706Y-13600650D02*
X12058277Y-13600650D01*
X12058277Y-13600650D02*
X12077325Y-13610174D01*
X12153515Y-13810174D02*
X12163039Y-13800650D01*
X12163039Y-13800650D02*
X12182087Y-13772079D01*
X12182087Y-13772079D02*
X12191611Y-13753031D01*
X12191611Y-13753031D02*
X12201134Y-13724460D01*
X12201134Y-13724460D02*
X12210658Y-13676841D01*
X12210658Y-13676841D02*
X12210658Y-13638746D01*
X12210658Y-13638746D02*
X12201134Y-13591127D01*
X12201134Y-13591127D02*
X12191611Y-13562555D01*
X12191611Y-13562555D02*
X12182087Y-13543508D01*
X12182087Y-13543508D02*
X12163039Y-13514936D01*
X12163039Y-13514936D02*
X12153515Y-13505412D01*
D12*
X6997500Y-13906500D02*
G75*
G02*
X6967500Y-13906500I-15000J0D01*
G01*
X6967500Y-13906500D02*
G75*
G02*
X6997500Y-13906500I15000J0D01*
G01*
D11*
X7296372Y-13797984D02*
X7315420Y-13797984D01*
X7315420Y-13797984D02*
X7334467Y-13807508D01*
X7334467Y-13807508D02*
X7343991Y-13817031D01*
X7343991Y-13817031D02*
X7353515Y-13836079D01*
X7353515Y-13836079D02*
X7363039Y-13874174D01*
X7363039Y-13874174D02*
X7363039Y-13921793D01*
X7363039Y-13921793D02*
X7353515Y-13959888D01*
X7353515Y-13959888D02*
X7343991Y-13978936D01*
X7343991Y-13978936D02*
X7334467Y-13988460D01*
X7334467Y-13988460D02*
X7315420Y-13997984D01*
X7315420Y-13997984D02*
X7296372Y-13997984D01*
X7296372Y-13997984D02*
X7277324Y-13988460D01*
X7277324Y-13988460D02*
X7267801Y-13978936D01*
X7267801Y-13978936D02*
X7258277Y-13959888D01*
X7258277Y-13959888D02*
X7248753Y-13921793D01*
X7248753Y-13921793D02*
X7248753Y-13874174D01*
X7248753Y-13874174D02*
X7258277Y-13836079D01*
X7258277Y-13836079D02*
X7267801Y-13817031D01*
X7267801Y-13817031D02*
X7277324Y-13807508D01*
X7277324Y-13807508D02*
X7296372Y-13797984D01*
X7448753Y-13978936D02*
X7458277Y-13988460D01*
X7458277Y-13988460D02*
X7448753Y-13997984D01*
X7448753Y-13997984D02*
X7439229Y-13988460D01*
X7439229Y-13988460D02*
X7448753Y-13978936D01*
X7448753Y-13978936D02*
X7448753Y-13997984D01*
X7524943Y-13797984D02*
X7648753Y-13797984D01*
X7648753Y-13797984D02*
X7582086Y-13874174D01*
X7582086Y-13874174D02*
X7610658Y-13874174D01*
X7610658Y-13874174D02*
X7629705Y-13883698D01*
X7629705Y-13883698D02*
X7639229Y-13893222D01*
X7639229Y-13893222D02*
X7648753Y-13912269D01*
X7648753Y-13912269D02*
X7648753Y-13959888D01*
X7648753Y-13959888D02*
X7639229Y-13978936D01*
X7639229Y-13978936D02*
X7629705Y-13988460D01*
X7629705Y-13988460D02*
X7610658Y-13997984D01*
X7610658Y-13997984D02*
X7553515Y-13997984D01*
X7553515Y-13997984D02*
X7534467Y-13988460D01*
X7534467Y-13988460D02*
X7524943Y-13978936D01*
X7772562Y-13797984D02*
X7791610Y-13797984D01*
X7791610Y-13797984D02*
X7810658Y-13807508D01*
X7810658Y-13807508D02*
X7820182Y-13817031D01*
X7820182Y-13817031D02*
X7829705Y-13836079D01*
X7829705Y-13836079D02*
X7839229Y-13874174D01*
X7839229Y-13874174D02*
X7839229Y-13921793D01*
X7839229Y-13921793D02*
X7829705Y-13959888D01*
X7829705Y-13959888D02*
X7820182Y-13978936D01*
X7820182Y-13978936D02*
X7810658Y-13988460D01*
X7810658Y-13988460D02*
X7791610Y-13997984D01*
X7791610Y-13997984D02*
X7772562Y-13997984D01*
X7772562Y-13997984D02*
X7753515Y-13988460D01*
X7753515Y-13988460D02*
X7743991Y-13978936D01*
X7743991Y-13978936D02*
X7734467Y-13959888D01*
X7734467Y-13959888D02*
X7724943Y-13921793D01*
X7724943Y-13921793D02*
X7724943Y-13874174D01*
X7724943Y-13874174D02*
X7734467Y-13836079D01*
X7734467Y-13836079D02*
X7743991Y-13817031D01*
X7743991Y-13817031D02*
X7753515Y-13807508D01*
X7753515Y-13807508D02*
X7772562Y-13797984D01*
X7963039Y-13797984D02*
X7982086Y-13797984D01*
X7982086Y-13797984D02*
X8001134Y-13807508D01*
X8001134Y-13807508D02*
X8010658Y-13817031D01*
X8010658Y-13817031D02*
X8020182Y-13836079D01*
X8020182Y-13836079D02*
X8029705Y-13874174D01*
X8029705Y-13874174D02*
X8029705Y-13921793D01*
X8029705Y-13921793D02*
X8020182Y-13959888D01*
X8020182Y-13959888D02*
X8010658Y-13978936D01*
X8010658Y-13978936D02*
X8001134Y-13988460D01*
X8001134Y-13988460D02*
X7982086Y-13997984D01*
X7982086Y-13997984D02*
X7963039Y-13997984D01*
X7963039Y-13997984D02*
X7943991Y-13988460D01*
X7943991Y-13988460D02*
X7934467Y-13978936D01*
X7934467Y-13978936D02*
X7924943Y-13959888D01*
X7924943Y-13959888D02*
X7915420Y-13921793D01*
X7915420Y-13921793D02*
X7915420Y-13874174D01*
X7915420Y-13874174D02*
X7924943Y-13836079D01*
X7924943Y-13836079D02*
X7934467Y-13817031D01*
X7934467Y-13817031D02*
X7943991Y-13807508D01*
X7943991Y-13807508D02*
X7963039Y-13797984D01*
X8115420Y-13997984D02*
X8115420Y-13864650D01*
X8115420Y-13883698D02*
X8124943Y-13874174D01*
X8124943Y-13874174D02*
X8143991Y-13864650D01*
X8143991Y-13864650D02*
X8172563Y-13864650D01*
X8172563Y-13864650D02*
X8191610Y-13874174D01*
X8191610Y-13874174D02*
X8201134Y-13893222D01*
X8201134Y-13893222D02*
X8201134Y-13997984D01*
X8201134Y-13893222D02*
X8210658Y-13874174D01*
X8210658Y-13874174D02*
X8229705Y-13864650D01*
X8229705Y-13864650D02*
X8258277Y-13864650D01*
X8258277Y-13864650D02*
X8277324Y-13874174D01*
X8277324Y-13874174D02*
X8286848Y-13893222D01*
X8286848Y-13893222D02*
X8286848Y-13997984D01*
X8382086Y-13997984D02*
X8382086Y-13864650D01*
X8382086Y-13883698D02*
X8391610Y-13874174D01*
X8391610Y-13874174D02*
X8410658Y-13864650D01*
X8410658Y-13864650D02*
X8439229Y-13864650D01*
X8439229Y-13864650D02*
X8458277Y-13874174D01*
X8458277Y-13874174D02*
X8467801Y-13893222D01*
X8467801Y-13893222D02*
X8467801Y-13997984D01*
X8467801Y-13893222D02*
X8477325Y-13874174D01*
X8477325Y-13874174D02*
X8496372Y-13864650D01*
X8496372Y-13864650D02*
X8524944Y-13864650D01*
X8524944Y-13864650D02*
X8543991Y-13874174D01*
X8543991Y-13874174D02*
X8553515Y-13893222D01*
X8553515Y-13893222D02*
X8553515Y-13997984D01*
X8943991Y-13788460D02*
X8772563Y-14045603D01*
X9201134Y-13797984D02*
X9220182Y-13797984D01*
X9220182Y-13797984D02*
X9239229Y-13807508D01*
X9239229Y-13807508D02*
X9248753Y-13817031D01*
X9248753Y-13817031D02*
X9258277Y-13836079D01*
X9258277Y-13836079D02*
X9267801Y-13874174D01*
X9267801Y-13874174D02*
X9267801Y-13921793D01*
X9267801Y-13921793D02*
X9258277Y-13959888D01*
X9258277Y-13959888D02*
X9248753Y-13978936D01*
X9248753Y-13978936D02*
X9239229Y-13988460D01*
X9239229Y-13988460D02*
X9220182Y-13997984D01*
X9220182Y-13997984D02*
X9201134Y-13997984D01*
X9201134Y-13997984D02*
X9182087Y-13988460D01*
X9182087Y-13988460D02*
X9172563Y-13978936D01*
X9172563Y-13978936D02*
X9163039Y-13959888D01*
X9163039Y-13959888D02*
X9153515Y-13921793D01*
X9153515Y-13921793D02*
X9153515Y-13874174D01*
X9153515Y-13874174D02*
X9163039Y-13836079D01*
X9163039Y-13836079D02*
X9172563Y-13817031D01*
X9172563Y-13817031D02*
X9182087Y-13807508D01*
X9182087Y-13807508D02*
X9201134Y-13797984D01*
X9353515Y-13978936D02*
X9363039Y-13988460D01*
X9363039Y-13988460D02*
X9353515Y-13997984D01*
X9353515Y-13997984D02*
X9343991Y-13988460D01*
X9343991Y-13988460D02*
X9353515Y-13978936D01*
X9353515Y-13978936D02*
X9353515Y-13997984D01*
X9486848Y-13797984D02*
X9505896Y-13797984D01*
X9505896Y-13797984D02*
X9524944Y-13807508D01*
X9524944Y-13807508D02*
X9534468Y-13817031D01*
X9534468Y-13817031D02*
X9543991Y-13836079D01*
X9543991Y-13836079D02*
X9553515Y-13874174D01*
X9553515Y-13874174D02*
X9553515Y-13921793D01*
X9553515Y-13921793D02*
X9543991Y-13959888D01*
X9543991Y-13959888D02*
X9534468Y-13978936D01*
X9534468Y-13978936D02*
X9524944Y-13988460D01*
X9524944Y-13988460D02*
X9505896Y-13997984D01*
X9505896Y-13997984D02*
X9486848Y-13997984D01*
X9486848Y-13997984D02*
X9467801Y-13988460D01*
X9467801Y-13988460D02*
X9458277Y-13978936D01*
X9458277Y-13978936D02*
X9448753Y-13959888D01*
X9448753Y-13959888D02*
X9439229Y-13921793D01*
X9439229Y-13921793D02*
X9439229Y-13874174D01*
X9439229Y-13874174D02*
X9448753Y-13836079D01*
X9448753Y-13836079D02*
X9458277Y-13817031D01*
X9458277Y-13817031D02*
X9467801Y-13807508D01*
X9467801Y-13807508D02*
X9486848Y-13797984D01*
X9743991Y-13997984D02*
X9629706Y-13997984D01*
X9686848Y-13997984D02*
X9686848Y-13797984D01*
X9686848Y-13797984D02*
X9667801Y-13826555D01*
X9667801Y-13826555D02*
X9648753Y-13845603D01*
X9648753Y-13845603D02*
X9629706Y-13855127D01*
X9934468Y-13997984D02*
X9820182Y-13997984D01*
X9877325Y-13997984D02*
X9877325Y-13797984D01*
X9877325Y-13797984D02*
X9858277Y-13826555D01*
X9858277Y-13826555D02*
X9839229Y-13845603D01*
X9839229Y-13845603D02*
X9820182Y-13855127D01*
X10048753Y-13883698D02*
X10029706Y-13874174D01*
X10029706Y-13874174D02*
X10020182Y-13864650D01*
X10020182Y-13864650D02*
X10010658Y-13845603D01*
X10010658Y-13845603D02*
X10010658Y-13836079D01*
X10010658Y-13836079D02*
X10020182Y-13817031D01*
X10020182Y-13817031D02*
X10029706Y-13807508D01*
X10029706Y-13807508D02*
X10048753Y-13797984D01*
X10048753Y-13797984D02*
X10086849Y-13797984D01*
X10086849Y-13797984D02*
X10105896Y-13807508D01*
X10105896Y-13807508D02*
X10115420Y-13817031D01*
X10115420Y-13817031D02*
X10124944Y-13836079D01*
X10124944Y-13836079D02*
X10124944Y-13845603D01*
X10124944Y-13845603D02*
X10115420Y-13864650D01*
X10115420Y-13864650D02*
X10105896Y-13874174D01*
X10105896Y-13874174D02*
X10086849Y-13883698D01*
X10086849Y-13883698D02*
X10048753Y-13883698D01*
X10048753Y-13883698D02*
X10029706Y-13893222D01*
X10029706Y-13893222D02*
X10020182Y-13902746D01*
X10020182Y-13902746D02*
X10010658Y-13921793D01*
X10010658Y-13921793D02*
X10010658Y-13959888D01*
X10010658Y-13959888D02*
X10020182Y-13978936D01*
X10020182Y-13978936D02*
X10029706Y-13988460D01*
X10029706Y-13988460D02*
X10048753Y-13997984D01*
X10048753Y-13997984D02*
X10086849Y-13997984D01*
X10086849Y-13997984D02*
X10105896Y-13988460D01*
X10105896Y-13988460D02*
X10115420Y-13978936D01*
X10115420Y-13978936D02*
X10124944Y-13959888D01*
X10124944Y-13959888D02*
X10124944Y-13921793D01*
X10124944Y-13921793D02*
X10115420Y-13902746D01*
X10115420Y-13902746D02*
X10105896Y-13893222D01*
X10105896Y-13893222D02*
X10086849Y-13883698D01*
X10201134Y-13797984D02*
X10201134Y-13836079D01*
X10277325Y-13797984D02*
X10277325Y-13836079D01*
X10572563Y-14074174D02*
X10563039Y-14064650D01*
X10563039Y-14064650D02*
X10543991Y-14036079D01*
X10543991Y-14036079D02*
X10534468Y-14017031D01*
X10534468Y-14017031D02*
X10524944Y-13988460D01*
X10524944Y-13988460D02*
X10515420Y-13940841D01*
X10515420Y-13940841D02*
X10515420Y-13902746D01*
X10515420Y-13902746D02*
X10524944Y-13855127D01*
X10524944Y-13855127D02*
X10534468Y-13826555D01*
X10534468Y-13826555D02*
X10543991Y-13807508D01*
X10543991Y-13807508D02*
X10563039Y-13778936D01*
X10563039Y-13778936D02*
X10572563Y-13769412D01*
X10753515Y-13997984D02*
X10639230Y-13997984D01*
X10696372Y-13997984D02*
X10696372Y-13797984D01*
X10696372Y-13797984D02*
X10677325Y-13826555D01*
X10677325Y-13826555D02*
X10658277Y-13845603D01*
X10658277Y-13845603D02*
X10639230Y-13855127D01*
X10829706Y-13817031D02*
X10839230Y-13807508D01*
X10839230Y-13807508D02*
X10858277Y-13797984D01*
X10858277Y-13797984D02*
X10905896Y-13797984D01*
X10905896Y-13797984D02*
X10924944Y-13807508D01*
X10924944Y-13807508D02*
X10934468Y-13817031D01*
X10934468Y-13817031D02*
X10943991Y-13836079D01*
X10943991Y-13836079D02*
X10943991Y-13855127D01*
X10943991Y-13855127D02*
X10934468Y-13883698D01*
X10934468Y-13883698D02*
X10820182Y-13997984D01*
X10820182Y-13997984D02*
X10943991Y-13997984D01*
X11182087Y-13997984D02*
X11182087Y-13797984D01*
X11267801Y-13997984D02*
X11267801Y-13893222D01*
X11267801Y-13893222D02*
X11258277Y-13874174D01*
X11258277Y-13874174D02*
X11239230Y-13864650D01*
X11239230Y-13864650D02*
X11210658Y-13864650D01*
X11210658Y-13864650D02*
X11191610Y-13874174D01*
X11191610Y-13874174D02*
X11182087Y-13883698D01*
X11391610Y-13997984D02*
X11372563Y-13988460D01*
X11372563Y-13988460D02*
X11363039Y-13978936D01*
X11363039Y-13978936D02*
X11353515Y-13959888D01*
X11353515Y-13959888D02*
X11353515Y-13902746D01*
X11353515Y-13902746D02*
X11363039Y-13883698D01*
X11363039Y-13883698D02*
X11372563Y-13874174D01*
X11372563Y-13874174D02*
X11391610Y-13864650D01*
X11391610Y-13864650D02*
X11420182Y-13864650D01*
X11420182Y-13864650D02*
X11439230Y-13874174D01*
X11439230Y-13874174D02*
X11448753Y-13883698D01*
X11448753Y-13883698D02*
X11458277Y-13902746D01*
X11458277Y-13902746D02*
X11458277Y-13959888D01*
X11458277Y-13959888D02*
X11448753Y-13978936D01*
X11448753Y-13978936D02*
X11439230Y-13988460D01*
X11439230Y-13988460D02*
X11420182Y-13997984D01*
X11420182Y-13997984D02*
X11391610Y-13997984D01*
X11572563Y-13997984D02*
X11553515Y-13988460D01*
X11553515Y-13988460D02*
X11543991Y-13969412D01*
X11543991Y-13969412D02*
X11543991Y-13797984D01*
X11724944Y-13988460D02*
X11705896Y-13997984D01*
X11705896Y-13997984D02*
X11667801Y-13997984D01*
X11667801Y-13997984D02*
X11648753Y-13988460D01*
X11648753Y-13988460D02*
X11639230Y-13969412D01*
X11639230Y-13969412D02*
X11639230Y-13893222D01*
X11639230Y-13893222D02*
X11648753Y-13874174D01*
X11648753Y-13874174D02*
X11667801Y-13864650D01*
X11667801Y-13864650D02*
X11705896Y-13864650D01*
X11705896Y-13864650D02*
X11724944Y-13874174D01*
X11724944Y-13874174D02*
X11734468Y-13893222D01*
X11734468Y-13893222D02*
X11734468Y-13912269D01*
X11734468Y-13912269D02*
X11639230Y-13931317D01*
X11810658Y-13988460D02*
X11829706Y-13997984D01*
X11829706Y-13997984D02*
X11867801Y-13997984D01*
X11867801Y-13997984D02*
X11886849Y-13988460D01*
X11886849Y-13988460D02*
X11896372Y-13969412D01*
X11896372Y-13969412D02*
X11896372Y-13959888D01*
X11896372Y-13959888D02*
X11886849Y-13940841D01*
X11886849Y-13940841D02*
X11867801Y-13931317D01*
X11867801Y-13931317D02*
X11839230Y-13931317D01*
X11839230Y-13931317D02*
X11820182Y-13921793D01*
X11820182Y-13921793D02*
X11810658Y-13902746D01*
X11810658Y-13902746D02*
X11810658Y-13893222D01*
X11810658Y-13893222D02*
X11820182Y-13874174D01*
X11820182Y-13874174D02*
X11839230Y-13864650D01*
X11839230Y-13864650D02*
X11867801Y-13864650D01*
X11867801Y-13864650D02*
X11886849Y-13874174D01*
X11963039Y-14074174D02*
X11972563Y-14064650D01*
X11972563Y-14064650D02*
X11991611Y-14036079D01*
X11991611Y-14036079D02*
X12001134Y-14017031D01*
X12001134Y-14017031D02*
X12010658Y-13988460D01*
X12010658Y-13988460D02*
X12020182Y-13940841D01*
X12020182Y-13940841D02*
X12020182Y-13902746D01*
X12020182Y-13902746D02*
X12010658Y-13855127D01*
X12010658Y-13855127D02*
X12001134Y-13826555D01*
X12001134Y-13826555D02*
X11991611Y-13807508D01*
X11991611Y-13807508D02*
X11972563Y-13778936D01*
X11972563Y-13778936D02*
X11963039Y-13769412D01*
D12*
X6967500Y-14140500D02*
X6967500Y-14200500D01*
X6937500Y-14170500D02*
X6997500Y-14170500D01*
D11*
X7296372Y-14061984D02*
X7315420Y-14061984D01*
X7315420Y-14061984D02*
X7334467Y-14071508D01*
X7334467Y-14071508D02*
X7343991Y-14081031D01*
X7343991Y-14081031D02*
X7353515Y-14100079D01*
X7353515Y-14100079D02*
X7363039Y-14138174D01*
X7363039Y-14138174D02*
X7363039Y-14185793D01*
X7363039Y-14185793D02*
X7353515Y-14223888D01*
X7353515Y-14223888D02*
X7343991Y-14242936D01*
X7343991Y-14242936D02*
X7334467Y-14252460D01*
X7334467Y-14252460D02*
X7315420Y-14261984D01*
X7315420Y-14261984D02*
X7296372Y-14261984D01*
X7296372Y-14261984D02*
X7277324Y-14252460D01*
X7277324Y-14252460D02*
X7267801Y-14242936D01*
X7267801Y-14242936D02*
X7258277Y-14223888D01*
X7258277Y-14223888D02*
X7248753Y-14185793D01*
X7248753Y-14185793D02*
X7248753Y-14138174D01*
X7248753Y-14138174D02*
X7258277Y-14100079D01*
X7258277Y-14100079D02*
X7267801Y-14081031D01*
X7267801Y-14081031D02*
X7277324Y-14071508D01*
X7277324Y-14071508D02*
X7296372Y-14061984D01*
X7448753Y-14242936D02*
X7458277Y-14252460D01*
X7458277Y-14252460D02*
X7448753Y-14261984D01*
X7448753Y-14261984D02*
X7439229Y-14252460D01*
X7439229Y-14252460D02*
X7448753Y-14242936D01*
X7448753Y-14242936D02*
X7448753Y-14261984D01*
X7629705Y-14061984D02*
X7591610Y-14061984D01*
X7591610Y-14061984D02*
X7572562Y-14071508D01*
X7572562Y-14071508D02*
X7563039Y-14081031D01*
X7563039Y-14081031D02*
X7543991Y-14109603D01*
X7543991Y-14109603D02*
X7534467Y-14147698D01*
X7534467Y-14147698D02*
X7534467Y-14223888D01*
X7534467Y-14223888D02*
X7543991Y-14242936D01*
X7543991Y-14242936D02*
X7553515Y-14252460D01*
X7553515Y-14252460D02*
X7572562Y-14261984D01*
X7572562Y-14261984D02*
X7610658Y-14261984D01*
X7610658Y-14261984D02*
X7629705Y-14252460D01*
X7629705Y-14252460D02*
X7639229Y-14242936D01*
X7639229Y-14242936D02*
X7648753Y-14223888D01*
X7648753Y-14223888D02*
X7648753Y-14176269D01*
X7648753Y-14176269D02*
X7639229Y-14157222D01*
X7639229Y-14157222D02*
X7629705Y-14147698D01*
X7629705Y-14147698D02*
X7610658Y-14138174D01*
X7610658Y-14138174D02*
X7572562Y-14138174D01*
X7572562Y-14138174D02*
X7553515Y-14147698D01*
X7553515Y-14147698D02*
X7543991Y-14157222D01*
X7543991Y-14157222D02*
X7534467Y-14176269D01*
X7772562Y-14061984D02*
X7791610Y-14061984D01*
X7791610Y-14061984D02*
X7810658Y-14071508D01*
X7810658Y-14071508D02*
X7820182Y-14081031D01*
X7820182Y-14081031D02*
X7829705Y-14100079D01*
X7829705Y-14100079D02*
X7839229Y-14138174D01*
X7839229Y-14138174D02*
X7839229Y-14185793D01*
X7839229Y-14185793D02*
X7829705Y-14223888D01*
X7829705Y-14223888D02*
X7820182Y-14242936D01*
X7820182Y-14242936D02*
X7810658Y-14252460D01*
X7810658Y-14252460D02*
X7791610Y-14261984D01*
X7791610Y-14261984D02*
X7772562Y-14261984D01*
X7772562Y-14261984D02*
X7753515Y-14252460D01*
X7753515Y-14252460D02*
X7743991Y-14242936D01*
X7743991Y-14242936D02*
X7734467Y-14223888D01*
X7734467Y-14223888D02*
X7724943Y-14185793D01*
X7724943Y-14185793D02*
X7724943Y-14138174D01*
X7724943Y-14138174D02*
X7734467Y-14100079D01*
X7734467Y-14100079D02*
X7743991Y-14081031D01*
X7743991Y-14081031D02*
X7753515Y-14071508D01*
X7753515Y-14071508D02*
X7772562Y-14061984D01*
X7963039Y-14061984D02*
X7982086Y-14061984D01*
X7982086Y-14061984D02*
X8001134Y-14071508D01*
X8001134Y-14071508D02*
X8010658Y-14081031D01*
X8010658Y-14081031D02*
X8020182Y-14100079D01*
X8020182Y-14100079D02*
X8029705Y-14138174D01*
X8029705Y-14138174D02*
X8029705Y-14185793D01*
X8029705Y-14185793D02*
X8020182Y-14223888D01*
X8020182Y-14223888D02*
X8010658Y-14242936D01*
X8010658Y-14242936D02*
X8001134Y-14252460D01*
X8001134Y-14252460D02*
X7982086Y-14261984D01*
X7982086Y-14261984D02*
X7963039Y-14261984D01*
X7963039Y-14261984D02*
X7943991Y-14252460D01*
X7943991Y-14252460D02*
X7934467Y-14242936D01*
X7934467Y-14242936D02*
X7924943Y-14223888D01*
X7924943Y-14223888D02*
X7915420Y-14185793D01*
X7915420Y-14185793D02*
X7915420Y-14138174D01*
X7915420Y-14138174D02*
X7924943Y-14100079D01*
X7924943Y-14100079D02*
X7934467Y-14081031D01*
X7934467Y-14081031D02*
X7943991Y-14071508D01*
X7943991Y-14071508D02*
X7963039Y-14061984D01*
X8115420Y-14261984D02*
X8115420Y-14128650D01*
X8115420Y-14147698D02*
X8124943Y-14138174D01*
X8124943Y-14138174D02*
X8143991Y-14128650D01*
X8143991Y-14128650D02*
X8172563Y-14128650D01*
X8172563Y-14128650D02*
X8191610Y-14138174D01*
X8191610Y-14138174D02*
X8201134Y-14157222D01*
X8201134Y-14157222D02*
X8201134Y-14261984D01*
X8201134Y-14157222D02*
X8210658Y-14138174D01*
X8210658Y-14138174D02*
X8229705Y-14128650D01*
X8229705Y-14128650D02*
X8258277Y-14128650D01*
X8258277Y-14128650D02*
X8277324Y-14138174D01*
X8277324Y-14138174D02*
X8286848Y-14157222D01*
X8286848Y-14157222D02*
X8286848Y-14261984D01*
X8382086Y-14261984D02*
X8382086Y-14128650D01*
X8382086Y-14147698D02*
X8391610Y-14138174D01*
X8391610Y-14138174D02*
X8410658Y-14128650D01*
X8410658Y-14128650D02*
X8439229Y-14128650D01*
X8439229Y-14128650D02*
X8458277Y-14138174D01*
X8458277Y-14138174D02*
X8467801Y-14157222D01*
X8467801Y-14157222D02*
X8467801Y-14261984D01*
X8467801Y-14157222D02*
X8477325Y-14138174D01*
X8477325Y-14138174D02*
X8496372Y-14128650D01*
X8496372Y-14128650D02*
X8524944Y-14128650D01*
X8524944Y-14128650D02*
X8543991Y-14138174D01*
X8543991Y-14138174D02*
X8553515Y-14157222D01*
X8553515Y-14157222D02*
X8553515Y-14261984D01*
X8943991Y-14052460D02*
X8772563Y-14309603D01*
X9201134Y-14061984D02*
X9220182Y-14061984D01*
X9220182Y-14061984D02*
X9239229Y-14071508D01*
X9239229Y-14071508D02*
X9248753Y-14081031D01*
X9248753Y-14081031D02*
X9258277Y-14100079D01*
X9258277Y-14100079D02*
X9267801Y-14138174D01*
X9267801Y-14138174D02*
X9267801Y-14185793D01*
X9267801Y-14185793D02*
X9258277Y-14223888D01*
X9258277Y-14223888D02*
X9248753Y-14242936D01*
X9248753Y-14242936D02*
X9239229Y-14252460D01*
X9239229Y-14252460D02*
X9220182Y-14261984D01*
X9220182Y-14261984D02*
X9201134Y-14261984D01*
X9201134Y-14261984D02*
X9182087Y-14252460D01*
X9182087Y-14252460D02*
X9172563Y-14242936D01*
X9172563Y-14242936D02*
X9163039Y-14223888D01*
X9163039Y-14223888D02*
X9153515Y-14185793D01*
X9153515Y-14185793D02*
X9153515Y-14138174D01*
X9153515Y-14138174D02*
X9163039Y-14100079D01*
X9163039Y-14100079D02*
X9172563Y-14081031D01*
X9172563Y-14081031D02*
X9182087Y-14071508D01*
X9182087Y-14071508D02*
X9201134Y-14061984D01*
X9353515Y-14242936D02*
X9363039Y-14252460D01*
X9363039Y-14252460D02*
X9353515Y-14261984D01*
X9353515Y-14261984D02*
X9343991Y-14252460D01*
X9343991Y-14252460D02*
X9353515Y-14242936D01*
X9353515Y-14242936D02*
X9353515Y-14261984D01*
X9486848Y-14061984D02*
X9505896Y-14061984D01*
X9505896Y-14061984D02*
X9524944Y-14071508D01*
X9524944Y-14071508D02*
X9534468Y-14081031D01*
X9534468Y-14081031D02*
X9543991Y-14100079D01*
X9543991Y-14100079D02*
X9553515Y-14138174D01*
X9553515Y-14138174D02*
X9553515Y-14185793D01*
X9553515Y-14185793D02*
X9543991Y-14223888D01*
X9543991Y-14223888D02*
X9534468Y-14242936D01*
X9534468Y-14242936D02*
X9524944Y-14252460D01*
X9524944Y-14252460D02*
X9505896Y-14261984D01*
X9505896Y-14261984D02*
X9486848Y-14261984D01*
X9486848Y-14261984D02*
X9467801Y-14252460D01*
X9467801Y-14252460D02*
X9458277Y-14242936D01*
X9458277Y-14242936D02*
X9448753Y-14223888D01*
X9448753Y-14223888D02*
X9439229Y-14185793D01*
X9439229Y-14185793D02*
X9439229Y-14138174D01*
X9439229Y-14138174D02*
X9448753Y-14100079D01*
X9448753Y-14100079D02*
X9458277Y-14081031D01*
X9458277Y-14081031D02*
X9467801Y-14071508D01*
X9467801Y-14071508D02*
X9486848Y-14061984D01*
X9629706Y-14081031D02*
X9639229Y-14071508D01*
X9639229Y-14071508D02*
X9658277Y-14061984D01*
X9658277Y-14061984D02*
X9705896Y-14061984D01*
X9705896Y-14061984D02*
X9724944Y-14071508D01*
X9724944Y-14071508D02*
X9734468Y-14081031D01*
X9734468Y-14081031D02*
X9743991Y-14100079D01*
X9743991Y-14100079D02*
X9743991Y-14119127D01*
X9743991Y-14119127D02*
X9734468Y-14147698D01*
X9734468Y-14147698D02*
X9620182Y-14261984D01*
X9620182Y-14261984D02*
X9743991Y-14261984D01*
X9810658Y-14061984D02*
X9934468Y-14061984D01*
X9934468Y-14061984D02*
X9867801Y-14138174D01*
X9867801Y-14138174D02*
X9896372Y-14138174D01*
X9896372Y-14138174D02*
X9915420Y-14147698D01*
X9915420Y-14147698D02*
X9924944Y-14157222D01*
X9924944Y-14157222D02*
X9934468Y-14176269D01*
X9934468Y-14176269D02*
X9934468Y-14223888D01*
X9934468Y-14223888D02*
X9924944Y-14242936D01*
X9924944Y-14242936D02*
X9915420Y-14252460D01*
X9915420Y-14252460D02*
X9896372Y-14261984D01*
X9896372Y-14261984D02*
X9839229Y-14261984D01*
X9839229Y-14261984D02*
X9820182Y-14252460D01*
X9820182Y-14252460D02*
X9810658Y-14242936D01*
X10105896Y-14061984D02*
X10067801Y-14061984D01*
X10067801Y-14061984D02*
X10048753Y-14071508D01*
X10048753Y-14071508D02*
X10039229Y-14081031D01*
X10039229Y-14081031D02*
X10020182Y-14109603D01*
X10020182Y-14109603D02*
X10010658Y-14147698D01*
X10010658Y-14147698D02*
X10010658Y-14223888D01*
X10010658Y-14223888D02*
X10020182Y-14242936D01*
X10020182Y-14242936D02*
X10029706Y-14252460D01*
X10029706Y-14252460D02*
X10048753Y-14261984D01*
X10048753Y-14261984D02*
X10086849Y-14261984D01*
X10086849Y-14261984D02*
X10105896Y-14252460D01*
X10105896Y-14252460D02*
X10115420Y-14242936D01*
X10115420Y-14242936D02*
X10124944Y-14223888D01*
X10124944Y-14223888D02*
X10124944Y-14176269D01*
X10124944Y-14176269D02*
X10115420Y-14157222D01*
X10115420Y-14157222D02*
X10105896Y-14147698D01*
X10105896Y-14147698D02*
X10086849Y-14138174D01*
X10086849Y-14138174D02*
X10048753Y-14138174D01*
X10048753Y-14138174D02*
X10029706Y-14147698D01*
X10029706Y-14147698D02*
X10020182Y-14157222D01*
X10020182Y-14157222D02*
X10010658Y-14176269D01*
X10201134Y-14061984D02*
X10201134Y-14100079D01*
X10277325Y-14061984D02*
X10277325Y-14100079D01*
X10572563Y-14338174D02*
X10563039Y-14328650D01*
X10563039Y-14328650D02*
X10543991Y-14300079D01*
X10543991Y-14300079D02*
X10534468Y-14281031D01*
X10534468Y-14281031D02*
X10524944Y-14252460D01*
X10524944Y-14252460D02*
X10515420Y-14204841D01*
X10515420Y-14204841D02*
X10515420Y-14166746D01*
X10515420Y-14166746D02*
X10524944Y-14119127D01*
X10524944Y-14119127D02*
X10534468Y-14090555D01*
X10534468Y-14090555D02*
X10543991Y-14071508D01*
X10543991Y-14071508D02*
X10563039Y-14042936D01*
X10563039Y-14042936D02*
X10572563Y-14033412D01*
X10686849Y-14061984D02*
X10705896Y-14061984D01*
X10705896Y-14061984D02*
X10724944Y-14071508D01*
X10724944Y-14071508D02*
X10734468Y-14081031D01*
X10734468Y-14081031D02*
X10743991Y-14100079D01*
X10743991Y-14100079D02*
X10753515Y-14138174D01*
X10753515Y-14138174D02*
X10753515Y-14185793D01*
X10753515Y-14185793D02*
X10743991Y-14223888D01*
X10743991Y-14223888D02*
X10734468Y-14242936D01*
X10734468Y-14242936D02*
X10724944Y-14252460D01*
X10724944Y-14252460D02*
X10705896Y-14261984D01*
X10705896Y-14261984D02*
X10686849Y-14261984D01*
X10686849Y-14261984D02*
X10667801Y-14252460D01*
X10667801Y-14252460D02*
X10658277Y-14242936D01*
X10658277Y-14242936D02*
X10648753Y-14223888D01*
X10648753Y-14223888D02*
X10639230Y-14185793D01*
X10639230Y-14185793D02*
X10639230Y-14138174D01*
X10639230Y-14138174D02*
X10648753Y-14100079D01*
X10648753Y-14100079D02*
X10658277Y-14081031D01*
X10658277Y-14081031D02*
X10667801Y-14071508D01*
X10667801Y-14071508D02*
X10686849Y-14061984D01*
X10991611Y-14261984D02*
X10991611Y-14061984D01*
X11077325Y-14261984D02*
X11077325Y-14157222D01*
X11077325Y-14157222D02*
X11067801Y-14138174D01*
X11067801Y-14138174D02*
X11048753Y-14128650D01*
X11048753Y-14128650D02*
X11020182Y-14128650D01*
X11020182Y-14128650D02*
X11001134Y-14138174D01*
X11001134Y-14138174D02*
X10991611Y-14147698D01*
X11201134Y-14261984D02*
X11182087Y-14252460D01*
X11182087Y-14252460D02*
X11172563Y-14242936D01*
X11172563Y-14242936D02*
X11163039Y-14223888D01*
X11163039Y-14223888D02*
X11163039Y-14166746D01*
X11163039Y-14166746D02*
X11172563Y-14147698D01*
X11172563Y-14147698D02*
X11182087Y-14138174D01*
X11182087Y-14138174D02*
X11201134Y-14128650D01*
X11201134Y-14128650D02*
X11229706Y-14128650D01*
X11229706Y-14128650D02*
X11248753Y-14138174D01*
X11248753Y-14138174D02*
X11258277Y-14147698D01*
X11258277Y-14147698D02*
X11267801Y-14166746D01*
X11267801Y-14166746D02*
X11267801Y-14223888D01*
X11267801Y-14223888D02*
X11258277Y-14242936D01*
X11258277Y-14242936D02*
X11248753Y-14252460D01*
X11248753Y-14252460D02*
X11229706Y-14261984D01*
X11229706Y-14261984D02*
X11201134Y-14261984D01*
X11382087Y-14261984D02*
X11363039Y-14252460D01*
X11363039Y-14252460D02*
X11353515Y-14233412D01*
X11353515Y-14233412D02*
X11353515Y-14061984D01*
X11534468Y-14252460D02*
X11515420Y-14261984D01*
X11515420Y-14261984D02*
X11477325Y-14261984D01*
X11477325Y-14261984D02*
X11458277Y-14252460D01*
X11458277Y-14252460D02*
X11448753Y-14233412D01*
X11448753Y-14233412D02*
X11448753Y-14157222D01*
X11448753Y-14157222D02*
X11458277Y-14138174D01*
X11458277Y-14138174D02*
X11477325Y-14128650D01*
X11477325Y-14128650D02*
X11515420Y-14128650D01*
X11515420Y-14128650D02*
X11534468Y-14138174D01*
X11534468Y-14138174D02*
X11543991Y-14157222D01*
X11543991Y-14157222D02*
X11543991Y-14176269D01*
X11543991Y-14176269D02*
X11448753Y-14195317D01*
X11620182Y-14252460D02*
X11639230Y-14261984D01*
X11639230Y-14261984D02*
X11677325Y-14261984D01*
X11677325Y-14261984D02*
X11696372Y-14252460D01*
X11696372Y-14252460D02*
X11705896Y-14233412D01*
X11705896Y-14233412D02*
X11705896Y-14223888D01*
X11705896Y-14223888D02*
X11696372Y-14204841D01*
X11696372Y-14204841D02*
X11677325Y-14195317D01*
X11677325Y-14195317D02*
X11648753Y-14195317D01*
X11648753Y-14195317D02*
X11629706Y-14185793D01*
X11629706Y-14185793D02*
X11620182Y-14166746D01*
X11620182Y-14166746D02*
X11620182Y-14157222D01*
X11620182Y-14157222D02*
X11629706Y-14138174D01*
X11629706Y-14138174D02*
X11648753Y-14128650D01*
X11648753Y-14128650D02*
X11677325Y-14128650D01*
X11677325Y-14128650D02*
X11696372Y-14138174D01*
X11943992Y-14185793D02*
X12096373Y-14185793D01*
X12020182Y-14261984D02*
X12020182Y-14109603D01*
X12429706Y-14128650D02*
X12429706Y-14261984D01*
X12382087Y-14052460D02*
X12334468Y-14195317D01*
X12334468Y-14195317D02*
X12458277Y-14195317D01*
X12677325Y-14252460D02*
X12696373Y-14261984D01*
X12696373Y-14261984D02*
X12734468Y-14261984D01*
X12734468Y-14261984D02*
X12753515Y-14252460D01*
X12753515Y-14252460D02*
X12763039Y-14233412D01*
X12763039Y-14233412D02*
X12763039Y-14223888D01*
X12763039Y-14223888D02*
X12753515Y-14204841D01*
X12753515Y-14204841D02*
X12734468Y-14195317D01*
X12734468Y-14195317D02*
X12705896Y-14195317D01*
X12705896Y-14195317D02*
X12686849Y-14185793D01*
X12686849Y-14185793D02*
X12677325Y-14166746D01*
X12677325Y-14166746D02*
X12677325Y-14157222D01*
X12677325Y-14157222D02*
X12686849Y-14138174D01*
X12686849Y-14138174D02*
X12705896Y-14128650D01*
X12705896Y-14128650D02*
X12734468Y-14128650D01*
X12734468Y-14128650D02*
X12753515Y-14138174D01*
X12877325Y-14261984D02*
X12858277Y-14252460D01*
X12858277Y-14252460D02*
X12848754Y-14233412D01*
X12848754Y-14233412D02*
X12848754Y-14061984D01*
X12982087Y-14261984D02*
X12963039Y-14252460D01*
X12963039Y-14252460D02*
X12953515Y-14242936D01*
X12953515Y-14242936D02*
X12943992Y-14223888D01*
X12943992Y-14223888D02*
X12943992Y-14166746D01*
X12943992Y-14166746D02*
X12953515Y-14147698D01*
X12953515Y-14147698D02*
X12963039Y-14138174D01*
X12963039Y-14138174D02*
X12982087Y-14128650D01*
X12982087Y-14128650D02*
X13010658Y-14128650D01*
X13010658Y-14128650D02*
X13029706Y-14138174D01*
X13029706Y-14138174D02*
X13039230Y-14147698D01*
X13039230Y-14147698D02*
X13048754Y-14166746D01*
X13048754Y-14166746D02*
X13048754Y-14223888D01*
X13048754Y-14223888D02*
X13039230Y-14242936D01*
X13039230Y-14242936D02*
X13029706Y-14252460D01*
X13029706Y-14252460D02*
X13010658Y-14261984D01*
X13010658Y-14261984D02*
X12982087Y-14261984D01*
X13105896Y-14128650D02*
X13182087Y-14128650D01*
X13134468Y-14061984D02*
X13134468Y-14233412D01*
X13134468Y-14233412D02*
X13143992Y-14252460D01*
X13143992Y-14252460D02*
X13163039Y-14261984D01*
X13163039Y-14261984D02*
X13182087Y-14261984D01*
X13239230Y-14252460D02*
X13258277Y-14261984D01*
X13258277Y-14261984D02*
X13296373Y-14261984D01*
X13296373Y-14261984D02*
X13315420Y-14252460D01*
X13315420Y-14252460D02*
X13324944Y-14233412D01*
X13324944Y-14233412D02*
X13324944Y-14223888D01*
X13324944Y-14223888D02*
X13315420Y-14204841D01*
X13315420Y-14204841D02*
X13296373Y-14195317D01*
X13296373Y-14195317D02*
X13267801Y-14195317D01*
X13267801Y-14195317D02*
X13248754Y-14185793D01*
X13248754Y-14185793D02*
X13239230Y-14166746D01*
X13239230Y-14166746D02*
X13239230Y-14157222D01*
X13239230Y-14157222D02*
X13248754Y-14138174D01*
X13248754Y-14138174D02*
X13267801Y-14128650D01*
X13267801Y-14128650D02*
X13296373Y-14128650D01*
X13296373Y-14128650D02*
X13315420Y-14138174D01*
X13391611Y-14338174D02*
X13401135Y-14328650D01*
X13401135Y-14328650D02*
X13420182Y-14300079D01*
X13420182Y-14300079D02*
X13429706Y-14281031D01*
X13429706Y-14281031D02*
X13439230Y-14252460D01*
X13439230Y-14252460D02*
X13448754Y-14204841D01*
X13448754Y-14204841D02*
X13448754Y-14166746D01*
X13448754Y-14166746D02*
X13439230Y-14119127D01*
X13439230Y-14119127D02*
X13429706Y-14090555D01*
X13429706Y-14090555D02*
X13420182Y-14071508D01*
X13420182Y-14071508D02*
X13401135Y-14042936D01*
X13401135Y-14042936D02*
X13391611Y-14033412D01*
D12*
X6986517Y-14461017D02*
X6986517Y-14407983D01*
X6933483Y-14407983D01*
X6933483Y-14461017D01*
X6986517Y-14461017D01*
D11*
X7296372Y-14325984D02*
X7315420Y-14325984D01*
X7315420Y-14325984D02*
X7334467Y-14335508D01*
X7334467Y-14335508D02*
X7343991Y-14345031D01*
X7343991Y-14345031D02*
X7353515Y-14364079D01*
X7353515Y-14364079D02*
X7363039Y-14402174D01*
X7363039Y-14402174D02*
X7363039Y-14449793D01*
X7363039Y-14449793D02*
X7353515Y-14487888D01*
X7353515Y-14487888D02*
X7343991Y-14506936D01*
X7343991Y-14506936D02*
X7334467Y-14516460D01*
X7334467Y-14516460D02*
X7315420Y-14525984D01*
X7315420Y-14525984D02*
X7296372Y-14525984D01*
X7296372Y-14525984D02*
X7277324Y-14516460D01*
X7277324Y-14516460D02*
X7267801Y-14506936D01*
X7267801Y-14506936D02*
X7258277Y-14487888D01*
X7258277Y-14487888D02*
X7248753Y-14449793D01*
X7248753Y-14449793D02*
X7248753Y-14402174D01*
X7248753Y-14402174D02*
X7258277Y-14364079D01*
X7258277Y-14364079D02*
X7267801Y-14345031D01*
X7267801Y-14345031D02*
X7277324Y-14335508D01*
X7277324Y-14335508D02*
X7296372Y-14325984D01*
X7448753Y-14506936D02*
X7458277Y-14516460D01*
X7458277Y-14516460D02*
X7448753Y-14525984D01*
X7448753Y-14525984D02*
X7439229Y-14516460D01*
X7439229Y-14516460D02*
X7448753Y-14506936D01*
X7448753Y-14506936D02*
X7448753Y-14525984D01*
X7524943Y-14325984D02*
X7658277Y-14325984D01*
X7658277Y-14325984D02*
X7572562Y-14525984D01*
X7829705Y-14325984D02*
X7734467Y-14325984D01*
X7734467Y-14325984D02*
X7724943Y-14421222D01*
X7724943Y-14421222D02*
X7734467Y-14411698D01*
X7734467Y-14411698D02*
X7753515Y-14402174D01*
X7753515Y-14402174D02*
X7801134Y-14402174D01*
X7801134Y-14402174D02*
X7820182Y-14411698D01*
X7820182Y-14411698D02*
X7829705Y-14421222D01*
X7829705Y-14421222D02*
X7839229Y-14440269D01*
X7839229Y-14440269D02*
X7839229Y-14487888D01*
X7839229Y-14487888D02*
X7829705Y-14506936D01*
X7829705Y-14506936D02*
X7820182Y-14516460D01*
X7820182Y-14516460D02*
X7801134Y-14525984D01*
X7801134Y-14525984D02*
X7753515Y-14525984D01*
X7753515Y-14525984D02*
X7734467Y-14516460D01*
X7734467Y-14516460D02*
X7724943Y-14506936D01*
X7963039Y-14325984D02*
X7982086Y-14325984D01*
X7982086Y-14325984D02*
X8001134Y-14335508D01*
X8001134Y-14335508D02*
X8010658Y-14345031D01*
X8010658Y-14345031D02*
X8020182Y-14364079D01*
X8020182Y-14364079D02*
X8029705Y-14402174D01*
X8029705Y-14402174D02*
X8029705Y-14449793D01*
X8029705Y-14449793D02*
X8020182Y-14487888D01*
X8020182Y-14487888D02*
X8010658Y-14506936D01*
X8010658Y-14506936D02*
X8001134Y-14516460D01*
X8001134Y-14516460D02*
X7982086Y-14525984D01*
X7982086Y-14525984D02*
X7963039Y-14525984D01*
X7963039Y-14525984D02*
X7943991Y-14516460D01*
X7943991Y-14516460D02*
X7934467Y-14506936D01*
X7934467Y-14506936D02*
X7924943Y-14487888D01*
X7924943Y-14487888D02*
X7915420Y-14449793D01*
X7915420Y-14449793D02*
X7915420Y-14402174D01*
X7915420Y-14402174D02*
X7924943Y-14364079D01*
X7924943Y-14364079D02*
X7934467Y-14345031D01*
X7934467Y-14345031D02*
X7943991Y-14335508D01*
X7943991Y-14335508D02*
X7963039Y-14325984D01*
X8115420Y-14525984D02*
X8115420Y-14392650D01*
X8115420Y-14411698D02*
X8124943Y-14402174D01*
X8124943Y-14402174D02*
X8143991Y-14392650D01*
X8143991Y-14392650D02*
X8172563Y-14392650D01*
X8172563Y-14392650D02*
X8191610Y-14402174D01*
X8191610Y-14402174D02*
X8201134Y-14421222D01*
X8201134Y-14421222D02*
X8201134Y-14525984D01*
X8201134Y-14421222D02*
X8210658Y-14402174D01*
X8210658Y-14402174D02*
X8229705Y-14392650D01*
X8229705Y-14392650D02*
X8258277Y-14392650D01*
X8258277Y-14392650D02*
X8277324Y-14402174D01*
X8277324Y-14402174D02*
X8286848Y-14421222D01*
X8286848Y-14421222D02*
X8286848Y-14525984D01*
X8382086Y-14525984D02*
X8382086Y-14392650D01*
X8382086Y-14411698D02*
X8391610Y-14402174D01*
X8391610Y-14402174D02*
X8410658Y-14392650D01*
X8410658Y-14392650D02*
X8439229Y-14392650D01*
X8439229Y-14392650D02*
X8458277Y-14402174D01*
X8458277Y-14402174D02*
X8467801Y-14421222D01*
X8467801Y-14421222D02*
X8467801Y-14525984D01*
X8467801Y-14421222D02*
X8477325Y-14402174D01*
X8477325Y-14402174D02*
X8496372Y-14392650D01*
X8496372Y-14392650D02*
X8524944Y-14392650D01*
X8524944Y-14392650D02*
X8543991Y-14402174D01*
X8543991Y-14402174D02*
X8553515Y-14421222D01*
X8553515Y-14421222D02*
X8553515Y-14525984D01*
X8943991Y-14316460D02*
X8772563Y-14573603D01*
X9201134Y-14325984D02*
X9220182Y-14325984D01*
X9220182Y-14325984D02*
X9239229Y-14335508D01*
X9239229Y-14335508D02*
X9248753Y-14345031D01*
X9248753Y-14345031D02*
X9258277Y-14364079D01*
X9258277Y-14364079D02*
X9267801Y-14402174D01*
X9267801Y-14402174D02*
X9267801Y-14449793D01*
X9267801Y-14449793D02*
X9258277Y-14487888D01*
X9258277Y-14487888D02*
X9248753Y-14506936D01*
X9248753Y-14506936D02*
X9239229Y-14516460D01*
X9239229Y-14516460D02*
X9220182Y-14525984D01*
X9220182Y-14525984D02*
X9201134Y-14525984D01*
X9201134Y-14525984D02*
X9182087Y-14516460D01*
X9182087Y-14516460D02*
X9172563Y-14506936D01*
X9172563Y-14506936D02*
X9163039Y-14487888D01*
X9163039Y-14487888D02*
X9153515Y-14449793D01*
X9153515Y-14449793D02*
X9153515Y-14402174D01*
X9153515Y-14402174D02*
X9163039Y-14364079D01*
X9163039Y-14364079D02*
X9172563Y-14345031D01*
X9172563Y-14345031D02*
X9182087Y-14335508D01*
X9182087Y-14335508D02*
X9201134Y-14325984D01*
X9353515Y-14506936D02*
X9363039Y-14516460D01*
X9363039Y-14516460D02*
X9353515Y-14525984D01*
X9353515Y-14525984D02*
X9343991Y-14516460D01*
X9343991Y-14516460D02*
X9353515Y-14506936D01*
X9353515Y-14506936D02*
X9353515Y-14525984D01*
X9486848Y-14325984D02*
X9505896Y-14325984D01*
X9505896Y-14325984D02*
X9524944Y-14335508D01*
X9524944Y-14335508D02*
X9534468Y-14345031D01*
X9534468Y-14345031D02*
X9543991Y-14364079D01*
X9543991Y-14364079D02*
X9553515Y-14402174D01*
X9553515Y-14402174D02*
X9553515Y-14449793D01*
X9553515Y-14449793D02*
X9543991Y-14487888D01*
X9543991Y-14487888D02*
X9534468Y-14506936D01*
X9534468Y-14506936D02*
X9524944Y-14516460D01*
X9524944Y-14516460D02*
X9505896Y-14525984D01*
X9505896Y-14525984D02*
X9486848Y-14525984D01*
X9486848Y-14525984D02*
X9467801Y-14516460D01*
X9467801Y-14516460D02*
X9458277Y-14506936D01*
X9458277Y-14506936D02*
X9448753Y-14487888D01*
X9448753Y-14487888D02*
X9439229Y-14449793D01*
X9439229Y-14449793D02*
X9439229Y-14402174D01*
X9439229Y-14402174D02*
X9448753Y-14364079D01*
X9448753Y-14364079D02*
X9458277Y-14345031D01*
X9458277Y-14345031D02*
X9467801Y-14335508D01*
X9467801Y-14335508D02*
X9486848Y-14325984D01*
X9629706Y-14345031D02*
X9639229Y-14335508D01*
X9639229Y-14335508D02*
X9658277Y-14325984D01*
X9658277Y-14325984D02*
X9705896Y-14325984D01*
X9705896Y-14325984D02*
X9724944Y-14335508D01*
X9724944Y-14335508D02*
X9734468Y-14345031D01*
X9734468Y-14345031D02*
X9743991Y-14364079D01*
X9743991Y-14364079D02*
X9743991Y-14383127D01*
X9743991Y-14383127D02*
X9734468Y-14411698D01*
X9734468Y-14411698D02*
X9620182Y-14525984D01*
X9620182Y-14525984D02*
X9743991Y-14525984D01*
X9839229Y-14525984D02*
X9877325Y-14525984D01*
X9877325Y-14525984D02*
X9896372Y-14516460D01*
X9896372Y-14516460D02*
X9905896Y-14506936D01*
X9905896Y-14506936D02*
X9924944Y-14478365D01*
X9924944Y-14478365D02*
X9934468Y-14440269D01*
X9934468Y-14440269D02*
X9934468Y-14364079D01*
X9934468Y-14364079D02*
X9924944Y-14345031D01*
X9924944Y-14345031D02*
X9915420Y-14335508D01*
X9915420Y-14335508D02*
X9896372Y-14325984D01*
X9896372Y-14325984D02*
X9858277Y-14325984D01*
X9858277Y-14325984D02*
X9839229Y-14335508D01*
X9839229Y-14335508D02*
X9829706Y-14345031D01*
X9829706Y-14345031D02*
X9820182Y-14364079D01*
X9820182Y-14364079D02*
X9820182Y-14411698D01*
X9820182Y-14411698D02*
X9829706Y-14430746D01*
X9829706Y-14430746D02*
X9839229Y-14440269D01*
X9839229Y-14440269D02*
X9858277Y-14449793D01*
X9858277Y-14449793D02*
X9896372Y-14449793D01*
X9896372Y-14449793D02*
X9915420Y-14440269D01*
X9915420Y-14440269D02*
X9924944Y-14430746D01*
X9924944Y-14430746D02*
X9934468Y-14411698D01*
X10115420Y-14325984D02*
X10020182Y-14325984D01*
X10020182Y-14325984D02*
X10010658Y-14421222D01*
X10010658Y-14421222D02*
X10020182Y-14411698D01*
X10020182Y-14411698D02*
X10039229Y-14402174D01*
X10039229Y-14402174D02*
X10086849Y-14402174D01*
X10086849Y-14402174D02*
X10105896Y-14411698D01*
X10105896Y-14411698D02*
X10115420Y-14421222D01*
X10115420Y-14421222D02*
X10124944Y-14440269D01*
X10124944Y-14440269D02*
X10124944Y-14487888D01*
X10124944Y-14487888D02*
X10115420Y-14506936D01*
X10115420Y-14506936D02*
X10105896Y-14516460D01*
X10105896Y-14516460D02*
X10086849Y-14525984D01*
X10086849Y-14525984D02*
X10039229Y-14525984D01*
X10039229Y-14525984D02*
X10020182Y-14516460D01*
X10020182Y-14516460D02*
X10010658Y-14506936D01*
X10201134Y-14325984D02*
X10201134Y-14364079D01*
X10277325Y-14325984D02*
X10277325Y-14364079D01*
X10572563Y-14602174D02*
X10563039Y-14592650D01*
X10563039Y-14592650D02*
X10543991Y-14564079D01*
X10543991Y-14564079D02*
X10534468Y-14545031D01*
X10534468Y-14545031D02*
X10524944Y-14516460D01*
X10524944Y-14516460D02*
X10515420Y-14468841D01*
X10515420Y-14468841D02*
X10515420Y-14430746D01*
X10515420Y-14430746D02*
X10524944Y-14383127D01*
X10524944Y-14383127D02*
X10534468Y-14354555D01*
X10534468Y-14354555D02*
X10543991Y-14335508D01*
X10543991Y-14335508D02*
X10563039Y-14306936D01*
X10563039Y-14306936D02*
X10572563Y-14297412D01*
X10753515Y-14525984D02*
X10639230Y-14525984D01*
X10696372Y-14525984D02*
X10696372Y-14325984D01*
X10696372Y-14325984D02*
X10677325Y-14354555D01*
X10677325Y-14354555D02*
X10658277Y-14373603D01*
X10658277Y-14373603D02*
X10639230Y-14383127D01*
X10924944Y-14325984D02*
X10886849Y-14325984D01*
X10886849Y-14325984D02*
X10867801Y-14335508D01*
X10867801Y-14335508D02*
X10858277Y-14345031D01*
X10858277Y-14345031D02*
X10839230Y-14373603D01*
X10839230Y-14373603D02*
X10829706Y-14411698D01*
X10829706Y-14411698D02*
X10829706Y-14487888D01*
X10829706Y-14487888D02*
X10839230Y-14506936D01*
X10839230Y-14506936D02*
X10848753Y-14516460D01*
X10848753Y-14516460D02*
X10867801Y-14525984D01*
X10867801Y-14525984D02*
X10905896Y-14525984D01*
X10905896Y-14525984D02*
X10924944Y-14516460D01*
X10924944Y-14516460D02*
X10934468Y-14506936D01*
X10934468Y-14506936D02*
X10943991Y-14487888D01*
X10943991Y-14487888D02*
X10943991Y-14440269D01*
X10943991Y-14440269D02*
X10934468Y-14421222D01*
X10934468Y-14421222D02*
X10924944Y-14411698D01*
X10924944Y-14411698D02*
X10905896Y-14402174D01*
X10905896Y-14402174D02*
X10867801Y-14402174D01*
X10867801Y-14402174D02*
X10848753Y-14411698D01*
X10848753Y-14411698D02*
X10839230Y-14421222D01*
X10839230Y-14421222D02*
X10829706Y-14440269D01*
X11182087Y-14525984D02*
X11182087Y-14325984D01*
X11267801Y-14525984D02*
X11267801Y-14421222D01*
X11267801Y-14421222D02*
X11258277Y-14402174D01*
X11258277Y-14402174D02*
X11239230Y-14392650D01*
X11239230Y-14392650D02*
X11210658Y-14392650D01*
X11210658Y-14392650D02*
X11191610Y-14402174D01*
X11191610Y-14402174D02*
X11182087Y-14411698D01*
X11391610Y-14525984D02*
X11372563Y-14516460D01*
X11372563Y-14516460D02*
X11363039Y-14506936D01*
X11363039Y-14506936D02*
X11353515Y-14487888D01*
X11353515Y-14487888D02*
X11353515Y-14430746D01*
X11353515Y-14430746D02*
X11363039Y-14411698D01*
X11363039Y-14411698D02*
X11372563Y-14402174D01*
X11372563Y-14402174D02*
X11391610Y-14392650D01*
X11391610Y-14392650D02*
X11420182Y-14392650D01*
X11420182Y-14392650D02*
X11439230Y-14402174D01*
X11439230Y-14402174D02*
X11448753Y-14411698D01*
X11448753Y-14411698D02*
X11458277Y-14430746D01*
X11458277Y-14430746D02*
X11458277Y-14487888D01*
X11458277Y-14487888D02*
X11448753Y-14506936D01*
X11448753Y-14506936D02*
X11439230Y-14516460D01*
X11439230Y-14516460D02*
X11420182Y-14525984D01*
X11420182Y-14525984D02*
X11391610Y-14525984D01*
X11572563Y-14525984D02*
X11553515Y-14516460D01*
X11553515Y-14516460D02*
X11543991Y-14497412D01*
X11543991Y-14497412D02*
X11543991Y-14325984D01*
X11724944Y-14516460D02*
X11705896Y-14525984D01*
X11705896Y-14525984D02*
X11667801Y-14525984D01*
X11667801Y-14525984D02*
X11648753Y-14516460D01*
X11648753Y-14516460D02*
X11639230Y-14497412D01*
X11639230Y-14497412D02*
X11639230Y-14421222D01*
X11639230Y-14421222D02*
X11648753Y-14402174D01*
X11648753Y-14402174D02*
X11667801Y-14392650D01*
X11667801Y-14392650D02*
X11705896Y-14392650D01*
X11705896Y-14392650D02*
X11724944Y-14402174D01*
X11724944Y-14402174D02*
X11734468Y-14421222D01*
X11734468Y-14421222D02*
X11734468Y-14440269D01*
X11734468Y-14440269D02*
X11639230Y-14459317D01*
X11810658Y-14516460D02*
X11829706Y-14525984D01*
X11829706Y-14525984D02*
X11867801Y-14525984D01*
X11867801Y-14525984D02*
X11886849Y-14516460D01*
X11886849Y-14516460D02*
X11896372Y-14497412D01*
X11896372Y-14497412D02*
X11896372Y-14487888D01*
X11896372Y-14487888D02*
X11886849Y-14468841D01*
X11886849Y-14468841D02*
X11867801Y-14459317D01*
X11867801Y-14459317D02*
X11839230Y-14459317D01*
X11839230Y-14459317D02*
X11820182Y-14449793D01*
X11820182Y-14449793D02*
X11810658Y-14430746D01*
X11810658Y-14430746D02*
X11810658Y-14421222D01*
X11810658Y-14421222D02*
X11820182Y-14402174D01*
X11820182Y-14402174D02*
X11839230Y-14392650D01*
X11839230Y-14392650D02*
X11867801Y-14392650D01*
X11867801Y-14392650D02*
X11886849Y-14402174D01*
X11963039Y-14602174D02*
X11972563Y-14592650D01*
X11972563Y-14592650D02*
X11991611Y-14564079D01*
X11991611Y-14564079D02*
X12001134Y-14545031D01*
X12001134Y-14545031D02*
X12010658Y-14516460D01*
X12010658Y-14516460D02*
X12020182Y-14468841D01*
X12020182Y-14468841D02*
X12020182Y-14430746D01*
X12020182Y-14430746D02*
X12010658Y-14383127D01*
X12010658Y-14383127D02*
X12001134Y-14354555D01*
X12001134Y-14354555D02*
X11991611Y-14335508D01*
X11991611Y-14335508D02*
X11972563Y-14306936D01*
X11972563Y-14306936D02*
X11963039Y-14297412D01*
D12*
X6947500Y-14748500D02*
X6997500Y-14698500D01*
X6947500Y-14648500D01*
X6897500Y-14698500D01*
X6947500Y-14748500D01*
D11*
X7363039Y-14789984D02*
X7248753Y-14789984D01*
X7305896Y-14789984D02*
X7305896Y-14589984D01*
X7305896Y-14589984D02*
X7286848Y-14618555D01*
X7286848Y-14618555D02*
X7267801Y-14637603D01*
X7267801Y-14637603D02*
X7248753Y-14647127D01*
X7448753Y-14770936D02*
X7458277Y-14780460D01*
X7458277Y-14780460D02*
X7448753Y-14789984D01*
X7448753Y-14789984D02*
X7439229Y-14780460D01*
X7439229Y-14780460D02*
X7448753Y-14770936D01*
X7448753Y-14770936D02*
X7448753Y-14789984D01*
X7582086Y-14589984D02*
X7601134Y-14589984D01*
X7601134Y-14589984D02*
X7620182Y-14599508D01*
X7620182Y-14599508D02*
X7629705Y-14609031D01*
X7629705Y-14609031D02*
X7639229Y-14628079D01*
X7639229Y-14628079D02*
X7648753Y-14666174D01*
X7648753Y-14666174D02*
X7648753Y-14713793D01*
X7648753Y-14713793D02*
X7639229Y-14751888D01*
X7639229Y-14751888D02*
X7629705Y-14770936D01*
X7629705Y-14770936D02*
X7620182Y-14780460D01*
X7620182Y-14780460D02*
X7601134Y-14789984D01*
X7601134Y-14789984D02*
X7582086Y-14789984D01*
X7582086Y-14789984D02*
X7563039Y-14780460D01*
X7563039Y-14780460D02*
X7553515Y-14770936D01*
X7553515Y-14770936D02*
X7543991Y-14751888D01*
X7543991Y-14751888D02*
X7534467Y-14713793D01*
X7534467Y-14713793D02*
X7534467Y-14666174D01*
X7534467Y-14666174D02*
X7543991Y-14628079D01*
X7543991Y-14628079D02*
X7553515Y-14609031D01*
X7553515Y-14609031D02*
X7563039Y-14599508D01*
X7563039Y-14599508D02*
X7582086Y-14589984D01*
X7772562Y-14589984D02*
X7791610Y-14589984D01*
X7791610Y-14589984D02*
X7810658Y-14599508D01*
X7810658Y-14599508D02*
X7820182Y-14609031D01*
X7820182Y-14609031D02*
X7829705Y-14628079D01*
X7829705Y-14628079D02*
X7839229Y-14666174D01*
X7839229Y-14666174D02*
X7839229Y-14713793D01*
X7839229Y-14713793D02*
X7829705Y-14751888D01*
X7829705Y-14751888D02*
X7820182Y-14770936D01*
X7820182Y-14770936D02*
X7810658Y-14780460D01*
X7810658Y-14780460D02*
X7791610Y-14789984D01*
X7791610Y-14789984D02*
X7772562Y-14789984D01*
X7772562Y-14789984D02*
X7753515Y-14780460D01*
X7753515Y-14780460D02*
X7743991Y-14770936D01*
X7743991Y-14770936D02*
X7734467Y-14751888D01*
X7734467Y-14751888D02*
X7724943Y-14713793D01*
X7724943Y-14713793D02*
X7724943Y-14666174D01*
X7724943Y-14666174D02*
X7734467Y-14628079D01*
X7734467Y-14628079D02*
X7743991Y-14609031D01*
X7743991Y-14609031D02*
X7753515Y-14599508D01*
X7753515Y-14599508D02*
X7772562Y-14589984D01*
X7963039Y-14589984D02*
X7982086Y-14589984D01*
X7982086Y-14589984D02*
X8001134Y-14599508D01*
X8001134Y-14599508D02*
X8010658Y-14609031D01*
X8010658Y-14609031D02*
X8020182Y-14628079D01*
X8020182Y-14628079D02*
X8029705Y-14666174D01*
X8029705Y-14666174D02*
X8029705Y-14713793D01*
X8029705Y-14713793D02*
X8020182Y-14751888D01*
X8020182Y-14751888D02*
X8010658Y-14770936D01*
X8010658Y-14770936D02*
X8001134Y-14780460D01*
X8001134Y-14780460D02*
X7982086Y-14789984D01*
X7982086Y-14789984D02*
X7963039Y-14789984D01*
X7963039Y-14789984D02*
X7943991Y-14780460D01*
X7943991Y-14780460D02*
X7934467Y-14770936D01*
X7934467Y-14770936D02*
X7924943Y-14751888D01*
X7924943Y-14751888D02*
X7915420Y-14713793D01*
X7915420Y-14713793D02*
X7915420Y-14666174D01*
X7915420Y-14666174D02*
X7924943Y-14628079D01*
X7924943Y-14628079D02*
X7934467Y-14609031D01*
X7934467Y-14609031D02*
X7943991Y-14599508D01*
X7943991Y-14599508D02*
X7963039Y-14589984D01*
X8115420Y-14789984D02*
X8115420Y-14656650D01*
X8115420Y-14675698D02*
X8124943Y-14666174D01*
X8124943Y-14666174D02*
X8143991Y-14656650D01*
X8143991Y-14656650D02*
X8172563Y-14656650D01*
X8172563Y-14656650D02*
X8191610Y-14666174D01*
X8191610Y-14666174D02*
X8201134Y-14685222D01*
X8201134Y-14685222D02*
X8201134Y-14789984D01*
X8201134Y-14685222D02*
X8210658Y-14666174D01*
X8210658Y-14666174D02*
X8229705Y-14656650D01*
X8229705Y-14656650D02*
X8258277Y-14656650D01*
X8258277Y-14656650D02*
X8277324Y-14666174D01*
X8277324Y-14666174D02*
X8286848Y-14685222D01*
X8286848Y-14685222D02*
X8286848Y-14789984D01*
X8382086Y-14789984D02*
X8382086Y-14656650D01*
X8382086Y-14675698D02*
X8391610Y-14666174D01*
X8391610Y-14666174D02*
X8410658Y-14656650D01*
X8410658Y-14656650D02*
X8439229Y-14656650D01*
X8439229Y-14656650D02*
X8458277Y-14666174D01*
X8458277Y-14666174D02*
X8467801Y-14685222D01*
X8467801Y-14685222D02*
X8467801Y-14789984D01*
X8467801Y-14685222D02*
X8477325Y-14666174D01*
X8477325Y-14666174D02*
X8496372Y-14656650D01*
X8496372Y-14656650D02*
X8524944Y-14656650D01*
X8524944Y-14656650D02*
X8543991Y-14666174D01*
X8543991Y-14666174D02*
X8553515Y-14685222D01*
X8553515Y-14685222D02*
X8553515Y-14789984D01*
X8943991Y-14580460D02*
X8772563Y-14837603D01*
X9201134Y-14589984D02*
X9220182Y-14589984D01*
X9220182Y-14589984D02*
X9239229Y-14599508D01*
X9239229Y-14599508D02*
X9248753Y-14609031D01*
X9248753Y-14609031D02*
X9258277Y-14628079D01*
X9258277Y-14628079D02*
X9267801Y-14666174D01*
X9267801Y-14666174D02*
X9267801Y-14713793D01*
X9267801Y-14713793D02*
X9258277Y-14751888D01*
X9258277Y-14751888D02*
X9248753Y-14770936D01*
X9248753Y-14770936D02*
X9239229Y-14780460D01*
X9239229Y-14780460D02*
X9220182Y-14789984D01*
X9220182Y-14789984D02*
X9201134Y-14789984D01*
X9201134Y-14789984D02*
X9182087Y-14780460D01*
X9182087Y-14780460D02*
X9172563Y-14770936D01*
X9172563Y-14770936D02*
X9163039Y-14751888D01*
X9163039Y-14751888D02*
X9153515Y-14713793D01*
X9153515Y-14713793D02*
X9153515Y-14666174D01*
X9153515Y-14666174D02*
X9163039Y-14628079D01*
X9163039Y-14628079D02*
X9172563Y-14609031D01*
X9172563Y-14609031D02*
X9182087Y-14599508D01*
X9182087Y-14599508D02*
X9201134Y-14589984D01*
X9353515Y-14770936D02*
X9363039Y-14780460D01*
X9363039Y-14780460D02*
X9353515Y-14789984D01*
X9353515Y-14789984D02*
X9343991Y-14780460D01*
X9343991Y-14780460D02*
X9353515Y-14770936D01*
X9353515Y-14770936D02*
X9353515Y-14789984D01*
X9486848Y-14589984D02*
X9505896Y-14589984D01*
X9505896Y-14589984D02*
X9524944Y-14599508D01*
X9524944Y-14599508D02*
X9534468Y-14609031D01*
X9534468Y-14609031D02*
X9543991Y-14628079D01*
X9543991Y-14628079D02*
X9553515Y-14666174D01*
X9553515Y-14666174D02*
X9553515Y-14713793D01*
X9553515Y-14713793D02*
X9543991Y-14751888D01*
X9543991Y-14751888D02*
X9534468Y-14770936D01*
X9534468Y-14770936D02*
X9524944Y-14780460D01*
X9524944Y-14780460D02*
X9505896Y-14789984D01*
X9505896Y-14789984D02*
X9486848Y-14789984D01*
X9486848Y-14789984D02*
X9467801Y-14780460D01*
X9467801Y-14780460D02*
X9458277Y-14770936D01*
X9458277Y-14770936D02*
X9448753Y-14751888D01*
X9448753Y-14751888D02*
X9439229Y-14713793D01*
X9439229Y-14713793D02*
X9439229Y-14666174D01*
X9439229Y-14666174D02*
X9448753Y-14628079D01*
X9448753Y-14628079D02*
X9458277Y-14609031D01*
X9458277Y-14609031D02*
X9467801Y-14599508D01*
X9467801Y-14599508D02*
X9486848Y-14589984D01*
X9620182Y-14589984D02*
X9743991Y-14589984D01*
X9743991Y-14589984D02*
X9677325Y-14666174D01*
X9677325Y-14666174D02*
X9705896Y-14666174D01*
X9705896Y-14666174D02*
X9724944Y-14675698D01*
X9724944Y-14675698D02*
X9734468Y-14685222D01*
X9734468Y-14685222D02*
X9743991Y-14704269D01*
X9743991Y-14704269D02*
X9743991Y-14751888D01*
X9743991Y-14751888D02*
X9734468Y-14770936D01*
X9734468Y-14770936D02*
X9724944Y-14780460D01*
X9724944Y-14780460D02*
X9705896Y-14789984D01*
X9705896Y-14789984D02*
X9648753Y-14789984D01*
X9648753Y-14789984D02*
X9629706Y-14780460D01*
X9629706Y-14780460D02*
X9620182Y-14770936D01*
X9839229Y-14789984D02*
X9877325Y-14789984D01*
X9877325Y-14789984D02*
X9896372Y-14780460D01*
X9896372Y-14780460D02*
X9905896Y-14770936D01*
X9905896Y-14770936D02*
X9924944Y-14742365D01*
X9924944Y-14742365D02*
X9934468Y-14704269D01*
X9934468Y-14704269D02*
X9934468Y-14628079D01*
X9934468Y-14628079D02*
X9924944Y-14609031D01*
X9924944Y-14609031D02*
X9915420Y-14599508D01*
X9915420Y-14599508D02*
X9896372Y-14589984D01*
X9896372Y-14589984D02*
X9858277Y-14589984D01*
X9858277Y-14589984D02*
X9839229Y-14599508D01*
X9839229Y-14599508D02*
X9829706Y-14609031D01*
X9829706Y-14609031D02*
X9820182Y-14628079D01*
X9820182Y-14628079D02*
X9820182Y-14675698D01*
X9820182Y-14675698D02*
X9829706Y-14694746D01*
X9829706Y-14694746D02*
X9839229Y-14704269D01*
X9839229Y-14704269D02*
X9858277Y-14713793D01*
X9858277Y-14713793D02*
X9896372Y-14713793D01*
X9896372Y-14713793D02*
X9915420Y-14704269D01*
X9915420Y-14704269D02*
X9924944Y-14694746D01*
X9924944Y-14694746D02*
X9934468Y-14675698D01*
X10105896Y-14656650D02*
X10105896Y-14789984D01*
X10058277Y-14580460D02*
X10010658Y-14723317D01*
X10010658Y-14723317D02*
X10134468Y-14723317D01*
X10201134Y-14589984D02*
X10201134Y-14628079D01*
X10277325Y-14589984D02*
X10277325Y-14628079D01*
X10572563Y-14866174D02*
X10563039Y-14856650D01*
X10563039Y-14856650D02*
X10543991Y-14828079D01*
X10543991Y-14828079D02*
X10534468Y-14809031D01*
X10534468Y-14809031D02*
X10524944Y-14780460D01*
X10524944Y-14780460D02*
X10515420Y-14732841D01*
X10515420Y-14732841D02*
X10515420Y-14694746D01*
X10515420Y-14694746D02*
X10524944Y-14647127D01*
X10524944Y-14647127D02*
X10534468Y-14618555D01*
X10534468Y-14618555D02*
X10543991Y-14599508D01*
X10543991Y-14599508D02*
X10563039Y-14570936D01*
X10563039Y-14570936D02*
X10572563Y-14561412D01*
X10639230Y-14609031D02*
X10648753Y-14599508D01*
X10648753Y-14599508D02*
X10667801Y-14589984D01*
X10667801Y-14589984D02*
X10715420Y-14589984D01*
X10715420Y-14589984D02*
X10734468Y-14599508D01*
X10734468Y-14599508D02*
X10743991Y-14609031D01*
X10743991Y-14609031D02*
X10753515Y-14628079D01*
X10753515Y-14628079D02*
X10753515Y-14647127D01*
X10753515Y-14647127D02*
X10743991Y-14675698D01*
X10743991Y-14675698D02*
X10629706Y-14789984D01*
X10629706Y-14789984D02*
X10753515Y-14789984D01*
X10943991Y-14789984D02*
X10829706Y-14789984D01*
X10886849Y-14789984D02*
X10886849Y-14589984D01*
X10886849Y-14589984D02*
X10867801Y-14618555D01*
X10867801Y-14618555D02*
X10848753Y-14637603D01*
X10848753Y-14637603D02*
X10829706Y-14647127D01*
X11182087Y-14789984D02*
X11182087Y-14589984D01*
X11267801Y-14789984D02*
X11267801Y-14685222D01*
X11267801Y-14685222D02*
X11258277Y-14666174D01*
X11258277Y-14666174D02*
X11239230Y-14656650D01*
X11239230Y-14656650D02*
X11210658Y-14656650D01*
X11210658Y-14656650D02*
X11191610Y-14666174D01*
X11191610Y-14666174D02*
X11182087Y-14675698D01*
X11391610Y-14789984D02*
X11372563Y-14780460D01*
X11372563Y-14780460D02*
X11363039Y-14770936D01*
X11363039Y-14770936D02*
X11353515Y-14751888D01*
X11353515Y-14751888D02*
X11353515Y-14694746D01*
X11353515Y-14694746D02*
X11363039Y-14675698D01*
X11363039Y-14675698D02*
X11372563Y-14666174D01*
X11372563Y-14666174D02*
X11391610Y-14656650D01*
X11391610Y-14656650D02*
X11420182Y-14656650D01*
X11420182Y-14656650D02*
X11439230Y-14666174D01*
X11439230Y-14666174D02*
X11448753Y-14675698D01*
X11448753Y-14675698D02*
X11458277Y-14694746D01*
X11458277Y-14694746D02*
X11458277Y-14751888D01*
X11458277Y-14751888D02*
X11448753Y-14770936D01*
X11448753Y-14770936D02*
X11439230Y-14780460D01*
X11439230Y-14780460D02*
X11420182Y-14789984D01*
X11420182Y-14789984D02*
X11391610Y-14789984D01*
X11572563Y-14789984D02*
X11553515Y-14780460D01*
X11553515Y-14780460D02*
X11543991Y-14761412D01*
X11543991Y-14761412D02*
X11543991Y-14589984D01*
X11724944Y-14780460D02*
X11705896Y-14789984D01*
X11705896Y-14789984D02*
X11667801Y-14789984D01*
X11667801Y-14789984D02*
X11648753Y-14780460D01*
X11648753Y-14780460D02*
X11639230Y-14761412D01*
X11639230Y-14761412D02*
X11639230Y-14685222D01*
X11639230Y-14685222D02*
X11648753Y-14666174D01*
X11648753Y-14666174D02*
X11667801Y-14656650D01*
X11667801Y-14656650D02*
X11705896Y-14656650D01*
X11705896Y-14656650D02*
X11724944Y-14666174D01*
X11724944Y-14666174D02*
X11734468Y-14685222D01*
X11734468Y-14685222D02*
X11734468Y-14704269D01*
X11734468Y-14704269D02*
X11639230Y-14723317D01*
X11810658Y-14780460D02*
X11829706Y-14789984D01*
X11829706Y-14789984D02*
X11867801Y-14789984D01*
X11867801Y-14789984D02*
X11886849Y-14780460D01*
X11886849Y-14780460D02*
X11896372Y-14761412D01*
X11896372Y-14761412D02*
X11896372Y-14751888D01*
X11896372Y-14751888D02*
X11886849Y-14732841D01*
X11886849Y-14732841D02*
X11867801Y-14723317D01*
X11867801Y-14723317D02*
X11839230Y-14723317D01*
X11839230Y-14723317D02*
X11820182Y-14713793D01*
X11820182Y-14713793D02*
X11810658Y-14694746D01*
X11810658Y-14694746D02*
X11810658Y-14685222D01*
X11810658Y-14685222D02*
X11820182Y-14666174D01*
X11820182Y-14666174D02*
X11839230Y-14656650D01*
X11839230Y-14656650D02*
X11867801Y-14656650D01*
X11867801Y-14656650D02*
X11886849Y-14666174D01*
X11963039Y-14866174D02*
X11972563Y-14856650D01*
X11972563Y-14856650D02*
X11991611Y-14828079D01*
X11991611Y-14828079D02*
X12001134Y-14809031D01*
X12001134Y-14809031D02*
X12010658Y-14780460D01*
X12010658Y-14780460D02*
X12020182Y-14732841D01*
X12020182Y-14732841D02*
X12020182Y-14694746D01*
X12020182Y-14694746D02*
X12010658Y-14647127D01*
X12010658Y-14647127D02*
X12001134Y-14618555D01*
X12001134Y-14618555D02*
X11991611Y-14599508D01*
X11991611Y-14599508D02*
X11972563Y-14570936D01*
X11972563Y-14570936D02*
X11963039Y-14561412D01*
M02*
