%TF.GenerationSoftware,KiCad,Pcbnew,9.0.5*%
%TF.CreationDate,2026-01-03T13:47:43+01:00*%
%TF.ProjectId,CanSat,43616e53-6174-42e6-9b69-6361645f7063,rev?*%
%TF.SameCoordinates,Original*%
%TF.FileFunction,Paste,Bot*%
%TF.FilePolarity,Positive*%
%FSLAX46Y46*%
G04 Gerber Fmt 4.6, Leading zero omitted, Abs format (unit mm)*
G04 Created by KiCad (PCBNEW 9.0.5) date 2026-01-03 13:47:43*
%MOMM*%
%LPD*%
G01*
G04 APERTURE LIST*
G04 Aperture macros list*
%AMRoundRect*
0 Rectangle with rounded corners*
0 $1 Rounding radius*
0 $2 $3 $4 $5 $6 $7 $8 $9 X,Y pos of 4 corners*
0 Add a 4 corners polygon primitive as box body*
4,1,4,$2,$3,$4,$5,$6,$7,$8,$9,$2,$3,0*
0 Add four circle primitives for the rounded corners*
1,1,$1+$1,$2,$3*
1,1,$1+$1,$4,$5*
1,1,$1+$1,$6,$7*
1,1,$1+$1,$8,$9*
0 Add four rect primitives between the rounded corners*
20,1,$1+$1,$2,$3,$4,$5,0*
20,1,$1+$1,$4,$5,$6,$7,0*
20,1,$1+$1,$6,$7,$8,$9,0*
20,1,$1+$1,$8,$9,$2,$3,0*%
G04 Aperture macros list end*
%ADD10RoundRect,0.250000X-0.475000X0.250000X-0.475000X-0.250000X0.475000X-0.250000X0.475000X0.250000X0*%
%ADD11RoundRect,0.250000X-0.250000X-0.475000X0.250000X-0.475000X0.250000X0.475000X-0.250000X0.475000X0*%
%ADD12RoundRect,0.250000X-0.262500X-0.450000X0.262500X-0.450000X0.262500X0.450000X-0.262500X0.450000X0*%
%ADD13RoundRect,0.250000X0.460000X-0.315000X0.460000X0.315000X-0.460000X0.315000X-0.460000X-0.315000X0*%
%ADD14RoundRect,0.150000X0.150000X-0.737500X0.150000X0.737500X-0.150000X0.737500X-0.150000X-0.737500X0*%
%ADD15RoundRect,0.600000X0.900000X0.400000X-0.900000X0.400000X-0.900000X-0.400000X0.900000X-0.400000X0*%
%ADD16RoundRect,0.600000X0.400000X-0.900000X0.400000X0.900000X-0.400000X0.900000X-0.400000X-0.900000X0*%
%ADD17RoundRect,0.600000X-0.400000X0.900000X-0.400000X-0.900000X0.400000X-0.900000X0.400000X0.900000X0*%
%ADD18R,0.600000X0.240000*%
%ADD19R,0.240000X0.600000*%
%ADD20R,3.190000X2.190000*%
%ADD21RoundRect,0.075000X0.650000X0.075000X-0.650000X0.075000X-0.650000X-0.075000X0.650000X-0.075000X0*%
%ADD22RoundRect,0.250000X0.450000X-0.262500X0.450000X0.262500X-0.450000X0.262500X-0.450000X-0.262500X0*%
%ADD23RoundRect,0.304349X-1.395651X1.095651X-1.395651X-1.095651X1.395651X-1.095651X1.395651X1.095651X0*%
%ADD24RoundRect,0.250000X0.475000X-0.250000X0.475000X0.250000X-0.475000X0.250000X-0.475000X-0.250000X0*%
%ADD25RoundRect,0.250000X-0.512652X-0.159099X-0.159099X-0.512652X0.512652X0.159099X0.159099X0.512652X0*%
%ADD26RoundRect,0.250000X-0.450000X0.262500X-0.450000X-0.262500X0.450000X-0.262500X0.450000X0.262500X0*%
%ADD27RoundRect,0.250000X0.375000X0.625000X-0.375000X0.625000X-0.375000X-0.625000X0.375000X-0.625000X0*%
%ADD28RoundRect,0.250000X0.250000X0.475000X-0.250000X0.475000X-0.250000X-0.475000X0.250000X-0.475000X0*%
%ADD29RoundRect,0.250000X-0.625000X0.312500X-0.625000X-0.312500X0.625000X-0.312500X0.625000X0.312500X0*%
%ADD30RoundRect,0.250000X0.312500X0.625000X-0.312500X0.625000X-0.312500X-0.625000X0.312500X-0.625000X0*%
%ADD31RoundRect,0.250000X0.262500X0.450000X-0.262500X0.450000X-0.262500X-0.450000X0.262500X-0.450000X0*%
%ADD32RoundRect,0.304349X1.395651X-1.095651X1.395651X1.095651X-1.395651X1.095651X-1.395651X-1.095651X0*%
%ADD33RoundRect,0.075000X-0.075000X0.650000X-0.075000X-0.650000X0.075000X-0.650000X0.075000X0.650000X0*%
G04 APERTURE END LIST*
D10*
%TO.C,C6*%
X92889694Y-86964973D03*
X92889694Y-88864973D03*
%TD*%
D11*
%TO.C,C39*%
X93400000Y-97500000D03*
X95300000Y-97500000D03*
%TD*%
D12*
%TO.C,R2*%
X77636300Y-106759000D03*
X79461300Y-106759000D03*
%TD*%
D13*
%TO.C,U4*%
X84900000Y-110180000D03*
X86600000Y-110180000D03*
X84900000Y-108820000D03*
X86600000Y-108820000D03*
D14*
X87655000Y-112062500D03*
X86385000Y-112062500D03*
X85115000Y-112062500D03*
X83845000Y-112062500D03*
X83845000Y-106937500D03*
X85115000Y-106937500D03*
X86385000Y-106937500D03*
X87655000Y-106937500D03*
%TD*%
D10*
%TO.C,C37*%
X84068092Y-103036333D03*
X84068092Y-104936333D03*
%TD*%
D11*
%TO.C,C27*%
X100350000Y-97500000D03*
X102250000Y-97500000D03*
%TD*%
D15*
%TO.C,U9*%
X124942051Y-110794358D03*
X124942051Y-108254358D03*
X124942051Y-105714358D03*
X124942051Y-103174358D03*
X124942051Y-100634358D03*
X124942051Y-98094358D03*
X124942051Y-95554358D03*
D16*
X121342051Y-89054358D03*
X118802051Y-89054358D03*
X116262051Y-89054358D03*
X113722051Y-89054358D03*
X111182051Y-89054358D03*
D17*
X108642051Y-89054358D03*
D15*
X104942051Y-95554358D03*
X104942051Y-98094358D03*
X104942051Y-100634358D03*
X104942051Y-103174358D03*
X104942051Y-105714358D03*
X104942051Y-108254358D03*
X104942051Y-110794358D03*
%TD*%
D18*
%TO.C,IC1*%
X79403400Y-103572000D03*
D19*
X79003400Y-104472000D03*
X78503400Y-104472000D03*
X78003400Y-104472000D03*
X77503400Y-104472000D03*
X77003400Y-104472000D03*
X76503400Y-104472000D03*
X76003400Y-104472000D03*
X75503400Y-104472000D03*
D18*
X75103400Y-103572000D03*
X75103400Y-102072000D03*
D19*
X75503400Y-101172000D03*
X76003400Y-101172000D03*
X76503400Y-101172000D03*
X77003400Y-101172000D03*
X77503400Y-101172000D03*
X78003400Y-101172000D03*
X78503400Y-101172000D03*
X79003400Y-101172000D03*
D18*
X79403400Y-102072000D03*
D20*
X77253400Y-102822000D03*
%TD*%
D21*
%TO.C,U5*%
X88200000Y-89000000D03*
X88200000Y-89500000D03*
X88200000Y-90000000D03*
X88200000Y-90500000D03*
X88200000Y-91000000D03*
X83800000Y-91000000D03*
X83800000Y-90500000D03*
X83800000Y-90000000D03*
X83800000Y-89500000D03*
X83800000Y-89000000D03*
%TD*%
D11*
%TO.C,C11*%
X85350000Y-114900000D03*
X87250000Y-114900000D03*
%TD*%
%TO.C,C24*%
X78850000Y-90650000D03*
X80750000Y-90650000D03*
%TD*%
D22*
%TO.C,R11*%
X97300000Y-111312500D03*
X97300000Y-109487500D03*
%TD*%
D12*
%TO.C,R4*%
X79390900Y-94822000D03*
X81215900Y-94822000D03*
%TD*%
D23*
%TO.C,L2*%
X79209200Y-109551800D03*
X79209200Y-115751800D03*
%TD*%
D24*
%TO.C,C40*%
X82000000Y-107050000D03*
X82000000Y-105150000D03*
%TD*%
D25*
%TO.C,C33*%
X83728249Y-82328249D03*
X85071751Y-83671751D03*
%TD*%
D12*
%TO.C,R3*%
X75940900Y-96772000D03*
X77765900Y-96772000D03*
%TD*%
D25*
%TO.C,C26*%
X80928249Y-85128249D03*
X82271751Y-86471751D03*
%TD*%
D22*
%TO.C,R37*%
X84060000Y-101462500D03*
X84060000Y-99637500D03*
%TD*%
D26*
%TO.C,R36*%
X97300000Y-102687500D03*
X97300000Y-104512500D03*
%TD*%
D10*
%TO.C,C13*%
X82000000Y-100950000D03*
X82000000Y-102850000D03*
%TD*%
D27*
%TO.C,D6*%
X102100000Y-103500000D03*
X99300000Y-103500000D03*
%TD*%
D24*
%TO.C,C41*%
X86100000Y-99630000D03*
X86100000Y-97730000D03*
%TD*%
D28*
%TO.C,C35*%
X91900000Y-95500000D03*
X90000000Y-95500000D03*
%TD*%
D29*
%TO.C,R1*%
X76850000Y-91837500D03*
X76850000Y-94762500D03*
%TD*%
D11*
%TO.C,C38*%
X93400000Y-95500000D03*
X95300000Y-95500000D03*
%TD*%
D24*
%TO.C,C3*%
X99200000Y-89350000D03*
X99200000Y-87450000D03*
%TD*%
D28*
%TO.C,C22*%
X74932467Y-92719661D03*
X73032467Y-92719661D03*
%TD*%
D30*
%TO.C,R28*%
X100118227Y-100656774D03*
X97193227Y-100656774D03*
%TD*%
D24*
%TO.C,C9*%
X88170000Y-103100000D03*
X88170000Y-101200000D03*
%TD*%
D11*
%TO.C,C12*%
X85350000Y-116900000D03*
X87250000Y-116900000D03*
%TD*%
D25*
%TO.C,C25*%
X79528249Y-86528249D03*
X80871751Y-87871751D03*
%TD*%
%TO.C,C31*%
X82325296Y-83735671D03*
X83668798Y-85079173D03*
%TD*%
D28*
%TO.C,C29*%
X98750000Y-95500000D03*
X96850000Y-95500000D03*
%TD*%
D11*
%TO.C,C17*%
X78850000Y-92700000D03*
X80750000Y-92700000D03*
%TD*%
D28*
%TO.C,C10*%
X76036344Y-106759361D03*
X74136344Y-106759361D03*
%TD*%
D31*
%TO.C,R6*%
X81228400Y-98722000D03*
X79403400Y-98722000D03*
%TD*%
D28*
%TO.C,C36*%
X91900000Y-97500000D03*
X90000000Y-97500000D03*
%TD*%
D26*
%TO.C,R7*%
X73600000Y-109437500D03*
X73600000Y-111262500D03*
%TD*%
D32*
%TO.C,L1*%
X92700000Y-106480000D03*
X92700000Y-100280000D03*
%TD*%
D10*
%TO.C,C15*%
X71900000Y-104925000D03*
X71900000Y-106825000D03*
%TD*%
D28*
%TO.C,C23*%
X74350000Y-98800000D03*
X72450000Y-98800000D03*
%TD*%
D26*
%TO.C,R35*%
X89550000Y-108915000D03*
X89550000Y-110740000D03*
%TD*%
D24*
%TO.C,C14*%
X83060000Y-96740000D03*
X83060000Y-94840000D03*
%TD*%
D26*
%TO.C,R12*%
X97300000Y-106087500D03*
X97300000Y-107912500D03*
%TD*%
D11*
%TO.C,C28*%
X100350000Y-95500000D03*
X102250000Y-95500000D03*
%TD*%
D27*
%TO.C,D2*%
X102100000Y-108200000D03*
X99300000Y-108200000D03*
%TD*%
D28*
%TO.C,C21*%
X74950000Y-90650000D03*
X73050000Y-90650000D03*
%TD*%
%TO.C,C18*%
X74350000Y-96800000D03*
X72450000Y-96800000D03*
%TD*%
D27*
%TO.C,D3*%
X102100000Y-105800000D03*
X99300000Y-105800000D03*
%TD*%
D28*
%TO.C,C30*%
X98750000Y-97500000D03*
X96850000Y-97500000D03*
%TD*%
D22*
%TO.C,R39*%
X86130000Y-103052500D03*
X86130000Y-101227500D03*
%TD*%
D33*
%TO.C,U14*%
X95400000Y-88400000D03*
X95900000Y-88400000D03*
X96400000Y-88400000D03*
X96900000Y-88400000D03*
X97400000Y-88400000D03*
X97400000Y-92800000D03*
X96900000Y-92800000D03*
X96400000Y-92800000D03*
X95900000Y-92800000D03*
X95400000Y-92800000D03*
%TD*%
D10*
%TO.C,C32*%
X89570000Y-112315000D03*
X89570000Y-114215000D03*
%TD*%
%TO.C,C2*%
X93000000Y-78250000D03*
X93000000Y-80150000D03*
%TD*%
D12*
%TO.C,R5*%
X79390900Y-96772000D03*
X81215900Y-96772000D03*
%TD*%
%TO.C,R38*%
X85867500Y-104800000D03*
X87692500Y-104800000D03*
%TD*%
D28*
%TO.C,C20*%
X74929404Y-94712297D03*
X73029404Y-94712297D03*
%TD*%
M02*
