M48
; DRILL file {KiCad 9.0.5} date 2026-01-03T13:47:31+0100
; FORMAT={-:-/ absolute / metric / decimal}
; #@! TF.CreationDate,2026-01-03T13:47:31+01:00
; #@! TF.GenerationSoftware,Kicad,Pcbnew,9.0.5
; #@! TF.FileFunction,Plated,1,4,PTH
FMAT,2
METRIC
; #@! TA.AperFunction,Plated,PTH,ViaDrill
T1C0.300
; #@! TA.AperFunction,Plated,PTH,ComponentDrill
T2C0.300
; #@! TA.AperFunction,Plated,PTH,ComponentDrill
T3C0.600
; #@! TA.AperFunction,Plated,PTH,ComponentDrill
T4C0.750
; #@! TA.AperFunction,Plated,PTH,ComponentDrill
T5C1.000
%
G90
G05
T1
X70.6Y-99.15
X70.65Y-98.35
X70.7Y-97.55
X70.75Y-96.7
X70.85Y-95.8
X71.0Y-95.05
X71.15Y-94.25
X71.35Y-93.45
X71.55Y-92.65
X71.75Y-91.85
X72.665Y-109.616
X73.595Y-112.895
X74.1Y-105.534
X75.0Y-112.55
X75.9Y-113.7
X76.8Y-114.8
X80.1Y-112.6
X80.5Y-104.4
X81.2Y-119.2
X81.9Y-118.5
X82.6Y-88.2
X82.967Y-104.273
X83.9Y-75.9
X84.0Y-86.9
X85.4Y-85.5
X85.5Y-93.2
X85.5Y-93.9
X85.737Y-108.623
X85.75Y-109.5
X85.75Y-109.5
X85.75Y-109.5
X85.759Y-110.354
X86.2Y-93.2
X86.2Y-93.9
X86.387Y-108.623
X86.4Y-109.5
X86.409Y-110.354
X86.6Y-82.5
X86.9Y-93.2
X86.9Y-93.9
X87.087Y-108.623
X87.1Y-109.5
X87.109Y-110.354
X87.6Y-93.2
X87.6Y-93.9
X87.787Y-108.623
X87.8Y-109.5
X87.809Y-110.354
X91.472Y-72.535
X91.8Y-120.4
X91.9Y-75.6
X93.0Y-81.5
X93.0Y-82.4
X94.6Y-111.0
X95.3Y-103.3
X95.6Y-107.0
X96.1Y-96.5
X96.1Y-106.277
X96.103Y-87.188
X96.7Y-86.5
X97.1Y-73.3
X97.5Y-94.2
X97.7Y-87.2
X99.709Y-90.909
X99.8Y-110.4
X100.691Y-90.493
X101.2Y-111.2
X101.3Y-73.2
X101.5Y-89.999
X102.1Y-89.469
X102.108Y-126.812
X102.73Y-88.976
X102.87Y-127.213
X103.1Y-107.0
X103.2Y-104.5
X104.2Y-93.8
X105.639Y-125.298
X105.664Y-124.384
X105.925Y-91.2
X105.925Y-92.0
X108.976Y-98.024
X109.0Y-101.8
X109.4Y-74.8
X109.4Y-103.0
X109.8Y-73.6
X109.8Y-98.6
X110.0Y-95.0
X110.0Y-100.0
X111.0Y-103.4
X111.2Y-102.0
X112.8Y-110.0
X114.6Y-110.2
X116.2Y-109.8
X117.0Y-98.8
X117.2Y-110.4
X119.6Y-98.8
X120.2Y-106.8
X120.6Y-98.8
X120.6Y-110.6
X120.8Y-109.4
X121.6Y-98.8
X121.6Y-117.2
X122.6Y-95.4
X122.8Y-96.6
X124.0Y-113.8
X127.6Y-103.8
X128.0Y-100.6
X128.0Y-101.8
T2
X113.216Y-101.176
X113.216Y-102.576
X113.916Y-100.476
X113.916Y-101.876
X113.916Y-103.276
X114.616Y-101.176
X114.616Y-102.576
X115.316Y-100.476
X115.316Y-101.876
X115.316Y-103.276
X116.016Y-101.176
X116.016Y-102.576
T4
X88.55Y-78.0
X88.55Y-80.0
X88.55Y-82.0
X88.55Y-84.0
X89.0Y-122.6
X91.0Y-122.6
X96.4Y-77.1
X98.4Y-77.1
X100.4Y-77.1
X102.4Y-77.1
X110.897Y-83.732
X112.897Y-83.732
X114.897Y-83.732
X116.897Y-83.732
X118.897Y-83.732
X120.897Y-83.732
T5
X93.225Y-117.075
X95.735Y-82.36
X95.735Y-84.9
X95.765Y-117.075
X98.275Y-82.36
X98.275Y-84.9
X98.305Y-117.075
X100.815Y-82.36
X100.815Y-84.9
X100.845Y-117.075
X103.355Y-82.36
X103.355Y-84.9
X103.385Y-117.075
X105.925Y-117.075
X108.465Y-117.075
X109.25Y-114.8
X111.79Y-114.8
X114.33Y-114.8
X116.87Y-114.8
X119.41Y-114.8
X121.95Y-114.8
T3
G00X95.68Y-124.545
M15
G01X95.68Y-123.445
M16
G05
G00X95.68Y-128.565
M15
G01X95.68Y-127.765
M16
G05
G00X104.32Y-124.545
M15
G01X104.32Y-123.445
M16
G05
G00X104.32Y-128.565
M15
G01X104.32Y-127.765
M16
G05
M30
